<svg width="444" height="450" viewBox="0 0 444 450" fill="none" xmlns="http://www.w3.org/2000/svg">
<path d="M245.609 450C351.384 450 437.132 400.494 437.132 339.424C437.132 278.355 351.384 228.849 245.609 228.849C139.835 228.849 54.0872 278.355 54.0872 339.424C54.0872 400.494 139.835 450 245.609 450Z" fill="#FAFAFA"/>
<path d="M399.534 366.265C423.978 366.265 443.793 354.824 443.793 340.712C443.793 326.6 423.978 315.16 399.534 315.16C375.09 315.16 355.275 326.6 355.275 340.712C355.275 354.824 375.09 366.265 399.534 366.265Z" fill="#E0E0E0"/>
<path d="M265.139 270.019L212.998 300.123L278.288 337.904L330.429 307.714L265.139 270.019Z" fill="#E0E0E0"/>
<path d="M65.929 371.086C75.1566 376.48 75.1566 385.213 65.929 390.597C56.7015 395.98 41.7225 395.98 32.5143 390.597C23.3061 385.213 23.2867 376.48 32.5143 371.086C41.7418 365.693 56.7015 365.703 65.929 371.086Z" fill="#E0E0E0"/>
<path d="M225.934 31.9331V274.996L79.0876 359.767V116.724L225.934 31.9331Z" fill="#8CC63F"/>
<path opacity="0.25" d="M225.934 31.9331V274.996L79.0876 359.767V116.724L225.934 31.9331Z" fill="black"/>
<path opacity="0.15" d="M225.934 31.9331L189.421 52.8282L189.411 253.898L225.934 274.996V31.9331Z" fill="black"/>
<path d="M189.411 253.898L230.882 277.833L79.0876 365.48V190.234L189.411 253.898Z" fill="#8CC63F"/>
<path opacity="0.8" d="M189.411 253.898L230.882 277.833L79.0876 365.48V190.234L189.411 253.898Z" fill="white"/>
<path opacity="0.1" d="M89.7773 324.862L135.45 351.227L217.665 303.763L171.992 277.397L89.7773 324.862Z" fill="black"/>
<path d="M91.7525 320.562L136.012 346.115L215.69 300.122L171.431 274.56L91.7525 320.562Z" fill="#8CC63F"/>
<path opacity="0.1" d="M91.7525 320.562L136.012 346.115L215.69 300.122L171.431 274.56L91.7525 320.562Z" fill="black"/>
<path d="M91.7525 320.562V322.877L136.012 348.439V346.115L91.7525 320.562Z" fill="#8CC63F"/>
<path opacity="0.35" d="M91.7525 320.562V322.877L136.012 348.439V346.115L91.7525 320.562Z" fill="black"/>
<path d="M136.012 346.115L215.69 300.123V302.437L136.012 348.439V346.115Z" fill="#8CC63F"/>
<path opacity="0.2" d="M136.012 346.115L215.69 300.123V302.437L136.012 348.439V346.115Z" fill="black"/>
<path d="M126.726 325.665L122.921 322.441C122.805 322.344 122.766 322.257 122.795 322.18C122.828 322.091 122.894 322.018 122.979 321.976L124.799 320.921C124.893 320.876 124.996 320.853 125.099 320.853C125.208 320.851 125.315 320.878 125.409 320.931C125.444 320.949 125.477 320.972 125.506 320.998L132.487 327.098C132.542 327.135 132.584 327.186 132.61 327.246C132.636 327.307 132.644 327.373 132.633 327.437C132.612 327.518 132.573 327.593 132.52 327.657C132.466 327.721 132.399 327.771 132.323 327.805L131.17 328.473C130.982 328.583 130.768 328.64 130.551 328.638C130.349 328.642 130.147 328.619 129.95 328.57L125.768 327.36L127.869 329.771C127.947 329.87 127.988 329.993 127.985 330.119C127.985 330.255 127.878 330.371 127.694 330.478L126.542 331.146C126.347 331.255 126.127 331.315 125.903 331.32C125.705 331.336 125.507 331.306 125.322 331.233L114.758 327.205L114.633 327.147C114.596 327.135 114.564 327.111 114.542 327.08C114.52 327.049 114.508 327.011 114.508 326.973C114.508 326.934 114.52 326.897 114.542 326.865C114.564 326.834 114.596 326.811 114.633 326.798L116.453 325.743C116.561 325.686 116.68 325.649 116.801 325.636C116.957 325.625 117.113 325.652 117.257 325.714L122.834 327.912L121.139 325.975C121.087 325.913 121.047 325.84 121.023 325.762C121.023 325.665 121.023 325.569 121.217 325.472L122.514 324.717C122.664 324.622 122.843 324.585 123.018 324.61C123.145 324.621 123.272 324.644 123.395 324.678L126.726 325.665Z" fill="#FAFAFA"/>
<path d="M140.921 320.272C141.037 320.209 141.167 320.179 141.299 320.185C141.427 320.18 141.554 320.211 141.666 320.272L143.138 321.124C143.183 321.141 143.221 321.17 143.248 321.209C143.275 321.248 143.29 321.295 143.29 321.342C143.29 321.389 143.275 321.436 143.248 321.475C143.221 321.514 143.183 321.543 143.138 321.56L136.564 325.365C136.447 325.426 136.317 325.456 136.186 325.452C136.053 325.458 135.922 325.424 135.808 325.355L126.842 320.185C126.798 320.166 126.76 320.136 126.732 320.096C126.705 320.057 126.689 320.01 126.687 319.962C126.689 319.917 126.704 319.872 126.729 319.835C126.755 319.797 126.791 319.767 126.833 319.749L133.31 316.012C133.426 315.949 133.557 315.919 133.688 315.925C133.816 315.92 133.943 315.95 134.056 316.012L135.528 316.864C135.573 316.878 135.613 316.906 135.642 316.944C135.67 316.983 135.685 317.029 135.685 317.077C135.685 317.124 135.67 317.171 135.642 317.209C135.613 317.248 135.573 317.276 135.528 317.29L131.258 319.759L132.758 320.63L136.728 318.335C136.841 318.274 136.968 318.244 137.096 318.248C137.228 318.243 137.358 318.273 137.474 318.335L138.946 319.188C138.989 319.204 139.027 319.233 139.055 319.271C139.082 319.309 139.098 319.354 139.101 319.401C139.101 319.488 139.052 319.556 138.946 319.623L134.976 321.908L136.535 322.809L140.921 320.272Z" fill="#FAFAFA"/>
<path d="M149.732 315.208C149.85 315.151 149.979 315.121 150.11 315.121C150.241 315.121 150.37 315.151 150.487 315.208L151.959 316.06C152.001 316.079 152.038 316.108 152.065 316.146C152.093 316.183 152.109 316.227 152.114 316.273C152.11 316.321 152.094 316.366 152.066 316.405C152.039 316.444 152.002 316.476 151.959 316.496L145.53 320.204C145.412 320.262 145.283 320.291 145.152 320.291C145.021 320.291 144.892 320.262 144.775 320.204L135.808 315.024C135.765 315.007 135.727 314.978 135.7 314.941C135.672 314.903 135.656 314.858 135.654 314.811C135.654 314.724 135.702 314.656 135.808 314.588L137.629 313.543C137.741 313.481 137.869 313.451 137.997 313.456C138.128 313.45 138.259 313.48 138.374 313.543L145.501 317.658L149.732 315.208Z" fill="#FAFAFA"/>
<path d="M149.558 310.899L150.042 311.199L150.691 311.577L151.359 311.964L151.891 312.245C152.13 312.356 152.375 312.45 152.627 312.526C152.895 312.6 153.172 312.639 153.45 312.642C153.747 312.647 154.043 312.615 154.331 312.545C154.653 312.459 154.962 312.332 155.251 312.168C155.505 312.037 155.731 311.859 155.919 311.645C156.029 311.519 156.109 311.37 156.152 311.209C156.174 311.08 156.153 310.948 156.094 310.831C156.042 310.721 155.973 310.62 155.89 310.531C155.813 310.458 155.759 310.364 155.735 310.26C155.735 310.192 155.803 310.115 155.958 310.018L157.778 308.972C157.873 308.919 157.98 308.893 158.088 308.895C158.193 308.892 158.297 308.919 158.388 308.972C158.793 309.201 159.127 309.536 159.357 309.941C159.549 310.292 159.608 310.701 159.521 311.093C159.419 311.546 159.198 311.963 158.882 312.303C158.476 312.762 157.995 313.149 157.459 313.446C156.803 313.825 156.1 314.114 155.367 314.307C154.664 314.488 153.943 314.588 153.218 314.608C152.528 314.629 151.838 314.56 151.165 314.404C150.542 314.272 149.94 314.057 149.374 313.765C148.977 313.562 148.56 313.329 148.125 313.078C147.689 312.826 147.282 312.584 146.895 312.342C146.455 312.079 146.075 311.726 145.782 311.306C145.54 310.96 145.417 310.546 145.433 310.125C145.482 309.664 145.668 309.23 145.965 308.875C146.384 308.386 146.889 307.979 147.457 307.675C148.065 307.318 148.716 307.038 149.393 306.842C150.076 306.649 150.777 306.526 151.485 306.474C152.154 306.428 152.827 306.46 153.489 306.571C154.076 306.665 154.642 306.859 155.164 307.142C155.199 307.157 155.23 307.181 155.252 307.211C155.274 307.242 155.287 307.279 155.29 307.317C155.289 307.356 155.277 307.395 155.254 307.427C155.232 307.46 155.201 307.485 155.164 307.501L153.344 308.546C153.221 308.625 153.082 308.671 152.937 308.682C152.779 308.665 152.623 308.633 152.472 308.585L151.949 308.469C151.734 308.444 151.516 308.444 151.301 308.469C151.038 308.484 150.778 308.53 150.526 308.604C150.214 308.691 149.915 308.818 149.635 308.982C149.383 309.115 149.159 309.296 148.977 309.515C148.861 309.66 148.799 309.842 148.802 310.028C148.817 310.206 148.892 310.373 149.016 310.502C149.179 310.657 149.361 310.79 149.558 310.899Z" fill="#FAFAFA"/>
<path d="M156.684 306.707C156.243 306.438 155.861 306.082 155.561 305.661C155.31 305.32 155.187 304.902 155.212 304.48C155.261 304.027 155.443 303.599 155.735 303.25C156.162 302.752 156.677 302.339 157.255 302.03C157.912 301.644 158.619 301.351 159.357 301.158C160.059 300.972 160.78 300.868 161.506 300.849C162.19 300.828 162.873 300.896 163.539 301.052C164.168 301.19 164.777 301.408 165.35 301.701C165.766 301.923 166.193 302.156 166.628 302.408C167.064 302.659 167.461 302.901 167.819 303.124C168.259 303.395 168.64 303.751 168.942 304.17C169.191 304.512 169.318 304.928 169.301 305.351C169.252 305.808 169.067 306.241 168.768 306.59C168.339 307.083 167.824 307.493 167.248 307.801C166.59 308.187 165.883 308.483 165.147 308.682C164.448 308.866 163.73 308.967 163.007 308.982C162.32 308.999 161.634 308.931 160.964 308.779C160.335 308.64 159.727 308.422 159.153 308.13C158.756 307.917 158.34 307.694 157.904 307.442C157.468 307.191 157.062 306.939 156.684 306.707ZM165.224 304.567L164.692 304.238L164.082 303.86L163.452 303.511L162.891 303.221C162.639 303.103 162.376 303.009 162.106 302.94C161.831 302.871 161.548 302.836 161.264 302.834C160.967 302.835 160.671 302.874 160.383 302.95C160.078 303.031 159.785 303.152 159.512 303.308C159.273 303.436 159.06 303.607 158.882 303.811C158.768 303.959 158.704 304.138 158.698 304.325C158.695 304.5 158.753 304.671 158.863 304.809C158.999 304.986 159.167 305.136 159.357 305.254C159.502 305.361 159.666 305.467 159.86 305.583L160.47 305.951L161.099 306.31L161.69 306.61C162.202 306.853 162.76 306.985 163.326 306.997C163.94 307.002 164.543 306.838 165.069 306.523C165.641 306.184 165.912 305.855 165.883 305.554C165.857 305.35 165.784 305.154 165.67 304.983C165.556 304.811 165.403 304.669 165.224 304.567Z" fill="#FAFAFA"/>
<path d="M174.684 300.519H174.268L170.666 299.948L175.265 302.601C175.308 302.62 175.344 302.649 175.371 302.687C175.399 302.724 175.415 302.768 175.42 302.814C175.416 302.862 175.4 302.907 175.372 302.946C175.345 302.985 175.308 303.017 175.265 303.037L173.445 304.083C173.329 304.144 173.199 304.174 173.067 304.17C172.939 304.174 172.812 304.144 172.699 304.083L163.723 298.902C163.681 298.884 163.644 298.854 163.617 298.817C163.59 298.779 163.573 298.735 163.569 298.689C163.569 298.602 163.617 298.535 163.723 298.467L165.331 297.498C165.503 297.395 165.702 297.345 165.902 297.353H166.309L172.399 298.273L170.811 294.758C170.784 294.683 170.768 294.605 170.763 294.526C170.763 294.41 170.84 294.303 171.024 294.197L172.641 293.228C172.754 293.167 172.881 293.137 173.009 293.141C173.141 293.136 173.271 293.166 173.387 293.228L182.363 298.409C182.459 298.467 182.517 298.535 182.508 298.622C182.498 298.709 182.508 298.777 182.363 298.835L180.542 299.89C180.426 299.951 180.296 299.981 180.165 299.977C180.036 299.982 179.909 299.952 179.797 299.89L175.197 297.237L176.166 299.309C176.176 299.39 176.176 299.471 176.166 299.551C176.166 299.648 176.098 299.725 175.953 299.813L175.072 300.326C174.959 300.419 174.826 300.485 174.684 300.519Z" fill="#FAFAFA"/>
<path d="M189.431 292.28C189.543 292.218 189.671 292.188 189.799 292.193C189.93 292.189 190.06 292.219 190.176 292.28L191.648 293.132C191.692 293.149 191.73 293.178 191.757 293.215C191.785 293.253 191.801 293.298 191.803 293.345C191.798 293.391 191.782 293.435 191.754 293.472C191.727 293.51 191.691 293.539 191.648 293.558L185.064 297.363C184.948 297.426 184.818 297.456 184.686 297.45C184.558 297.455 184.431 297.425 184.318 297.363L175.343 292.183C175.3 292.163 175.262 292.131 175.235 292.092C175.208 292.053 175.192 292.008 175.188 291.96C175.191 291.914 175.208 291.869 175.235 291.832C175.262 291.794 175.3 291.765 175.343 291.747L181.811 288.01C181.927 287.949 182.057 287.919 182.188 287.923C182.32 287.918 182.45 287.948 182.566 288.01L184.038 288.862C184.082 288.878 184.12 288.908 184.148 288.947C184.175 288.986 184.189 289.032 184.189 289.08C184.189 289.127 184.175 289.173 184.148 289.212C184.12 289.251 184.082 289.281 184.038 289.297L179.748 291.767L181.249 292.628L185.219 290.334C185.337 290.276 185.466 290.246 185.597 290.246C185.727 290.246 185.857 290.276 185.974 290.334L187.446 291.186C187.49 291.202 187.529 291.232 187.556 291.271C187.583 291.31 187.597 291.356 187.597 291.403C187.597 291.451 187.583 291.497 187.556 291.536C187.529 291.575 187.49 291.605 187.446 291.621L183.476 293.916L185.025 294.807L189.431 292.28Z" fill="#FAFAFA"/>
<path d="M167.529 180.242C165.592 180.726 160.964 181.646 160.964 181.646C160.964 181.646 163.452 178.48 162.436 177.773C161.419 177.066 160.702 179.254 157.778 180.455C154.854 181.656 153.712 183.176 151.911 183.195L129.641 183.505C129.641 183.505 114.148 164.973 111.592 163.094C110.645 162.321 109.542 161.763 108.359 161.457C107.175 161.151 105.94 161.105 104.737 161.322L107.864 177.783L120.684 190.554C123.666 193.517 124.828 194.534 128.808 194.33C133.33 194.098 144.784 192.307 151.388 191.222C155.726 190.864 157.197 191.038 160.228 190.525C163.491 189.983 166.928 189.973 169.214 185.839C171.857 181.036 170.404 179.545 167.529 180.242Z" fill="#F28F8F"/>
<path d="M124.499 91.1037V291.408L189.411 253.898V53.6416L124.499 91.1037Z" fill="#455A64"/>
<path d="M127.065 183.824C127.107 183.023 127.338 182.244 127.738 181.549C128.139 180.854 128.698 180.263 129.369 179.825C130.648 179.09 131.674 179.69 131.674 181.162C131.61 182.374 131.116 183.524 130.28 184.405V186.342C130.264 186.613 130.185 186.877 130.048 187.113C129.912 187.348 129.723 187.548 129.495 187.697L129.224 187.852C128.798 188.104 128.45 187.852 128.45 187.397V185.461C127.636 185.528 127.065 184.918 127.065 183.824Z" fill="#263238"/>
<path d="M150.197 85.8557L133.63 95.4222V171.45L150.197 161.884V85.8557Z" fill="#8CC63F"/>
<path opacity="0.3" d="M150.197 85.8557L133.63 95.4222V171.45L150.197 161.884V85.8557Z" fill="black"/>
<path d="M177.647 69.9761L161.07 79.5425V155.57L177.647 146.004V69.9761Z" fill="#8CC63F"/>
<path opacity="0.3" d="M177.647 69.9761L161.07 79.5425V155.57L177.647 146.004V69.9761Z" fill="black"/>
<path d="M150.197 161.884L152.821 163.394L133.63 174.481V171.45L150.197 161.884Z" fill="#263238"/>
<path d="M177.647 146.004L180.271 147.524L161.08 158.601L158.456 157.081L177.647 146.004Z" fill="#263238"/>
<path d="M177.647 146.004V69.9472L180.281 68.427L180.271 147.515L177.647 146.004Z" fill="#37474F"/>
<path d="M152.821 163.394L161.08 158.601V79.5427L152.821 84.3356V163.394Z" fill="#455A64"/>
<path d="M152.821 163.394L150.197 161.884V85.8559L152.821 84.3357V163.394Z" fill="#37474F"/>
<path opacity="0.1" d="M152.821 176.01L133.63 187.087V272.188L152.821 261.101V176.01Z" fill="black"/>
<path d="M150.971 182.13L137.871 189.692V264.675L150.971 257.112V182.13Z" fill="#455A64"/>
<path d="M133.63 187.087L137.871 189.692V264.674L133.63 272.188V187.087Z" fill="#37474F"/>
<path d="M152.821 176.01L150.971 182.13V257.112L152.821 261.101V176.01Z" fill="#37474F"/>
<path d="M152.821 261.102L150.971 257.112L137.871 264.674L133.63 272.188L152.821 261.102Z" fill="#263238"/>
<path opacity="0.1" d="M180.281 160.122L161.08 171.208V256.309L180.281 245.222V160.122Z" fill="black"/>
<path d="M178.431 166.25L165.331 173.813V248.795L178.431 241.233V166.25Z" fill="#455A64"/>
<path d="M161.08 171.208L165.331 173.813V248.795L161.08 256.309V171.208Z" fill="#37474F"/>
<path d="M180.281 160.122L178.431 166.251V241.233L180.281 245.222V160.122Z" fill="#37474F"/>
<path d="M180.281 245.222L178.431 241.233L165.331 248.795L161.08 256.309L180.281 245.222Z" fill="#263238"/>
<path d="M121.681 289.839L124.499 291.408V91.1035L121.681 92.7011V289.839Z" fill="#263238"/>
<path opacity="0.1" d="M189.411 52.8281V75.4371L79.0876 139.333V116.724L189.411 52.8281Z" fill="black"/>
<path opacity="0.1" d="M100.941 333.944C106.17 334.68 110.624 337.429 115.669 338.495C118.98 339.182 122.543 339.395 125.603 337.933C126.571 337.458 128.043 336.432 128.372 335.377C128.876 333.779 127.617 332.472 126.6 331.504C125.338 330.331 124.009 329.232 122.621 328.212C119.719 326.262 116.566 324.715 113.248 323.612C110.343 322.538 107.438 321.55 104.466 320.708C101.709 320.059 98.8993 319.661 96.0709 319.517C89.678 318.796 83.2071 319.249 76.9768 320.853C70.9542 322.528 65.3577 324.145 60.9327 328.88C59.3454 330.389 58.2919 332.374 57.9311 334.534C57.8768 335.74 58.0821 336.943 58.5331 338.062C58.9842 339.181 59.6704 340.191 60.5454 341.022C61.8903 342.482 63.5235 343.647 65.3418 344.444C67.1601 345.24 69.124 345.651 71.1091 345.65C72.5109 345.629 73.894 345.325 75.1752 344.756C76.4565 344.187 77.6094 343.365 78.5648 342.339C80.4432 340.208 81.8859 337.72 84.3743 336.171C89.1575 333.169 95.5093 333.227 100.941 333.944Z" fill="black"/>
<path d="M90.3969 156.132C90.2323 157.962 90.5034 159.889 87.3081 161.225C87.3081 161.225 88.9154 165.892 85.1876 167.441C85.1876 167.441 86.4561 171.818 83.3576 173.251C83.6486 174.164 83.6413 175.146 83.3366 176.055C83.0319 176.964 82.4458 177.752 81.6632 178.305C82.2806 179.152 82.6068 180.176 82.5928 181.223C82.5788 182.271 82.2254 183.285 81.5857 184.115C81.9341 184.384 82.2189 184.726 82.4197 185.118C82.6206 185.51 82.7325 185.941 82.7476 186.381C82.8832 188.007 82.1667 189.954 80.5787 190.321C80.8635 189.975 81.0192 189.54 81.0192 189.092C81.0192 188.643 80.8635 188.209 80.5787 187.862C79.5523 186.69 79.0973 185.219 80.1914 184.144C80.1914 184.144 76.3958 182.992 78.5938 178.557C78.1524 178.141 77.8178 177.624 77.6182 177.052C77.4187 176.479 77.3602 175.866 77.4476 175.266C77.535 174.665 77.7657 174.095 78.1203 173.603C78.4749 173.11 78.9428 172.711 79.4846 172.438C79.4846 172.438 77.4415 167.848 81.2759 166.173C81.2759 166.173 79.0392 163.501 81.9827 160.363C81.9827 160.363 79.1844 155.629 85.0714 151.552L90.3969 156.132Z" fill="#263238"/>
<path d="M112.018 317.28C112.224 316.897 112.325 316.466 112.309 316.031C112.304 315.559 112.323 315.087 112.367 314.617C112.599 311.035 115.446 277.02 116.153 269.206C117.344 256.086 117.402 221.006 114.768 209.706L79.4653 212.504C76.9381 218.866 75.0984 226.689 75.5244 238.967C75.844 248.33 75.6987 273.728 75.6987 273.728C72.5114 276.868 70.0235 280.646 68.398 284.814C65.7159 291.331 63.7019 307.084 62.2205 313.436C61.9397 314.637 61.6202 316.341 61.6202 316.341C60.8584 317.404 60.4364 318.674 60.4099 319.981C60.4222 323.872 60.8441 327.75 61.6686 331.552C61.8688 332.479 62.3099 333.337 62.9474 334.039C63.5849 334.741 64.3962 335.263 65.2996 335.551C65.7312 335.73 66.1986 335.807 66.6648 335.774C66.9103 335.772 67.1471 335.683 67.3329 335.522C67.6621 335.193 67.3329 334.409 67.3329 334.012C67.2276 333.371 67.1662 332.724 67.149 332.075C67.149 330.807 67.149 329.267 67.2264 327.999C67.3827 325.186 67.8206 322.397 68.5336 319.672L69.2114 318.055C69.2114 318.055 84.3162 287.39 88.5766 279.905C91.9849 274.047 95.4513 251.274 97.8526 238.831L102.035 268.538C101.021 271.629 100.269 274.8 99.7891 278.017C99.1694 283.526 102.326 304.76 103.507 312.439C103.68 313.563 103.741 314.701 103.691 315.837C103.633 316.18 103.633 316.53 103.691 316.873C103.836 317.227 104.082 317.53 104.398 317.745C105.037 318.061 105.709 318.305 106.402 318.471C107.349 318.722 108.335 318.788 109.307 318.665C109.675 318.607 110.024 318.481 110.392 318.413C110.81 318.33 111.198 318.136 111.515 317.851C111.718 317.695 111.889 317.501 112.018 317.28Z" fill="#FFA8A7"/>
<path d="M72.2129 342.803H71.9418C69.5729 343.104 67.167 342.883 64.8928 342.155C62.8707 341.495 61.0553 340.321 59.6255 338.746C59.0627 337.977 58.6398 337.115 58.3764 336.2C58.0827 335.25 57.8626 334.279 57.718 333.295C57.1177 330.167 57.9601 329.286 57.0209 326.207C56.5921 325.136 56.2394 324.036 55.9655 322.915C56.1196 322.339 56.3934 321.801 56.7691 321.337L60.6422 326.759L63.2081 330.361L64.5733 332.298C64.8735 332.724 65.1058 333.266 65.4447 333.673C65.9667 334.15 66.5534 334.551 67.1876 334.864C67.817 335.261 68.4657 335.638 69.1241 335.987C70.4129 336.684 71.7417 337.305 73.1037 337.846C73.6801 338.041 74.2298 338.308 74.7401 338.64C74.9947 338.811 75.2089 339.036 75.3677 339.298C75.5266 339.561 75.6263 339.855 75.6599 340.16C75.6595 340.689 75.4508 341.197 75.079 341.574C74.2942 342.302 73.2816 342.737 72.2129 342.803Z" fill="#37474F"/>
<path d="M68.2721 320.107L68.9209 318.8C69.4534 319.246 68.7079 321.957 68.611 324.784C68.5755 326.048 68.6565 327.312 68.8531 328.56C69.0274 329.704 69.4649 330.791 70.1312 331.736C71.1128 333.255 72.3398 334.6 73.7622 335.716C74.4259 336.13 74.9804 336.698 75.3792 337.372C75.5992 337.745 75.7271 338.165 75.7523 338.598C75.7776 339.031 75.6995 339.463 75.5244 339.86C75.2007 340.419 74.6948 340.85 74.0914 341.08C73.2749 341.4 72.4112 341.583 71.5352 341.622C68.7235 341.847 65.9045 341.287 63.3921 340.005C62.0298 339.305 60.8547 338.289 59.9644 337.042C59.3299 335.922 58.9219 334.689 58.7638 333.411C58.299 331.194 58.4539 328.928 58.1828 327.224C57.9117 325.52 56.5271 323.07 56.7692 321.415C56.9047 320.495 58.1151 318.945 59.2382 317.706C60.3614 316.467 61.3975 315.256 61.7848 315.615L61.6299 316.389C62.1909 317.749 63.2217 318.863 64.5346 319.526C65.6732 320.154 66.9968 320.36 68.2721 320.107Z" fill="#455A64"/>
<path d="M70.3345 332.259C70.4052 332.251 70.4719 332.222 70.5255 332.175C70.5792 332.129 70.6173 332.067 70.6346 331.998C70.6463 331.953 70.649 331.907 70.6426 331.861C70.6362 331.816 70.6209 331.772 70.5975 331.732C70.5741 331.693 70.5431 331.658 70.5062 331.63C70.4694 331.603 70.4275 331.583 70.3829 331.572C68.398 331.058 64.767 331.184 63.0628 332.114C63.0227 332.136 62.9874 332.166 62.9589 332.202C62.9304 332.238 62.9092 332.279 62.8967 332.323C62.8841 332.367 62.8803 332.413 62.8855 332.459C62.8908 332.504 62.905 332.548 62.9273 332.588C62.9485 332.629 62.9779 332.666 63.0136 332.695C63.0494 332.724 63.0908 332.746 63.1352 332.759C63.1797 332.771 63.2262 332.775 63.2721 332.769C63.3179 332.763 63.362 332.748 63.4017 332.724C64.9316 331.881 68.3786 331.756 70.1796 332.249L70.3345 332.259Z" fill="#E0E0E0"/>
<path d="M69.3663 329.548C69.4363 329.543 69.5033 329.518 69.5586 329.475C69.6139 329.432 69.6548 329.373 69.6761 329.306C69.6911 329.263 69.6972 329.217 69.694 329.171C69.6909 329.126 69.6785 329.081 69.6577 329.04C69.6369 329 69.6081 328.964 69.573 328.934C69.5379 328.905 69.4972 328.883 69.4534 328.87C67.226 328.216 64.846 328.308 62.6756 329.132C62.6273 329.146 62.5829 329.171 62.5452 329.204C62.5075 329.238 62.4775 329.279 62.4573 329.325C62.4371 329.371 62.4271 329.421 62.428 329.472C62.429 329.522 62.4409 329.572 62.4628 329.617C62.4848 329.662 62.5164 329.703 62.5553 329.735C62.5942 329.767 62.6396 329.79 62.6884 329.802C62.7371 329.815 62.7881 329.817 62.8377 329.808C62.8873 329.8 62.9344 329.78 62.9757 329.751C64.9971 329.012 67.2009 328.934 69.2694 329.529C69.3002 329.541 69.3331 329.548 69.3663 329.548Z" fill="#E0E0E0"/>
<path d="M68.8143 326.769C68.8766 326.77 68.9379 326.753 68.991 326.721C69.0442 326.688 69.087 326.641 69.1145 326.585C69.1367 326.545 69.1509 326.501 69.1562 326.455C69.1614 326.41 69.1577 326.364 69.1451 326.32C69.1325 326.276 69.1113 326.235 69.0828 326.199C69.0543 326.163 69.019 326.133 68.9789 326.111C66.8613 325.281 64.5044 325.305 62.4044 326.178C62.3631 326.198 62.326 326.226 62.2954 326.26C62.2647 326.294 62.2411 326.334 62.2258 326.377C62.2105 326.42 62.2039 326.466 62.2063 326.511C62.2087 326.557 62.2201 326.602 62.2398 326.643C62.2813 326.725 62.3534 326.787 62.4404 326.816C62.5274 326.845 62.6223 326.839 62.7046 326.798C64.6013 326.019 66.7236 325.991 68.64 326.721C68.6936 326.75 68.7532 326.767 68.8143 326.769Z" fill="#E0E0E0"/>
<path d="M128.053 332.666C128.11 333.241 128.018 333.821 127.786 334.35C127.553 334.879 127.188 335.34 126.726 335.687C124.115 337.183 121.055 337.695 118.099 337.129C113.093 335.871 112.115 334.525 110.353 332.714C108.165 330.41 108.416 329.209 105.947 327.127C105.009 326.455 104.119 325.717 103.284 324.92C103.08 324.156 103.002 323.365 103.052 322.576L128.053 332.666Z" fill="#37474F"/>
<path d="M112.212 315.692L112.367 314.617C113.045 314.704 113.577 317.009 115.02 319.459C116.274 321.45 117.87 323.204 119.735 324.639C122.64 326.817 126.223 328.967 127.859 331.417C129.495 333.866 124.412 336.161 120.558 336.074C118.838 336.043 117.141 335.671 115.565 334.979C113.99 334.288 112.567 333.291 111.379 332.046C109.791 330.429 108.697 328.434 107.506 327.147C106.315 325.859 103.875 324.542 103.178 322.993C102.782 321.527 102.732 319.989 103.033 318.5C103.284 316.98 103.197 314.888 103.71 314.975C103.71 315.121 103.71 315.798 103.71 315.798C105.199 316.762 106.945 317.248 108.716 317.193C110.024 317.128 111.265 316.596 112.212 315.692Z" fill="#455A64"/>
<path d="M122.311 326.295C122.372 326.259 122.421 326.206 122.452 326.142C122.483 326.078 122.495 326.007 122.485 325.936C122.478 325.892 122.462 325.849 122.438 325.81C122.414 325.772 122.383 325.738 122.346 325.712C122.309 325.686 122.267 325.667 122.223 325.658C122.178 325.648 122.133 325.647 122.088 325.656C120.055 325.965 116.772 327.524 115.581 329.064C115.553 329.1 115.532 329.141 115.521 329.185C115.509 329.229 115.506 329.275 115.512 329.32C115.518 329.366 115.534 329.409 115.557 329.448C115.581 329.487 115.612 329.521 115.649 329.548C115.721 329.604 115.813 329.629 115.903 329.618C115.994 329.607 116.076 329.561 116.133 329.49C117.208 328.105 120.326 326.634 122.195 326.343L122.311 326.295Z" fill="#E0E0E0"/>
<path d="M119.561 324.397C119.622 324.364 119.672 324.312 119.703 324.25C119.734 324.188 119.746 324.117 119.735 324.048C119.721 323.957 119.671 323.875 119.597 323.821C119.522 323.766 119.429 323.744 119.338 323.758C117.048 324.178 114.957 325.334 113.383 327.05C113.327 327.123 113.302 327.216 113.314 327.307C113.325 327.399 113.373 327.482 113.446 327.539C113.52 327.595 113.612 327.62 113.704 327.609C113.796 327.597 113.879 327.549 113.935 327.476C115.4 325.902 117.331 324.84 119.445 324.445C119.486 324.437 119.526 324.421 119.561 324.397Z" fill="#E0E0E0"/>
<path d="M117.237 322.422C117.291 322.39 117.335 322.344 117.365 322.29C117.396 322.235 117.412 322.174 117.411 322.112C117.411 322.019 117.375 321.931 117.309 321.865C117.244 321.8 117.155 321.763 117.063 321.763C114.808 322.051 112.753 323.204 111.331 324.978C111.278 325.054 111.258 325.147 111.274 325.238C111.291 325.329 111.342 325.409 111.418 325.462C111.493 325.515 111.585 325.537 111.676 325.523C111.767 325.508 111.848 325.459 111.902 325.384C113.191 323.791 115.041 322.751 117.073 322.48C117.132 322.476 117.189 322.456 117.237 322.422Z" fill="#E0E0E0"/>
<path d="M83.3189 201.854C80.5727 207.189 78.4106 212.805 76.8703 218.604C74.9338 226.854 75.0015 232.276 75.079 246.684C75.1565 261.092 75.3598 273.573 75.3598 273.573C75.3598 273.573 68.2237 278.288 65.8611 294.632C65.8611 294.632 71.4868 300.442 78.9521 298.505C78.9521 298.505 86.9693 284.262 89.6029 279.799C92.2366 275.335 97.8719 238.841 97.8719 238.841L101.261 268.596C101.261 268.596 98.7046 275.713 99.0338 280.738C99.363 285.763 100.728 293.625 100.728 293.625C105.252 295.004 110.125 294.659 114.41 292.657C114.41 292.657 116.83 269.303 117.15 260.83C117.47 252.358 118.506 222.419 114.342 203.703L83.3189 201.854Z" fill="#455A64"/>
<path d="M97.8718 238.899L101.222 225.75C101.222 225.75 107.661 226.496 112.725 222.749C112.725 222.749 111.689 227.59 102.713 228.984L98.8401 241.852L98.8982 248.001L97.8718 238.899Z" fill="#263238"/>
<path d="M114.168 198.242C113.796 194.625 113.757 190.982 114.052 187.359C116.1 185.454 117.404 182.884 117.732 180.106C118.06 177.329 117.391 174.525 115.843 172.196C110.953 164.275 104.756 161.322 104.756 161.322L96.5938 161.07C95.4319 161.206 85.4007 162.649 84.1225 163.007C84.1225 163.007 80.6659 165.912 79.7266 169.291C79.1941 171.227 79.0392 173.164 80.7724 179.351L85.023 190.186C85.023 190.186 86.2624 193.43 85.633 195.705C85.0037 197.98 81.547 203.635 79.7266 209.125C79.7266 209.125 87.4727 216.068 101.697 214.46C113.848 213.076 115.62 208.99 115.62 208.99C115.62 208.99 114.313 200.459 114.168 198.242Z" fill="#FAFAFA"/>
<path opacity="0.1" d="M91.2877 185.18C92.1177 186.639 93.3515 187.828 94.8408 188.602C96.33 189.377 98.0113 189.705 99.6826 189.547C101.297 189.449 102.858 188.927 104.206 188.032C105.554 187.138 106.643 185.904 107.361 184.454C107.361 184.454 107.303 190.864 99.731 191.086C92.1592 191.309 91.2877 185.18 91.2877 185.18Z" fill="black"/>
<path d="M146.159 184.676C146.19 183.786 145.925 182.911 145.404 182.188C145.331 182.056 145.229 181.942 145.104 181.856C144.98 181.77 144.837 181.715 144.687 181.694C144.317 181.718 143.969 181.884 143.719 182.159C142.673 183.127 141.783 184.096 140.688 185.064C139.66 185.972 138.359 186.513 136.99 186.603C137.001 186.332 137.104 186.073 137.28 185.867C137.706 185.277 138.026 184.851 138.481 184.212C138.771 183.895 138.988 183.518 139.115 183.108C139.242 182.698 139.277 182.265 139.217 181.839C139.189 181.725 139.131 181.62 139.05 181.535C138.968 181.45 138.865 181.388 138.752 181.355C138.56 181.339 138.368 181.39 138.21 181.501C136.712 182.245 135.308 183.165 134.027 184.241C132.623 185.422 131.79 187.378 129.36 188.337C126.929 189.295 124.335 189.527 119.851 190.118C116.356 190.573 110.605 191.319 106.731 191.658C101.183 186.032 94.3958 175.952 90.6971 170.947C88.7273 168.133 86.5318 165.484 84.1322 163.026C80.8886 163.994 79.0101 165.65 78.2549 167.974C76.3184 173.328 79.0489 179.448 86.3012 187.513C88.6637 190.157 95.8192 198.019 99.4695 201.689C100.008 202.237 100.659 202.662 101.378 202.932C102.097 203.203 102.867 203.314 103.633 203.257C105.82 203.02 107.992 202.661 110.14 202.183C114.139 201.214 119.212 199.762 123.202 198.794C126.426 198.009 129.776 197.061 132.516 196.257C134.386 195.762 136.223 195.151 138.016 194.427C139.533 193.879 140.967 193.123 142.276 192.181C143.138 191.58 143.891 190.837 144.503 189.983C145.032 189.173 145.437 188.288 145.704 187.359C146.001 186.495 146.155 185.589 146.159 184.676Z" fill="#FFA8A7"/>
<path d="M82.9219 133.33C80.6755 136.234 80.2495 140.03 80.8014 143.767C81.7697 150.052 85.5749 154.941 90.1258 157.004C92.8466 158.243 96.3904 158.766 98.2108 157.178C101.048 154.719 103.924 152.337 106.983 150.139C109.268 148.522 111.825 146.905 112.938 144.329C113.906 142.141 113.906 138.394 111.854 136.777C113.473 135.51 114.603 133.72 115.049 131.713C115.252 131.187 115.293 130.612 115.169 130.062C115.045 129.512 114.761 129.012 114.352 128.624C113.771 128.12 111.941 128.033 111.166 127.946C108.454 127.539 105.78 126.914 103.168 126.077C99.9321 125.385 96.6007 125.257 93.321 125.7C90.7648 126.194 87.8503 127.201 86.5432 130.764C85.0716 131.166 83.7892 132.075 82.9219 133.33Z" fill="#263238"/>
<path d="M106.16 131.596C108.097 132.565 110.585 136.999 111.002 146.624C111.321 154.777 108.804 156.955 107.516 157.623C106.228 158.291 103.643 158.088 101.135 157.836L101.396 161.913C101.396 161.913 108.629 167.132 102.965 168.216C99.8322 168.647 96.6521 167.883 94.057 166.076C92.6546 165.183 91.4488 164.013 90.5131 162.639L89.9418 152.521C89.9418 152.521 88.5669 154.031 85.9526 152.017C83.7934 150.352 82.9122 147.379 84.4034 145.656C84.7938 145.245 85.2759 144.933 85.8101 144.746C86.3444 144.558 86.9156 144.499 87.4768 144.575C88.0381 144.65 88.5735 144.858 89.039 145.18C89.5045 145.503 89.8869 145.931 90.1549 146.43C90.1549 146.43 91.6653 147.195 92.9531 144.397C95.4101 144.003 97.7486 143.067 99.7987 141.657C101.479 140.491 102.907 139 104 137.272C105.093 135.544 105.827 133.614 106.16 131.596Z" fill="#FFA8A7"/>
<path d="M100.263 144.726C100.299 145.001 100.224 145.279 100.056 145.498C99.8867 145.718 99.6376 145.862 99.363 145.898C99.0834 145.919 98.8067 145.83 98.5928 145.648C98.3789 145.467 98.2451 145.209 98.2204 144.929C98.1909 144.659 98.2702 144.387 98.4409 144.175C98.6116 143.962 98.8596 143.826 99.1306 143.797C99.4015 143.767 99.6731 143.846 99.8855 144.017C100.098 144.188 100.234 144.436 100.263 144.707V144.726Z" fill="#263238"/>
<path d="M100.428 150.903L104.301 152.017C104.24 152.279 104.127 152.527 103.968 152.745C103.809 152.963 103.608 153.146 103.377 153.285C103.145 153.423 102.888 153.513 102.621 153.55C102.354 153.587 102.083 153.569 101.822 153.498C101.302 153.327 100.867 152.962 100.608 152.479C100.348 151.996 100.284 151.432 100.428 150.903Z" fill="#B16668"/>
<path d="M102.762 153.528C102.717 153.035 102.486 152.577 102.115 152.249C101.744 151.922 101.262 151.748 100.767 151.765C100.643 151.774 100.52 151.794 100.399 151.823C100.462 152.213 100.634 152.576 100.894 152.872C101.155 153.168 101.493 153.386 101.871 153.498C102.161 153.577 102.466 153.587 102.762 153.528Z" fill="#F28F8F"/>
<path d="M109.326 140.959L107.128 139.652C107.206 139.507 107.312 139.38 107.441 139.277C107.569 139.174 107.717 139.099 107.876 139.056C108.034 139.012 108.2 139.001 108.363 139.024C108.526 139.047 108.682 139.102 108.823 139.188C109.12 139.36 109.338 139.641 109.432 139.972C109.526 140.302 109.488 140.656 109.326 140.959Z" fill="#263238"/>
<path d="M98.598 140.96L96.3033 142.005C96.2265 141.859 96.1805 141.699 96.1678 141.535C96.1552 141.371 96.1762 141.205 96.2297 141.049C96.2832 140.893 96.368 140.75 96.4789 140.628C96.5898 140.506 96.7244 140.408 96.8745 140.34C97.1864 140.202 97.5395 140.189 97.8604 140.305C98.1813 140.42 98.4455 140.655 98.598 140.96Z" fill="#263238"/>
<path d="M108.949 143.951C108.963 144.085 108.951 144.221 108.914 144.351C108.876 144.48 108.813 144.601 108.728 144.706C108.644 144.811 108.539 144.899 108.421 144.964C108.303 145.029 108.173 145.069 108.039 145.084C107.904 145.099 107.769 145.087 107.639 145.049C107.51 145.011 107.389 144.948 107.284 144.864C107.179 144.779 107.091 144.675 107.026 144.556C106.961 144.438 106.92 144.308 106.906 144.174C106.87 143.899 106.945 143.621 107.114 143.402C107.282 143.182 107.532 143.038 107.806 143.002C108.083 142.981 108.357 143.068 108.57 143.245C108.784 143.422 108.919 143.675 108.949 143.951Z" fill="#263238"/>
<path d="M103.991 143.67L104.543 149.829L107.729 148.618L103.991 143.67Z" fill="#F28F8F"/>
<path d="M101.087 157.836C98.4432 157.652 92.9628 156.442 91.9849 154.37C92.3924 155.424 93.1119 156.33 94.0473 156.965C95.7417 158.243 101.193 159.463 101.193 159.463L101.087 157.836Z" fill="#F28F8F"/>
<path d="M90.1064 144.416L90.3678 148.696C90.7521 148.675 91.1284 148.578 91.4748 148.41C91.8213 148.243 92.131 148.008 92.3859 147.72C92.6408 147.431 92.836 147.095 92.9599 146.731C93.0839 146.367 93.1342 145.981 93.108 145.597L92.8563 141.637L90.1064 144.416Z" fill="#263238"/>
<path d="M225.934 274.996L230.882 277.833V29.0767L225.934 31.933V274.996Z" fill="#8CC63F"/>
<path opacity="0.4" d="M225.934 274.996L230.882 277.833V29.0767L225.934 31.933V274.996Z" fill="white"/>
<path opacity="0.1" d="M225.934 274.996L230.882 277.833V29.0767L225.934 31.933V274.996Z" fill="black"/>
<path d="M230.882 277.833L246.035 269.08V2.81738L63.915 107.971V374.204L79.0876 365.48V116.724L230.872 29.0767L230.882 277.833Z" fill="#8CC63F"/>
<path opacity="0.7" d="M230.882 277.833L246.035 269.08V2.81738L63.915 107.971V374.204L79.0876 365.48V116.724L230.872 29.0767L230.882 277.833Z" fill="white"/>
<path d="M246.035 2.8174L63.915 107.971L59.0446 105.143L241.175 -0.000244141L246.035 2.8174Z" fill="#8CC63F"/>
<path opacity="0.85" d="M246.035 2.8174L63.915 107.971L59.0446 105.143L241.175 -0.000244141L246.035 2.8174Z" fill="white"/>
<path d="M63.915 374.204V107.971L59.0446 105.144V371.396L63.915 374.204Z" fill="#8CC63F"/>
<path opacity="0.6" d="M59.0446 105.144V371.396L63.915 374.204V107.971" fill="white"/>
<path d="M221.287 300.122L265.962 274.328L322.141 306.755L277.465 332.549L221.287 300.122Z" fill="black"/>
<path d="M265.962 274.328V230.224L220.386 256.541L258.516 278.627L265.962 274.328Z" fill="#37474F"/>
<path d="M265.962 230.224V274.328L284.911 285.26L323.041 263.174L265.962 230.224Z" fill="#263238"/>
<path d="M220.386 256.541V299.6L277.465 332.55V289.559L220.386 256.541Z" fill="#263238"/>
<path d="M277.465 289.559V332.55L323.041 306.232V263.174L277.465 289.559Z" fill="#37474F"/>
<path d="M277.465 289.559L278.356 330.913L311.461 312.923L277.465 332.55V289.559Z" fill="#455A64"/>
<path d="M282.907 318.703C282.743 318.705 282.582 318.662 282.442 318.578C282.241 318.433 282.081 318.238 281.979 318.011C281.877 317.785 281.837 317.537 281.861 317.29V313.484V313.204H282.055L285.037 311.451V315.799C285.032 316.346 284.896 316.884 284.64 317.367C284.384 317.851 284.015 318.266 283.565 318.578C283.36 318.674 283.133 318.718 282.907 318.703ZM282.336 313.765V317.29C282.315 317.453 282.336 317.618 282.397 317.771C282.458 317.923 282.557 318.057 282.684 318.161C282.789 318.206 282.904 318.224 283.017 318.212C283.131 318.2 283.24 318.159 283.333 318.093C283.705 317.82 284.009 317.465 284.222 317.055C284.435 316.645 284.552 316.192 284.563 315.731V315.421H283.459L283.236 313.92L282.336 313.765ZM283.865 314.937H284.563V312.303L282.781 313.359L283.662 313.514L283.865 314.937Z" fill="#E0E0E0"/>
<path d="M283.449 321.763C283.385 321.763 283.323 321.738 283.278 321.692C283.233 321.647 283.207 321.585 283.207 321.521V318.326C283.207 318.262 283.233 318.2 283.278 318.155C283.323 318.109 283.385 318.084 283.449 318.084C283.513 318.084 283.575 318.109 283.62 318.155C283.666 318.2 283.691 318.262 283.691 318.326V321.521C283.691 321.585 283.666 321.647 283.62 321.692C283.575 321.738 283.513 321.763 283.449 321.763Z" fill="#E0E0E0"/>
<path d="M282.055 322.577C282.013 322.574 281.973 322.561 281.937 322.539C281.902 322.517 281.872 322.487 281.852 322.451C281.82 322.395 281.811 322.33 281.827 322.268C281.844 322.207 281.884 322.154 281.939 322.121L284.718 320.524C284.773 320.492 284.838 320.483 284.9 320.5C284.962 320.516 285.014 320.556 285.047 320.611C285.062 320.638 285.072 320.667 285.076 320.698C285.08 320.728 285.078 320.759 285.07 320.789C285.062 320.819 285.048 320.847 285.029 320.871C285.01 320.895 284.987 320.915 284.96 320.931L282.181 322.577C282.14 322.591 282.096 322.591 282.055 322.577Z" fill="#E0E0E0"/>
<path d="M291.97 317.057C291.879 317.056 291.789 317.032 291.708 316.99C291.612 316.928 291.535 316.841 291.484 316.739C291.433 316.637 291.41 316.523 291.418 316.409V315.799C291.418 315.734 291.443 315.673 291.489 315.627C291.534 315.582 291.596 315.557 291.66 315.557C291.724 315.557 291.786 315.582 291.831 315.627C291.877 315.673 291.902 315.734 291.902 315.799V316.457C291.883 316.51 291.883 316.569 291.902 316.622C291.902 316.622 291.98 316.622 292.057 316.573C292.205 316.437 292.321 316.271 292.398 316.085C292.475 315.899 292.511 315.699 292.502 315.499V311.238C292.502 311.174 292.528 311.112 292.573 311.067C292.619 311.022 292.68 310.996 292.744 310.996C292.809 310.996 292.87 311.022 292.916 311.067C292.961 311.112 292.987 311.174 292.987 311.238V315.499C292.997 315.783 292.941 316.065 292.824 316.324C292.706 316.583 292.53 316.811 292.309 316.99C292.203 317.038 292.087 317.062 291.97 317.057Z" fill="#E0E0E0"/>
<path d="M289.443 313.33V312.894C289.501 311.83 289.81 310.796 290.343 309.874C290.876 308.952 291.619 308.169 292.512 307.588C292.833 307.319 293.23 307.157 293.648 307.122C294.065 307.087 294.483 307.182 294.844 307.394C295.205 307.606 295.493 307.925 295.666 308.306C295.84 308.687 295.891 309.113 295.814 309.524V309.67L289.443 313.33ZM293.945 307.656C293.52 307.673 293.106 307.8 292.744 308.023C291.985 308.523 291.342 309.18 290.859 309.95C290.376 310.721 290.065 311.586 289.946 312.487L295.33 309.379C295.348 309.078 295.29 308.778 295.162 308.505C295.033 308.233 294.838 307.997 294.594 307.82C294.395 307.712 294.172 307.655 293.945 307.656Z" fill="#E0E0E0"/>
<path d="M300.568 312.148C300.504 312.148 300.442 312.123 300.397 312.077C300.351 312.032 300.326 311.97 300.326 311.906V303.763C300.326 303.699 300.351 303.637 300.397 303.592C300.442 303.546 300.504 303.521 300.568 303.521C300.632 303.521 300.694 303.546 300.739 303.592C300.785 303.637 300.81 303.699 300.81 303.763V311.926C300.805 311.986 300.778 312.043 300.733 312.084C300.688 312.126 300.629 312.148 300.568 312.148Z" fill="#E0E0E0"/>
<path d="M299.871 305.622H299.774C299.745 305.61 299.718 305.591 299.696 305.568C299.674 305.545 299.656 305.518 299.645 305.489C299.633 305.459 299.627 305.427 299.628 305.395C299.628 305.363 299.635 305.332 299.648 305.303L300.5 303.366L301.468 304.46C301.513 304.506 301.538 304.566 301.538 304.63C301.538 304.693 301.513 304.754 301.468 304.799C301.447 304.822 301.42 304.841 301.391 304.853C301.362 304.866 301.331 304.873 301.299 304.873C301.267 304.873 301.236 304.866 301.207 304.853C301.178 304.841 301.151 304.822 301.13 304.799L300.675 304.286L300.123 305.554C300.091 305.589 300.051 305.613 300.007 305.625C299.962 305.637 299.915 305.636 299.871 305.622Z" fill="#E0E0E0"/>
<path d="M302.785 310.89C302.721 310.89 302.66 310.864 302.614 310.819C302.569 310.773 302.543 310.712 302.543 310.648V302.495C302.546 302.432 302.572 302.373 302.618 302.33C302.663 302.287 302.723 302.262 302.785 302.262C302.848 302.262 302.908 302.287 302.953 302.33C302.998 302.373 303.025 302.432 303.027 302.495V310.648C303.027 310.712 303.002 310.773 302.956 310.819C302.911 310.864 302.85 310.89 302.785 310.89Z" fill="#E0E0E0"/>
<path d="M302.078 304.354C302.05 304.363 302.02 304.363 301.991 304.354C301.961 304.343 301.934 304.327 301.911 304.305C301.888 304.283 301.87 304.257 301.858 304.227C301.846 304.198 301.841 304.167 301.842 304.135C301.843 304.103 301.851 304.072 301.865 304.044L302.718 302.107L303.686 303.211C303.709 303.233 303.727 303.259 303.74 303.288C303.753 303.318 303.759 303.349 303.759 303.381C303.759 303.412 303.753 303.444 303.74 303.473C303.727 303.502 303.709 303.528 303.686 303.55C303.641 303.592 303.582 303.615 303.521 303.615C303.46 303.615 303.401 303.592 303.357 303.55L302.902 303.027L302.35 304.296C302.317 304.333 302.272 304.359 302.224 304.37C302.175 304.38 302.124 304.375 302.078 304.354Z" fill="#E0E0E0"/>
<path d="M230.146 287.109L242.588 294.294C242.751 294.4 242.887 294.542 242.985 294.711C243.082 294.879 243.139 295.068 243.15 295.262V303.918C243.15 304.625 242.647 304.886 242.037 304.567L229.594 297.402C229.431 297.296 229.295 297.153 229.197 296.985C229.099 296.817 229.043 296.628 229.033 296.433V287.719C229.033 287.041 229.536 286.751 230.146 287.109Z" fill="#FAFAFA"/>
<path d="M229.846 288.455L230.262 288.697V296.327L229.836 296.085L229.846 288.455Z" fill="#455A64"/>
<path d="M231.56 289.442L232.296 289.878V297.508L231.56 297.082V289.442Z" fill="#455A64"/>
<path d="M233.283 290.44L233.709 290.682V298.322L233.283 298.07V290.44Z" fill="#455A64"/>
<path d="M234.591 291.176L235.433 291.679V299.319L234.591 298.815V291.176Z" fill="#455A64"/>
<path d="M236.73 292.435L237.156 292.677V300.307L236.73 300.064V292.435Z" fill="#455A64"/>
<path d="M237.97 293.132L238.88 293.664V301.304L237.97 300.762V293.132Z" fill="#455A64"/>
<path d="M240.177 294.419L240.604 294.661V302.301L240.177 302.049V294.419Z" fill="#455A64"/>
<path d="M241.165 294.981L241.378 295.097V302.737L241.165 302.611V294.981Z" fill="#455A64"/>
<path d="M239.393 294.003L239.606 294.129V301.759L239.393 301.633V294.003Z" fill="#455A64"/>
<path d="M235.927 291.97L236.14 292.096V299.725L235.927 299.6V291.97Z" fill="#455A64"/>
<path d="M234.019 290.876L234.232 291.002V298.631L234.019 298.515V290.876Z" fill="#455A64"/>
<path d="M232.654 290.13L232.867 290.246V297.886L232.654 297.76V290.13Z" fill="#455A64"/>
<path d="M230.805 288.997L231.018 289.123V296.753L230.805 296.637V288.997Z" fill="#455A64"/>
<path d="M241.901 295.417L242.327 295.659V303.289L241.901 303.047V295.417Z" fill="#455A64"/>
<path d="M265.962 230.224L220.386 256.541L277.465 289.559L323.041 263.174L265.962 230.224Z" fill="#455A64"/>
<path opacity="0.1" d="M220.386 256.541L277.465 287.932L323.041 263.174L277.465 289.559L220.386 256.541Z" fill="white"/>
<path d="M239.296 245.609L296.414 278.588L303.434 274.531L246.326 241.552L239.296 245.609Z" fill="#8CC63F"/>
<path d="M303.434 274.521V283.449L302.582 282.965L301.701 284.485L300.82 283.972L299.939 285.511L299.058 284.988L298.176 286.509L297.286 286.005L296.404 287.535V278.588L303.434 274.521Z" fill="#8CC63F"/>
<path opacity="0.25" d="M303.434 274.521V283.449L302.582 282.965L301.701 284.485L300.82 283.972L299.939 285.511L299.058 284.988L298.176 286.509L297.286 286.005L296.404 287.535V278.588L303.434 274.521Z" fill="black"/>
<path opacity="0.1" d="M273.205 235.917L233.458 258.865L273.205 281.89L312.962 258.865L273.205 235.917Z" fill="black"/>
<path d="M239.984 258.361L273.205 239.18L306.436 258.361L273.205 277.552L239.984 258.361Z" fill="black"/>
<path d="M273.205 239.18V201.224L239.2 220.86L272.024 239.867L273.205 239.18Z" fill="#37474F"/>
<path d="M273.205 201.224V239.18L274.396 239.867L307.21 220.86L273.205 201.224Z" fill="#263238"/>
<path d="M239.2 220.861V257.916L273.205 277.552V240.555L239.2 220.861Z" fill="#263238"/>
<path d="M273.205 240.555V277.552L307.21 257.916V220.861L273.205 240.555Z" fill="#37474F"/>
<path d="M273.205 240.555L273.98 276.139L302.466 260.656L273.205 277.552V240.555Z" fill="#455A64"/>
<path d="M277.901 265.643C277.758 265.646 277.617 265.609 277.494 265.536C277.321 265.413 277.183 265.246 277.094 265.052C277.006 264.858 276.97 264.644 276.991 264.432V261.15V260.898H277.155L279.731 259.388V263.048C279.731 263.516 279.621 263.977 279.409 264.394C279.197 264.812 278.889 265.173 278.511 265.449C278.331 265.573 278.119 265.64 277.901 265.643ZM277.407 261.392V264.481C277.39 264.621 277.408 264.763 277.458 264.895C277.509 265.026 277.591 265.144 277.698 265.236C277.789 265.273 277.889 265.287 277.987 265.275C278.086 265.263 278.179 265.226 278.259 265.168C278.58 264.933 278.841 264.627 279.024 264.275C279.207 263.922 279.307 263.532 279.315 263.135V262.864H278.346L278.162 261.586L277.407 261.392ZM278.724 262.409H279.315V260.143L277.785 261.043L278.54 261.179L278.724 262.409Z" fill="#E0E0E0"/>
<path d="M278.356 268.257C278.302 268.257 278.25 268.236 278.212 268.197C278.174 268.159 278.153 268.108 278.153 268.054V265.304C278.146 265.273 278.146 265.241 278.154 265.21C278.161 265.179 278.175 265.15 278.195 265.125C278.215 265.1 278.24 265.08 278.269 265.066C278.298 265.053 278.329 265.046 278.361 265.046C278.393 265.046 278.424 265.053 278.453 265.066C278.481 265.08 278.507 265.1 278.527 265.125C278.547 265.15 278.561 265.179 278.568 265.21C278.576 265.241 278.576 265.273 278.569 265.304V268.054C278.569 268.081 278.564 268.108 278.553 268.134C278.542 268.159 278.526 268.182 278.506 268.201C278.486 268.22 278.463 268.235 278.437 268.244C278.411 268.254 278.384 268.258 278.356 268.257Z" fill="#E0E0E0"/>
<path d="M277.165 268.954C277.128 268.953 277.092 268.943 277.06 268.924C277.027 268.906 277 268.879 276.981 268.848C276.956 268.8 276.95 268.744 276.964 268.692C276.979 268.64 277.012 268.595 277.059 268.567L279.45 267.182C279.496 267.167 279.547 267.167 279.592 267.184C279.638 267.201 279.677 267.233 279.702 267.275C279.727 267.317 279.737 267.366 279.73 267.415C279.723 267.463 279.699 267.507 279.663 267.54L277.262 268.925C277.233 268.944 277.199 268.954 277.165 268.954Z" fill="#E0E0E0"/>
<path d="M285.695 264.21C285.614 264.211 285.534 264.191 285.463 264.152C285.382 264.098 285.317 264.024 285.275 263.938C285.232 263.851 285.214 263.754 285.221 263.658V263.086C285.221 263.033 285.242 262.981 285.281 262.943C285.319 262.905 285.37 262.883 285.424 262.883C285.478 262.883 285.53 262.905 285.568 262.943C285.606 262.981 285.628 263.033 285.628 263.086V263.658C285.613 263.702 285.613 263.749 285.628 263.793C285.628 263.793 285.695 263.793 285.763 263.793C285.896 263.671 286 263.521 286.067 263.353C286.135 263.186 286.163 263.005 286.151 262.825V259.165C286.151 259.111 286.172 259.059 286.21 259.021C286.248 258.983 286.3 258.962 286.354 258.962C286.408 258.962 286.46 258.983 286.498 259.021C286.536 259.059 286.557 259.111 286.557 259.165V262.825C286.568 263.07 286.521 263.314 286.42 263.538C286.319 263.762 286.167 263.959 285.976 264.113C285.892 264.168 285.796 264.201 285.695 264.21Z" fill="#E0E0E0"/>
<path d="M283.517 261.005V260.608C283.567 259.693 283.832 258.803 284.292 258.01C284.751 257.218 285.391 256.545 286.16 256.047C286.434 255.817 286.772 255.677 287.128 255.646C287.484 255.615 287.842 255.694 288.151 255.873C288.461 256.051 288.708 256.321 288.86 256.645C289.011 256.969 289.059 257.331 288.997 257.684V257.809L283.517 261.005ZM287.39 256.163C287.026 256.179 286.672 256.289 286.364 256.483C285.705 256.915 285.148 257.485 284.732 258.154C284.315 258.823 284.05 259.574 283.953 260.356L288.581 257.684C288.598 257.424 288.549 257.165 288.439 256.93C288.329 256.694 288.161 256.491 287.952 256.338C287.785 256.22 287.592 256.147 287.39 256.125V256.163Z" fill="#E0E0E0"/>
<path d="M293.093 259.988C293.039 259.988 292.987 259.967 292.949 259.928C292.911 259.89 292.89 259.839 292.89 259.785V252.774C292.89 252.72 292.911 252.669 292.949 252.631C292.987 252.592 293.039 252.571 293.093 252.571C293.147 252.571 293.199 252.592 293.237 252.631C293.275 252.669 293.296 252.72 293.296 252.774V259.785C293.296 259.811 293.291 259.838 293.281 259.862C293.271 259.887 293.256 259.909 293.237 259.928C293.218 259.947 293.195 259.962 293.171 259.972C293.146 259.983 293.12 259.988 293.093 259.988Z" fill="#E0E0E0"/>
<path d="M292.493 254.372H292.406C292.381 254.362 292.358 254.346 292.339 254.327C292.32 254.307 292.305 254.284 292.295 254.259C292.285 254.234 292.28 254.207 292.281 254.18C292.282 254.152 292.288 254.126 292.299 254.101L293.035 252.406L293.848 253.375C293.868 253.394 293.883 253.416 293.893 253.441C293.904 253.466 293.909 253.493 293.909 253.52C293.909 253.547 293.904 253.574 293.893 253.599C293.883 253.624 293.868 253.646 293.848 253.665C293.809 253.702 293.757 253.722 293.703 253.722C293.649 253.722 293.597 253.702 293.558 253.665L293.17 253.22L292.696 254.314C292.671 254.341 292.638 254.361 292.602 254.372C292.567 254.382 292.529 254.382 292.493 254.372Z" fill="#E0E0E0"/>
<path d="M294.972 258.904C294.917 258.904 294.864 258.883 294.824 258.845C294.785 258.807 294.761 258.755 294.758 258.7V251.68C294.769 251.633 294.795 251.59 294.833 251.56C294.871 251.529 294.918 251.512 294.967 251.512C295.015 251.512 295.062 251.529 295.1 251.56C295.138 251.59 295.165 251.633 295.175 251.68V258.671C295.177 258.7 295.174 258.729 295.165 258.756C295.156 258.784 295.142 258.809 295.123 258.831C295.104 258.853 295.081 258.87 295.055 258.883C295.029 258.895 295 258.902 294.972 258.904Z" fill="#E0E0E0"/>
<path d="M294.39 253.288H294.313C294.288 253.277 294.265 253.262 294.246 253.242C294.227 253.223 294.212 253.2 294.203 253.175C294.193 253.149 294.188 253.122 294.189 253.095C294.189 253.068 294.195 253.041 294.206 253.016L294.942 251.322L295.756 252.29C295.792 252.331 295.81 252.385 295.806 252.44C295.803 252.494 295.777 252.545 295.736 252.581C295.716 252.599 295.692 252.612 295.667 252.621C295.641 252.63 295.614 252.633 295.587 252.631C295.533 252.628 295.482 252.602 295.446 252.561L295.059 252.116L294.584 253.21C294.561 253.239 294.531 253.261 294.497 253.274C294.464 253.288 294.427 253.292 294.39 253.288Z" fill="#E0E0E0"/>
<path d="M247.604 247.168L258.313 253.346C258.453 253.439 258.57 253.564 258.654 253.71C258.738 253.856 258.787 254.02 258.797 254.188V261.624C258.797 262.244 258.362 262.496 257.829 262.186L247.12 255.999C246.981 255.907 246.866 255.783 246.784 255.639C246.701 255.494 246.654 255.332 246.646 255.166V247.72C246.646 247.11 247.081 246.858 247.604 247.168Z" fill="#FAFAFA"/>
<path d="M247.343 248.321L247.701 248.534V255.098L247.343 254.895V248.321Z" fill="#455A64"/>
<path d="M248.824 249.182L249.453 249.55V256.115L248.824 255.747V249.182Z" fill="#455A64"/>
<path d="M250.305 250.034L250.673 250.247V256.812L250.305 256.599V250.034Z" fill="#455A64"/>
<path d="M251.429 250.664L252.155 251.1V257.664L251.429 257.238V250.664Z" fill="#455A64"/>
<path d="M253.268 251.748L253.636 251.952V258.526L253.268 258.313V251.748Z" fill="#455A64"/>
<path d="M254.343 252.348L255.118 252.813V259.378L254.343 258.913V252.348Z" fill="#455A64"/>
<path d="M256.241 253.462L256.599 253.665V260.24L256.241 260.027V253.462Z" fill="#455A64"/>
<path d="M257.083 253.937L257.267 254.043V260.608L257.083 260.511V253.937Z" fill="#455A64"/>
<path d="M255.563 253.104L255.747 253.201V259.775L255.563 259.669V253.104Z" fill="#455A64"/>
<path d="M252.571 251.351L252.755 251.458V258.022L252.571 257.916V251.351Z" fill="#455A64"/>
<path d="M250.935 250.412L251.119 250.519V257.083L250.935 256.977V250.412Z" fill="#455A64"/>
<path d="M249.763 249.763L249.947 249.87V256.435L249.763 256.328V249.763Z" fill="#455A64"/>
<path d="M248.175 248.795L248.35 248.901V255.466L248.175 255.36V248.795Z" fill="#455A64"/>
<path d="M257.722 254.314L258.081 254.527V261.092L257.722 260.879V254.314Z" fill="#455A64"/>
<path d="M273.205 201.224L239.2 220.86L273.205 240.555L307.21 220.86L273.205 201.224Z" fill="#455A64"/>
<path opacity="0.1" d="M239.2 220.861L273.205 239.151L307.21 220.861L273.205 240.555L239.2 220.861Z" fill="white"/>
<path d="M254.314 212.137L288.349 231.783L294.39 228.287L260.366 208.641L254.314 212.137Z" fill="#8CC63F"/>
<path d="M294.39 228.287V235.965L293.664 235.549L292.899 236.856L292.144 236.411L291.389 237.737L290.624 237.292L289.869 238.599L289.104 238.163L288.349 239.48V231.783L294.39 228.287Z" fill="#8CC63F"/>
<path opacity="0.25" d="M294.39 228.287V235.965L293.664 235.549L292.899 236.856L292.144 236.411L291.389 237.737L290.624 237.292L289.869 238.599L289.104 238.163L288.349 239.48V231.783L294.39 228.287Z" fill="black"/>
<path d="M426.432 332.947C423.915 334.399 421.068 334.37 417.979 333.198L415.927 316.602L426.578 314.143L426.432 332.947Z" fill="#B16668"/>
<path d="M395.671 326.014C393.637 330.758 390.674 329.209 386.172 326.343L385.823 309.989L397.443 309.195L395.671 326.014Z" fill="#B16668"/>
<path d="M408.326 348.294C408.09 349.231 408.147 350.218 408.491 351.121C408.839 351.634 410.679 353.203 414.155 353.348C417.476 353.484 420.42 352.951 422.327 351.663C423.151 351.198 423.847 350.537 424.354 349.738C424.861 348.939 425.162 348.027 425.232 347.083C425.367 345.147 425.096 343.375 425.958 341.893C426.82 340.412 427.817 339.182 428.088 338.446C428.42 337.118 428.459 335.734 428.204 334.389L408.326 348.294Z" fill="#263238"/>
<path d="M416.769 332.501C416.746 333.216 416.632 333.925 416.43 334.612C415.958 336.089 415.307 337.504 414.494 338.824C414.096 339.517 413.653 340.183 413.167 340.819C412.199 342.039 410.989 343.055 409.962 344.227C408.858 345.34 408.174 346.801 408.026 348.361C407.958 350.966 410.805 351.76 412.993 352.089C415.356 352.429 417.765 352.234 420.042 351.518C421.254 351.182 422.342 350.501 423.172 349.557C424.003 348.613 424.54 347.447 424.719 346.202C424.815 345.476 424.719 344.74 424.815 344.004C425.057 342.336 425.705 340.753 426.704 339.395C427.282 338.611 427.776 337.767 428.175 336.878C428.805 335.251 428.175 333.45 427.73 331.862C427.314 330.487 426.994 328.841 426.51 328.957C426.51 329.238 426.51 329.848 426.51 329.848C426.365 330.148 426.016 330.361 425.919 330.72C425.829 331.09 425.709 331.453 425.561 331.804C425.33 332.342 424.942 332.798 424.448 333.111L424.254 330.206C424.266 329.899 424.177 329.597 424.002 329.345C423.768 329.14 423.47 329.024 423.16 329.015C421.33 328.631 419.452 328.53 417.592 328.715C417.452 328.716 417.313 328.748 417.186 328.808C417.059 328.869 416.946 328.956 416.856 329.064C416.742 329.266 416.704 329.504 416.75 329.732C416.809 330.654 416.815 331.578 416.769 332.501Z" fill="#37474F"/>
<path d="M414.184 339.376C415.152 338.621 417.302 338.553 418.493 338.64C419.702 338.709 420.874 339.082 421.901 339.725C422.05 339.822 422.227 339.865 422.404 339.845C422.581 339.826 422.745 339.746 422.869 339.618C422.943 339.543 422.999 339.452 423.034 339.352C423.069 339.253 423.082 339.147 423.072 339.042C423.062 338.936 423.029 338.835 422.975 338.744C422.922 338.653 422.849 338.574 422.763 338.514C421.622 337.723 420.277 337.276 418.89 337.227C415.985 337.101 415.123 337.633 415.123 337.633C415.123 337.633 413.874 338.524 414.184 339.376Z" fill="#F5F5F5"/>
<path d="M412.044 342.106C413.235 341.351 415.627 341.39 416.818 341.477C418.003 341.564 419.145 341.961 420.129 342.629C420.279 342.723 420.456 342.764 420.632 342.745C420.807 342.725 420.972 342.647 421.097 342.523C421.171 342.447 421.227 342.356 421.262 342.257C421.297 342.157 421.31 342.051 421.3 341.946C421.29 341.841 421.257 341.739 421.204 341.648C421.15 341.557 421.078 341.479 420.991 341.419C419.84 340.594 418.482 340.108 417.069 340.015C414.165 339.899 413.4 340.518 413.4 340.518C413.069 340.664 412.775 340.882 412.54 341.157C412.306 341.432 412.136 341.757 412.044 342.106Z" fill="#F5F5F5"/>
<path d="M420.032 334.399C418.797 334.213 417.534 334.357 416.372 334.816C415.859 335.116 415.549 335.939 415.888 336.132C416.905 335.69 418.016 335.503 419.122 335.59C420.221 335.662 421.299 335.924 422.308 336.365C422.559 336.471 422.86 336.617 423.121 336.752C423.205 336.799 423.298 336.828 423.394 336.837C423.49 336.846 423.587 336.834 423.678 336.803C423.77 336.772 423.854 336.722 423.924 336.657C423.995 336.591 424.051 336.512 424.089 336.423C424.156 336.277 424.165 336.111 424.114 335.958C424.064 335.806 423.958 335.678 423.818 335.6C422.656 334.934 421.365 334.524 420.032 334.399Z" fill="#F5F5F5"/>
<path d="M368.317 336.907C368.093 337.673 368.166 338.496 368.521 339.211C368.86 339.879 372.461 341.768 377.235 341.303C380.75 340.945 384.107 339.655 386.956 337.565C388.738 336.307 390.626 336.026 392.979 335.822C395.332 335.619 397.133 334.854 397.617 333.721C397.855 332.722 397.795 331.675 397.443 330.71L368.317 336.907Z" fill="#263238"/>
<path d="M387.179 322.257C386.752 322.155 386.331 322.026 385.92 321.87C385.701 321.762 385.448 321.741 385.214 321.812C385.075 321.898 384.959 322.016 384.875 322.156C384.791 322.295 384.741 322.453 384.729 322.615C384.639 323.321 384.487 324.018 384.274 324.697C383.935 325.257 383.495 325.75 382.977 326.15C381.818 327.132 380.562 327.995 379.23 328.725C377.7 329.606 376.189 330.303 374.601 331.068C373.013 331.833 370.815 332.376 369.557 333.276C367.727 334.593 367.62 337.769 369.75 338.96C371.619 339.986 376.528 341.012 381.534 339.425C384.274 338.553 387.257 335.551 390.878 335.116C393.182 334.874 396.252 334.583 397.656 332.792C398.179 331.998 397.791 329.732 397.443 327.06C397.133 324.659 396.891 320.921 396.126 321.153C396.126 321.153 395.816 322.025 395.758 322.122C395.563 322.418 395.343 322.697 395.099 322.954C394.892 323.167 394.672 323.368 394.441 323.555C394.178 323.84 393.9 324.112 393.608 324.368C393.23 324.68 392.762 324.863 392.272 324.891C392.038 324.901 391.807 324.844 391.604 324.726C391.217 324.494 391.178 323.981 390.868 323.652C390.51 323.284 390.082 322.991 389.609 322.79C388.946 322.531 388.248 322.371 387.537 322.315C387.431 322.306 387.295 322.277 387.179 322.257Z" fill="#37474F"/>
<path d="M381.35 327.418C381.506 327.096 381.74 326.818 382.031 326.61C382.322 326.402 382.66 326.27 383.016 326.227C384.061 326.004 385.92 326.721 387.121 327.641C387.233 327.726 387.322 327.837 387.381 327.965C387.44 328.092 387.467 328.232 387.459 328.373C387.451 328.513 387.41 328.65 387.337 328.77C387.265 328.89 387.164 328.991 387.043 329.064C386.893 329.15 386.72 329.188 386.547 329.175C386.375 329.161 386.21 329.095 386.075 328.987C384.766 327.866 383.07 327.303 381.35 327.418Z" fill="#F5F5F5"/>
<path d="M378.145 329.354C378.364 329.024 378.66 328.751 379.008 328.558C379.355 328.366 379.743 328.261 380.14 328.25C381.758 328.276 383.327 328.811 384.623 329.78C384.729 329.863 384.814 329.971 384.87 330.094C384.926 330.216 384.952 330.351 384.945 330.485C384.939 330.62 384.9 330.751 384.832 330.868C384.764 330.984 384.669 331.083 384.555 331.155C384.406 331.245 384.232 331.286 384.059 331.272C383.885 331.258 383.72 331.19 383.587 331.078C382.868 330.4 382.005 329.893 381.063 329.595C380.121 329.296 379.123 329.214 378.145 329.354Z" fill="#F5F5F5"/>
<path d="M374.601 331.068C374.857 330.768 375.175 330.526 375.532 330.359C375.89 330.192 376.279 330.104 376.673 330.1C378.234 330.149 379.739 330.691 380.972 331.649C381.079 331.733 381.163 331.842 381.219 331.965C381.275 332.089 381.301 332.224 381.295 332.359C381.288 332.494 381.249 332.626 381.181 332.744C381.113 332.861 381.019 332.961 380.905 333.034C380.754 333.123 380.58 333.162 380.406 333.146C380.233 333.131 380.068 333.061 379.936 332.947C379.254 332.24 378.417 331.703 377.491 331.377C376.565 331.051 375.575 330.945 374.601 331.068Z" fill="#F5F5F5"/>
<path d="M349.659 182.062C347.819 180.368 345.883 176.311 344.382 178.538C343.414 180.039 345.466 181.055 345.35 182.953C345.234 184.851 339.453 180.349 337.042 178.664C335.435 177.541 331.727 181.055 333.218 184.861C334.535 188.24 336.645 190.38 340.431 191.977C344.43 193.672 346.522 194.514 351.537 196.77C353.784 193.585 355.352 190.438 354.8 187.378C350.86 185.083 351.247 183.524 349.659 182.062Z" fill="#8CC63F"/>
<path opacity="0.7" d="M349.659 182.062C347.819 180.368 345.883 176.311 344.382 178.538C343.414 180.039 345.466 181.055 345.35 182.953C345.234 184.851 339.453 180.349 337.042 178.664C335.435 177.541 331.727 181.055 333.218 184.861C334.535 188.24 336.645 190.38 340.431 191.977C344.43 193.672 346.522 194.514 351.537 196.77C353.784 193.585 355.352 190.438 354.8 187.378C350.86 185.083 351.247 183.524 349.659 182.062Z" fill="white"/>
<path opacity="0.1" d="M349.659 182.062C347.819 180.368 345.883 176.311 344.382 178.538C343.414 180.039 345.466 181.055 345.35 182.953C345.234 184.851 339.453 180.349 337.042 178.664C335.435 177.541 331.727 181.055 333.218 184.861C334.535 188.24 336.645 190.38 340.431 191.977C344.43 193.672 346.522 194.514 351.537 196.77C353.784 193.585 355.352 190.438 354.8 187.378C350.86 185.083 351.247 183.524 349.659 182.062Z" fill="black"/>
<path opacity="0.1" d="M344.963 184.957C344.963 186.661 345.428 189.373 347.868 190.767C347.257 190.684 346.674 190.456 346.169 190.102C345.664 189.748 345.25 189.279 344.963 188.734C344.648 188.154 344.484 187.505 344.484 186.845C344.484 186.186 344.648 185.537 344.963 184.957Z" fill="black"/>
<path d="M397.172 163.036C394.993 165.941 395.893 164.75 395.235 169.185C394.693 172.757 387.189 207.14 380.392 208.564C377.409 209.193 355.895 199.346 350.676 196.47C352.646 193.747 354.049 190.655 354.8 187.378C361.055 189.828 371.832 192.219 375.705 193.439C377.496 188.443 379.685 183.311 381.737 178.267C385.63 168.671 387.847 161.845 397.172 163.036Z" fill="#455A64"/>
<path d="M425.329 221.199C425.329 228.829 425.851 273.195 425.851 273.195C426.045 275.393 428.156 279.295 428.321 287.206C428.563 298.67 428.108 332.375 428.108 332.375C428.108 332.375 420.942 334.999 415.927 332.908C415.927 332.908 410.592 289.442 409.149 278.094C407.9 268.189 405.353 245.571 405.353 245.571L401.819 275.587C402.34 280.374 402.476 285.195 402.226 290.004C401.858 295.262 397.307 324.668 397.307 324.668C397.307 324.668 389.726 326.256 384.265 324.416C384.265 324.416 384.555 277.087 384.468 272.266C384.361 266.775 386.753 219.534 386.753 219.534L425.329 221.199Z" fill="#8CC63F"/>
<path opacity="0.4" d="M425.329 221.199C425.329 228.829 425.851 273.195 425.851 273.195C426.045 275.393 428.156 279.295 428.321 287.206C428.563 298.67 428.108 332.375 428.108 332.375C428.108 332.375 420.942 334.999 415.927 332.908C415.927 332.908 410.592 289.442 409.149 278.094C407.9 268.189 405.353 245.571 405.353 245.571L401.819 275.587C402.34 280.374 402.476 285.195 402.226 290.004C401.858 295.262 397.307 324.668 397.307 324.668C397.307 324.668 389.726 326.256 384.265 324.416C384.265 324.416 384.555 277.087 384.468 272.266C384.361 266.775 386.753 219.534 386.753 219.534L425.329 221.199Z" fill="black"/>
<path opacity="0.15" d="M405.353 245.571L404.724 240.894C402.468 240.507 396.813 236.779 393.482 233.564C395.817 237.284 399.02 240.381 402.816 242.588L402.342 272.304L405.353 245.571Z" fill="black"/>
<path d="M411.56 162.901C413.254 163.307 417.369 163.811 420.352 164.672C422.559 165.302 423.489 168.003 423.954 170.037C425.425 176.543 425.687 190.186 425.687 190.186L425.774 221.965C420.265 225.973 397.694 228.007 386.075 219.554C386.075 219.554 387.489 181.704 387.489 175.817C387.489 169.93 390.762 162.852 399.796 162.32L411.56 162.901Z" fill="#455A64"/>
<path d="M412.693 163.133C412.993 163.198 413.275 163.329 413.519 163.516C413.763 163.702 413.962 163.941 414.104 164.213C414.245 164.486 414.325 164.786 414.337 165.093C414.349 165.4 414.294 165.706 414.174 165.989C412.963 168.761 411.33 171.328 409.333 173.6C406.041 177.357 399.069 180.378 399.069 180.378C399.069 180.378 395.613 176.504 396.242 172.08C396.871 167.655 398.663 163.956 399.999 162.92C400.351 162.684 400.741 162.511 401.151 162.407V161.845C399.171 161.657 397.174 161.895 395.293 162.542C392.94 163.588 388.767 165.34 387.45 172.583C386.133 179.826 385.02 220.58 385.02 220.58C385.02 220.58 398.992 233.245 426.51 223.978V190.428C426.51 190.428 426.307 174.742 422.172 164.517L412.732 162.581L412.693 163.133Z" fill="#8CC63F"/>
<path opacity="0.1" d="M426.481 205.969C423.063 208.428 418.473 211.594 415.142 213.715C414.174 214.335 413.303 214.867 412.606 215.274C411.754 215.768 410.437 215.09 409.468 214.896C406.883 214.364 405.237 214.78 402.807 214.896C400.87 214.983 399.844 214.451 399.67 214.896C399.518 215.421 399.57 215.985 399.816 216.473C400.062 216.961 400.484 217.339 400.996 217.53C402.117 217.986 403.287 218.311 404.482 218.498C402.524 219.429 400.428 220.037 398.275 220.299C393.889 220.851 392.049 222.236 394.915 225.605C399.158 226.87 403.571 227.464 407.997 227.367C408.965 226.951 410.049 226.399 411.192 225.857C412.799 225.014 416.111 223.146 419.219 221.461C420.671 220.667 422.124 219.912 423.247 219.34C424.37 218.769 425.377 218.295 426.481 217.772V205.969Z" fill="black"/>
<path opacity="0.1" d="M423.082 167.141C418.483 177.26 425.493 185.538 425.493 185.538L426.413 188.298C426.219 184.212 425.532 174.781 423.082 167.141Z" fill="black"/>
<path d="M385.562 203.48C387.818 207.537 398.295 209.968 407.338 210.103C416.382 210.239 423.896 207.653 426.481 205.262V201.321C423.896 203.742 416.382 206.346 407.338 206.162C398.295 205.978 387.973 203.558 385.717 199.501L385.562 203.48Z" fill="#FAFAFA"/>
<path d="M426.481 212.543C423.896 214.964 416.382 217.568 407.338 217.385C398.295 217.201 387.557 214.722 385.301 210.665L385.436 206.705C387.692 210.762 398.295 213.269 407.338 213.405C416.382 213.541 423.896 210.955 426.481 208.564V212.543Z" fill="#FAFAFA"/>
<path opacity="0.15" d="M399.069 180.358L398.44 226.496C397.733 226.351 397.065 226.186 396.407 226.021L399.069 180.358Z" fill="black"/>
<path d="M363.224 199.229L395.293 201.389L411.608 237.544L380.963 234.697L363.224 199.229Z" fill="#263238"/>
<path opacity="0.15" d="M392.901 224.24C393.367 225.44 394.143 226.496 395.15 227.299C396.157 228.102 397.359 228.623 398.634 228.81C401.501 229.057 404.383 228.522 406.97 227.261L405.605 224.24H392.901Z" fill="black"/>
<path opacity="0.15" d="M373.217 202.996L372.742 201.873C372.481 201.263 374.262 200.905 376.731 201.04L381.447 201.34C383.916 201.505 386.133 202.125 386.395 202.744L386.869 203.858L373.217 202.996Z" fill="black"/>
<path d="M370.254 199.007C370.089 198.62 370.796 198.378 371.832 198.455L373.701 198.61C373.701 198.61 372.684 196.189 376.809 196.315C380.934 196.441 382.347 199.123 382.347 199.123L384.352 199.298C385.219 199.291 386.059 199.593 386.724 200.15L387.082 200.837L370.564 199.724L370.254 199.007Z" fill="#8CC63F"/>
<path opacity="0.3" d="M370.254 199.007C370.089 198.62 370.796 198.378 371.832 198.455L373.701 198.61C373.701 198.61 372.684 196.189 376.809 196.315C380.934 196.441 382.347 199.123 382.347 199.123L384.352 199.298C385.219 199.291 386.059 199.593 386.724 200.15L387.082 200.837L370.564 199.724L370.254 199.007Z" fill="black"/>
<path d="M386.22 202.89C386.007 202.377 384.439 201.863 382.493 201.612C382.493 201.544 382.444 201.486 382.425 201.428C382.202 200.895 382.376 200.508 383.538 200.595V200.13L372.103 199.452L372.655 199.849C374.156 199.917 374.795 199.995 375.202 200.944L375.289 201.157C373.517 201.157 372.384 201.515 372.558 202.018L373.033 203.141L386.695 204.003L386.22 202.89Z" fill="#8CC63F"/>
<path opacity="0.4" d="M386.22 202.89C386.007 202.377 384.439 201.863 382.493 201.612C382.493 201.544 382.444 201.486 382.425 201.428C382.202 200.895 382.376 200.508 383.538 200.595V200.13L372.103 199.452L372.655 199.849C374.156 199.917 374.795 199.995 375.202 200.944L375.289 201.157C373.517 201.157 372.384 201.515 372.558 202.018L373.033 203.141L386.695 204.003L386.22 202.89Z" fill="black"/>
<path d="M413.4 212.688C412.431 213.318 411.56 213.85 410.863 214.257C410.011 214.741 408.694 214.073 407.726 213.879C405.14 213.347 403.494 213.763 401.064 213.879C399.127 213.976 398.101 213.444 397.927 213.879C397.773 214.405 397.824 214.969 398.07 215.458C398.317 215.947 398.74 216.324 399.253 216.513C400.372 216.974 401.543 217.299 402.739 217.481C400.781 218.412 398.685 219.021 396.532 219.282C391.614 219.902 389.881 221.509 394.422 225.925C397.268 228.684 401.248 229.101 409.449 224.84C411.056 223.998 414.368 222.119 417.476 220.435C417.362 218.933 416.941 217.472 416.24 216.139C415.539 214.807 414.572 213.633 413.4 212.688Z" fill="#8CC63F"/>
<path opacity="0.7" d="M413.4 212.688C412.431 213.318 411.56 213.85 410.863 214.257C410.011 214.741 408.694 214.073 407.726 213.879C405.14 213.347 403.494 213.763 401.064 213.879C399.127 213.976 398.101 213.444 397.927 213.879C397.773 214.405 397.824 214.969 398.07 215.458C398.317 215.947 398.74 216.324 399.253 216.513C400.372 216.974 401.543 217.299 402.739 217.481C400.781 218.412 398.685 219.021 396.532 219.282C391.614 219.902 389.881 221.509 394.422 225.925C397.268 228.684 401.248 229.101 409.449 224.84C411.056 223.998 414.368 222.119 417.476 220.435C417.362 218.933 416.941 217.472 416.24 216.139C415.539 214.807 414.572 213.633 413.4 212.688Z" fill="white"/>
<path opacity="0.1" d="M413.4 212.688C412.431 213.318 411.56 213.85 410.863 214.257C410.011 214.741 408.694 214.073 407.726 213.879C405.14 213.347 403.494 213.763 401.064 213.879C399.127 213.976 398.101 213.444 397.927 213.879C397.773 214.405 397.824 214.969 398.07 215.458C398.317 215.947 398.74 216.324 399.253 216.513C400.372 216.974 401.543 217.299 402.739 217.481C400.781 218.412 398.685 219.021 396.532 219.282C391.614 219.902 389.881 221.509 394.422 225.925C397.268 228.684 401.248 229.101 409.449 224.84C411.056 223.998 414.368 222.119 417.476 220.435C417.362 218.933 416.941 217.472 416.24 216.139C415.539 214.807 414.572 213.633 413.4 212.688Z" fill="black"/>
<path d="M434.924 176.011C432.019 165.844 428.088 164.992 422.143 164.517C416.004 175.333 423.75 184.541 423.75 184.541L429.376 201.408C428.504 202.376 419.112 209.038 413.4 212.688C415.046 214.034 417.476 218.159 417.476 220.434C418.928 219.65 420.381 218.895 421.504 218.314C430.17 214.005 441.741 209.425 441.934 205.039C442.128 200.653 437.926 186.72 434.924 176.011Z" fill="#455A64"/>
<path d="M401.325 144.271C401.337 144.515 401.42 144.751 401.564 144.948C401.707 145.146 401.906 145.297 402.135 145.383C402.364 145.468 402.613 145.485 402.852 145.43C403.09 145.376 403.307 145.253 403.476 145.076C403.645 144.899 403.758 144.677 403.802 144.436C403.846 144.195 403.818 143.947 403.722 143.722C403.626 143.498 403.466 143.306 403.262 143.171C403.058 143.036 402.819 142.964 402.574 142.964C402.236 142.974 401.916 143.117 401.682 143.361C401.448 143.606 401.32 143.933 401.325 144.271Z" fill="#263238"/>
<path d="M402.574 140.04L405.16 141.511C405.348 141.159 405.39 140.746 405.278 140.363C405.166 139.979 404.908 139.655 404.559 139.459C404.391 139.364 404.206 139.304 404.015 139.281C403.823 139.259 403.629 139.276 403.444 139.33C403.259 139.384 403.087 139.475 402.937 139.597C402.788 139.719 402.665 139.869 402.574 140.04Z" fill="#263238"/>
<path d="M401.645 151.901L398.74 152.985C398.801 153.178 398.9 153.356 399.032 153.509C399.163 153.663 399.323 153.788 399.504 153.878C399.684 153.969 399.881 154.022 400.083 154.035C400.284 154.048 400.486 154.02 400.677 153.954C401.075 153.807 401.4 153.51 401.581 153.126C401.763 152.742 401.785 152.302 401.645 151.901Z" fill="#F28F8F"/>
<path d="M391.352 141.076L393.705 139.265C393.595 139.106 393.454 138.97 393.291 138.867C393.127 138.764 392.944 138.695 392.752 138.666C392.561 138.636 392.366 138.645 392.178 138.693C391.991 138.741 391.815 138.827 391.662 138.946C391.344 139.191 391.135 139.551 391.077 139.948C391.019 140.345 391.118 140.75 391.352 141.076Z" fill="#263238"/>
<path d="M391.885 144.271C391.894 144.508 391.974 144.738 392.113 144.931C392.252 145.123 392.444 145.271 392.667 145.355C392.889 145.439 393.131 145.455 393.363 145.403C393.595 145.35 393.806 145.23 393.97 145.058C394.134 144.886 394.244 144.669 394.286 144.435C394.327 144.201 394.299 143.96 394.205 143.742C394.111 143.524 393.954 143.338 393.755 143.209C393.556 143.079 393.323 143.011 393.085 143.012C392.924 143.016 392.765 143.052 392.617 143.117C392.469 143.182 392.336 143.276 392.224 143.393C392.113 143.51 392.025 143.647 391.967 143.798C391.909 143.949 391.881 144.109 391.885 144.271Z" fill="#263238"/>
<path d="M398.44 142.18L398.024 149.781L394.044 148.425L398.44 142.18Z" fill="#F28F8F"/>
<path d="M401.345 142.48L419.122 141.163C422.559 143.767 428.96 149.248 428.95 150.768V151.823C428.964 151.864 428.964 151.908 428.95 151.949C428.321 153.15 426.045 153.886 422.521 153.944C418.338 154.021 411.87 153.634 410.117 152.162C407.551 149.955 401.403 143.448 401.403 143.448L402.294 143.38L401.345 142.48Z" fill="#8CC63F"/>
<path opacity="0.2" d="M401.345 142.48L419.122 141.163C422.559 143.767 428.96 149.248 428.95 150.768V151.823C428.964 151.864 428.964 151.908 428.95 151.949C428.321 153.15 426.045 153.886 422.521 153.944C418.338 154.021 411.87 153.634 410.117 152.162C407.551 149.955 401.403 143.448 401.403 143.448L402.294 143.38L401.345 142.48Z" fill="black"/>
<path d="M419.122 142.208C422.714 144.929 429.55 150.787 428.911 151.988C428.272 153.189 426.006 153.924 422.482 153.983C418.299 154.06 411.831 153.673 410.078 152.201C407.513 149.993 401.364 143.487 401.364 143.487L419.122 142.208Z" fill="#8CC63F"/>
<path opacity="0.4" d="M419.122 142.208C422.714 144.929 429.55 150.787 428.911 151.988C428.272 153.189 426.006 153.924 422.482 153.983C418.299 154.06 411.831 153.673 410.078 152.201C407.513 149.993 401.364 143.487 401.364 143.487L419.122 142.208Z" fill="black"/>
<path d="M419.122 142.208C419.18 142.722 417.37 143.796 417.37 143.796L417.873 140.669L419.122 142.208Z" fill="#8CC63F"/>
<path opacity="0.3" d="M419.122 142.208C419.18 142.722 417.37 143.796 417.37 143.796L417.873 140.669L419.122 142.208Z" fill="black"/>
<path d="M414.455 131.829C414.455 131.829 417.234 132.216 418.251 134.308C419.132 136.128 418.812 140.524 417.631 145.317C416.958 148.415 415.958 151.434 414.649 154.322C414.186 155.138 413.427 155.745 412.528 156.016L412.664 150.332L412.867 146.372C412.867 146.372 410.33 142.896 410.049 140.049C409.691 136.389 410.456 134.889 410.456 134.889L414.455 131.829Z" fill="#263238"/>
<path d="M409.962 137.319C409.944 140.132 408.814 142.824 406.819 144.806C404.823 146.789 402.124 147.902 399.311 147.902C396.643 147.68 394.155 146.461 392.345 144.488C390.535 142.514 389.534 139.932 389.543 137.254C389.551 134.576 390.568 131.999 392.391 130.038C394.214 128.076 396.709 126.873 399.379 126.668C402.192 126.686 404.884 127.816 406.867 129.811C408.849 131.807 409.962 134.506 409.962 137.319Z" fill="#263238"/>
<path d="M412.722 145.733C413.69 146.556 414.455 144.416 415.259 143.574C416.062 142.731 418.677 141.637 419.974 144.358C421.272 147.079 418.832 151.136 416.818 151.882C416.213 152.113 415.548 152.136 414.929 151.947C414.309 151.757 413.771 151.366 413.4 150.836V163.423C410.379 168.865 405.044 168.7 402.197 168.39C399.35 168.081 398.721 165.127 400.803 162.736V158.863C399.221 159.109 397.617 159.183 396.019 159.085C393.405 158.679 392.04 156.713 391.265 153.886C390.006 149.345 389.503 141.705 391.265 132.894C394.17 130.628 404.317 130.957 410.446 134.889C410.011 142.702 411.763 144.9 412.722 145.733Z" fill="#FFA8A7"/>
<path d="M392.369 129.031C393.562 127.735 395.018 126.709 396.639 126.019C397.95 125.458 399.357 125.159 400.783 125.138C402.632 125.138 404.482 124.867 406.331 124.925C409.546 125.022 413.419 126.329 414.871 129.457C415.539 130.89 415.646 132.361 414.339 133.33C413.166 134.122 411.822 134.623 410.417 134.792C408.045 135.208 405.683 135.76 403.281 136.05C400.714 136.487 398.089 136.451 395.535 135.944C394.34 135.665 393.203 135.18 392.175 134.511C391.655 134.153 391.169 133.748 390.723 133.301C390.558 133.126 390.103 132.768 390.045 132.526C389.987 132.284 390.306 131.819 390.423 131.558C390.952 130.63 391.607 129.78 392.369 129.031Z" fill="#263238"/>
<path d="M400.832 158.853C400.832 158.853 406.641 157.691 408.694 156.616C409.897 156.003 410.883 155.037 411.521 153.847C411.21 155.035 410.663 156.148 409.914 157.12C408.413 159.056 400.822 160.402 400.822 160.402L400.832 158.853Z" fill="#F28F8F"/>
<path d="M401.887 143.797C401.882 143.953 401.908 144.109 401.964 144.255C402.02 144.401 402.104 144.534 402.213 144.647C402.321 144.759 402.451 144.849 402.594 144.911C402.738 144.973 402.893 145.006 403.049 145.007C403.364 144.999 403.663 144.868 403.883 144.642C404.102 144.415 404.223 144.112 404.22 143.797C404.235 143.634 404.216 143.471 404.164 143.317C404.112 143.162 404.029 143.02 403.919 142.9C403.809 142.78 403.676 142.684 403.527 142.618C403.378 142.552 403.217 142.519 403.054 142.519C402.891 142.519 402.73 142.552 402.581 142.618C402.432 142.684 402.298 142.78 402.188 142.9C402.079 143.02 401.995 143.162 401.943 143.317C401.891 143.471 401.872 143.634 401.887 143.797Z" fill="#263238"/>
<path d="M403.049 139.73L405.644 140.902C405.794 140.546 405.801 140.147 405.664 139.786C405.527 139.425 405.256 139.131 404.908 138.965C404.736 138.888 404.551 138.847 404.363 138.844C404.175 138.841 403.988 138.876 403.814 138.948C403.64 139.019 403.482 139.126 403.351 139.26C403.219 139.395 403.117 139.554 403.049 139.73Z" fill="#263238"/>
<path d="M401.771 151.746L398.043 153.13C398.12 153.383 398.248 153.617 398.419 153.818C398.59 154.019 398.8 154.184 399.037 154.301C399.274 154.418 399.532 154.485 399.795 154.498C400.059 154.512 400.323 154.472 400.57 154.38C401.07 154.178 401.473 153.793 401.696 153.302C401.92 152.812 401.946 152.255 401.771 151.746Z" fill="#B16668"/>
<path d="M400.57 154.38C400.238 154.496 399.88 154.523 399.534 154.457C399.552 153.992 399.749 153.551 400.085 153.227C400.421 152.904 400.869 152.724 401.335 152.724C401.506 152.725 401.675 152.751 401.839 152.802C401.784 153.153 401.639 153.484 401.416 153.761C401.193 154.038 400.902 154.251 400.57 154.38Z" fill="#F28F8F"/>
<path d="M392.127 140.427L394.828 139.459C394.773 139.279 394.682 139.113 394.559 138.97C394.437 138.827 394.287 138.711 394.119 138.628C393.95 138.546 393.766 138.499 393.578 138.49C393.391 138.481 393.203 138.511 393.027 138.578C392.673 138.717 392.384 138.984 392.217 139.327C392.05 139.669 392.018 140.062 392.127 140.427Z" fill="#263238"/>
<path d="M392.272 143.448C392.257 143.61 392.276 143.774 392.328 143.928C392.38 144.082 392.464 144.224 392.574 144.344C392.683 144.465 392.817 144.561 392.966 144.626C393.115 144.692 393.276 144.726 393.439 144.726C393.602 144.726 393.763 144.692 393.912 144.626C394.061 144.561 394.194 144.465 394.304 144.344C394.414 144.224 394.497 144.082 394.549 143.928C394.601 143.774 394.62 143.61 394.606 143.448C394.611 143.292 394.585 143.136 394.529 142.99C394.473 142.844 394.388 142.711 394.28 142.598C394.172 142.485 394.042 142.395 393.898 142.333C393.755 142.271 393.6 142.239 393.444 142.238C393.129 142.245 392.829 142.377 392.61 142.603C392.391 142.829 392.269 143.133 392.272 143.448Z" fill="#263238"/>
<path d="M398.866 140.427L398.44 149.78L393.705 148.531L398.866 140.427Z" fill="#F28F8F"/>
<path d="M419.877 137.88C419.841 139.381 419.586 140.868 419.122 142.296C418.824 141.831 418.458 141.414 418.038 141.056C415.657 139.078 412.951 137.528 410.04 136.476C403.33 133.891 395.516 133.485 389.222 135.692C389.329 134.408 389.609 133.144 390.055 131.935C392.34 125.971 396.959 122.853 404.337 123.618C412.983 124.518 420.119 129.321 419.877 137.88Z" fill="#8CC63F"/>
<path d="M404.046 132.613C402.042 131.935 396.92 131.538 395.419 132.013C394.726 131.442 394.119 130.773 393.618 130.028C392.921 128.914 393.153 127.51 393.812 127.23C394.47 126.949 394.518 127.801 397.065 129.069C396.729 128.254 396.655 127.354 396.852 126.494C397.268 125.458 398.149 127.317 400.038 128.508C401.926 129.699 403.804 130.318 404.046 132.613Z" fill="#263238"/>
<path d="M415.414 143.448C414.468 144.516 413.762 145.774 413.342 147.137C413.151 148.03 413.031 148.936 412.983 149.848L412.761 151.572C412.761 151.572 411.415 155.348 408.704 156.849C405.992 158.35 398.217 160.489 394.606 158.94C390.994 157.391 389.861 150.487 390.113 146.837C390.113 146.837 395.177 145.162 397.065 145.501C398.953 145.84 403.31 147.437 405.044 147.747C408.81 148.376 410.185 147.97 412.528 145.481C414.658 143.225 415.414 143.448 415.414 143.448Z" fill="#8CC63F"/>
<path opacity="0.6" d="M415.414 143.448C414.468 144.516 413.762 145.774 413.342 147.137C413.151 148.03 413.031 148.936 412.983 149.848L412.761 151.572C412.761 151.572 411.415 155.348 408.704 156.849C405.992 158.35 398.217 160.489 394.606 158.94C390.994 157.391 389.861 150.487 390.113 146.837C390.113 146.837 395.177 145.162 397.065 145.501C398.953 145.84 403.31 147.437 405.044 147.747C408.81 148.376 410.185 147.97 412.528 145.481C414.658 143.225 415.414 143.448 415.414 143.448Z" fill="white"/>
<path opacity="0.1" d="M415.414 143.448C414.468 144.516 413.762 145.774 413.342 147.137C413.151 148.03 413.031 148.936 412.983 149.848L412.761 151.572C412.761 151.572 411.415 155.348 408.704 156.849C405.992 158.35 398.217 160.489 394.606 158.94C390.994 157.391 389.861 150.487 390.113 146.837C390.113 146.837 395.177 145.162 397.065 145.501C398.953 145.84 403.31 147.437 405.044 147.747C408.81 148.376 410.185 147.97 412.528 145.481C414.658 143.225 415.414 143.448 415.414 143.448Z" fill="black"/>
<path d="M390.074 147.67C390.074 147.379 390.074 147.089 390.074 146.827C390.074 146.827 395.138 145.152 397.026 145.491C398.914 145.83 403.272 147.428 405.005 147.737C408.771 148.367 410.146 147.96 412.489 145.472C414.62 143.225 415.394 143.458 415.394 143.458C414.449 144.526 413.742 145.784 413.322 147.147C413.131 148.04 413.011 148.946 412.964 149.858L412.741 151.581C412.4 152.76 411.813 153.852 411.018 154.786C411.875 153.324 412.27 151.636 412.151 149.945C412.133 148.536 412.487 147.146 413.177 145.917C412.781 146.589 412.255 147.176 411.63 147.643C411.005 148.11 410.293 148.448 409.536 148.638C406.196 149.529 403.601 148.251 399.06 146.876C395.603 145.849 393.976 146.517 390.074 147.67Z" fill="#FAFAFA"/>
<path d="M33.986 383.393C25.843 374.989 21.0501 340.79 28.9995 334.099H69.4438C77.3836 340.77 72.6003 374.979 64.4573 383.393L64.2346 383.625L63.9538 383.897C63.7311 384.119 63.4793 384.342 63.2179 384.565L63.0242 384.72L62.4142 385.184C62.0774 385.433 61.7249 385.659 61.3588 385.862C54.6584 389.784 43.7849 389.784 37.0845 385.862C36.7153 385.659 36.3595 385.433 36.0194 385.184C35.8161 385.039 35.6418 384.894 35.4481 384.739L35.2061 384.555C34.9543 384.342 34.7219 384.129 34.4992 383.916L34.1797 383.596L33.986 383.393Z" fill="#455A64"/>
<path d="M65.929 331.417C75.1566 336.8 75.1566 345.534 65.929 350.927C56.7015 356.321 41.7225 356.311 32.5143 350.927C23.3061 345.544 23.2867 336.8 32.5143 331.417C41.7418 326.033 56.7015 326.033 65.929 331.417Z" fill="#455A64"/>
<g opacity="0.1">
<path d="M65.929 331.417C75.1566 336.8 75.1566 345.534 65.929 350.927C56.7015 356.321 41.7225 356.311 32.5143 350.927C23.3061 345.544 23.2867 336.8 32.5143 331.417C41.7418 326.033 56.7015 326.033 65.929 331.417Z" fill="white"/>
</g>
<path d="M61.4944 334.012C68.2722 337.962 68.2722 344.382 61.4944 348.332C54.7165 352.283 43.7268 352.292 36.9489 348.332C30.1711 344.372 30.1711 337.962 36.9489 334.012C43.7268 330.061 54.7165 330.051 61.4944 334.012Z" fill="#263238"/>
<path d="M36.9489 340.809C43.7268 336.849 54.7165 336.849 61.4944 340.809C63.1376 341.709 64.5317 343.004 65.5514 344.576C64.5283 346.142 63.1348 347.432 61.4944 348.332C54.7165 352.293 43.7268 352.293 36.9489 348.332C35.3085 347.432 33.915 346.142 32.8919 344.576C33.9116 343.004 35.3057 341.709 36.9489 340.809Z" fill="#F5F5F5"/>
<path d="M71.632 267.724L55.4717 278.782L70.7606 272.972C70.6226 277.064 69.5915 281.076 67.7396 284.727C67.7396 284.727 57.6406 289.626 52.1506 294.797L65.5998 290.624C66.0212 292.967 65.8785 295.376 65.1834 297.653C65.0963 297.963 64.9994 298.283 64.9026 298.622C64.1861 300.771 63.1694 304.838 61.4459 309.66C59.9804 313.88 58.1195 317.951 55.8881 321.821C54.7752 323.72 53.5397 325.544 52.1893 327.282L51.9376 327.611C49.4395 325.946 46.8574 324.332 44.1915 322.77C42.5938 318.703 40.88 309.021 40.5702 301.275C39.3986 271.258 63.0629 255.834 81.5374 251.399C81.5374 251.399 74.7789 258.739 71.632 267.724Z" fill="#8CC63F"/>
<path opacity="0.3" d="M71.632 267.724L55.4717 278.782L70.7606 272.972C70.6226 277.064 69.5915 281.076 67.7396 284.727C67.7396 284.727 57.6406 289.626 52.1506 294.797L65.5998 290.624C66.0212 292.967 65.8785 295.376 65.1834 297.653C65.0963 297.963 64.9994 298.283 64.9026 298.622C64.1861 300.771 63.1694 304.838 61.4459 309.66C59.9804 313.88 58.1195 317.951 55.8881 321.821C54.7752 323.72 53.5397 325.544 52.1893 327.282L51.9376 327.611C49.4395 325.946 46.8574 324.332 44.1915 322.77C42.5938 318.703 40.88 309.021 40.5702 301.275C39.3986 271.258 63.0629 255.834 81.5374 251.399C81.5374 251.399 74.7789 258.739 71.632 267.724Z" fill="black"/>
<path d="M58.7154 268.063C57.071 269.533 55.6547 271.24 54.5132 273.127C53.3875 275.024 52.3974 276.997 51.5503 279.034C49.8823 283.11 48.6679 287.357 47.929 291.698C46.3518 300.37 46.8495 309.292 49.3814 317.735C49.4148 317.844 49.4034 317.962 49.3499 318.063C49.2963 318.164 49.2049 318.239 49.0958 318.272C48.9866 318.306 48.8687 318.295 48.7679 318.241C48.6671 318.187 48.5918 318.096 48.5584 317.987C46.1354 309.393 45.7837 300.348 47.532 291.592C48.3531 287.238 49.6519 282.987 51.4051 278.917C52.2834 276.888 53.306 274.924 54.4648 273.04C55.6301 271.182 57.0623 269.505 58.7154 268.063Z" fill="#FAFAFA"/>
<path d="M0 283.284C0.36794 283.749 6.43895 291.437 15.3373 306.31L30.8295 309.292L19.3168 310.957L25.1845 320.911L40.4056 324.552L28.3798 326.13C28.3798 326.13 31.3523 337.904 39.7665 343.036C44.4142 345.873 46.709 346.347 48.1711 345.04C49.1393 344.13 49.5944 338.533 50.5723 333.566C51.5503 328.599 51.8698 320.466 47.4545 310.512C46.2535 307.847 44.6752 305.369 42.7681 303.153C31.8268 290.198 10.5928 283.459 0 283.284Z" fill="#8CC63F"/>
<path opacity="0.15" d="M0 283.284C0.36794 283.749 6.43895 291.437 15.3373 306.31L30.8295 309.292L19.3168 310.957L25.1845 320.911L40.4056 324.552L28.3798 326.13C28.3798 326.13 31.3523 337.904 39.7665 343.036C44.4142 345.873 46.709 346.347 48.1711 345.04C49.1393 344.13 49.5944 338.533 50.5723 333.566C51.5503 328.599 51.8698 320.466 47.4545 310.512C46.2535 307.847 44.6752 305.369 42.7681 303.153C31.8268 290.198 10.5928 283.459 0 283.284Z" fill="black"/>
<path opacity="0.1" d="M44.1915 315.634C45.8593 319.79 46.9286 324.162 47.3674 328.618C47.6837 334.247 47.6578 339.889 47.2899 345.514C47.6131 345.404 47.9122 345.234 48.1711 345.011C49.1393 344.101 49.5944 338.504 50.5723 333.537C51.5503 328.57 51.8698 320.436 47.4545 310.483C46.2535 307.818 44.6752 305.339 42.7681 303.124C31.8268 290.149 10.5928 283.41 0 283.236C16.1797 286.402 33.3276 297.76 41.5675 310.599C42.5868 312.198 43.4647 313.883 44.1915 315.634Z" fill="black"/>
<path d="M16.1119 288.881C24.0613 292.667 31.5266 297.741 37.3168 304.509C40.2544 307.856 42.6434 311.647 44.3948 315.741C46.0938 319.85 47.1047 324.21 47.3868 328.648C47.3794 328.652 47.371 328.654 47.3626 328.654C47.3541 328.654 47.3457 328.652 47.3383 328.648C46.6424 324.312 45.3996 320.083 43.6396 316.06C41.8933 312.06 39.6133 308.314 36.8617 304.925C34.0585 301.547 30.8634 298.515 27.3437 295.891C23.814 293.25 20.0551 290.93 16.1119 288.959C16.1119 288.959 16.1119 288.959 16.1119 288.9V288.881Z" fill="#FAFAFA"/>
<path d="M96.5842 294.332C95.275 294.254 93.9623 294.254 92.653 294.332C87.4987 294.636 82.4021 295.579 77.4804 297.14C75.66 297.711 73.8203 298.36 72.0097 299.077C71.1092 299.454 70.2087 299.851 69.3179 300.268C64.917 302.265 60.8791 304.981 57.3696 308.304C55.7375 309.899 54.3067 311.687 53.1092 313.63C52.964 313.881 52.7994 314.133 52.6541 314.385C52.2765 315.043 51.9376 315.702 51.6181 316.321C48.631 321.928 47.1183 328.202 47.2222 334.554C47.135 339.027 48.3744 344.236 49.1587 345.098C49.2651 345.219 49.3891 345.324 49.5266 345.408C50.7563 346.289 52.809 345.931 56.7111 344.023C64.525 340.208 68.0882 329.635 68.0882 329.635L57.6504 327.263L71.3319 325.326L77.3061 317.057L67.333 314.675L81.1888 313.33C85.9274 306.702 91.0587 300.365 96.5551 294.352L96.5842 294.332Z" fill="#8CC63F"/>
<path opacity="0.05" d="M92.653 294.303C87.4987 294.607 82.4021 295.55 77.4804 297.111C75.66 297.683 73.8203 298.331 72.0097 299.048C71.1092 299.425 70.2087 299.822 69.3179 300.239C64.917 302.236 60.8791 304.952 57.3696 308.275C55.7375 309.87 54.3067 311.659 53.1092 313.601C52.964 313.853 52.7994 314.104 52.6541 314.356C52.2765 315.015 51.9376 315.673 51.6181 316.293C48.631 321.899 47.1183 328.173 47.2222 334.525C47.135 338.998 48.3744 344.208 49.1587 345.069C49.2651 345.191 49.3891 345.295 49.5266 345.379C49.7753 345.551 50.0548 345.672 50.3497 345.737C49.7978 338.766 54.1743 321.405 59.7224 314.472C65.532 307.259 78.8263 297.044 96.5164 294.284C95.2294 294.213 93.9393 294.219 92.653 294.303Z" fill="black"/>
<path d="M403.901 101.813L406.961 96.0612L404.501 88.9542V84.6067L412.034 88.9542V93.3017L408.8 98.9079C408.749 98.9945 408.671 99.0623 408.578 99.1016L403.901 101.813Z" fill="#8CC63F"/>
<path opacity="0.2" d="M403.901 101.813L406.961 96.0612L404.501 88.9542V84.6067L412.034 88.9542V93.3017L408.8 98.9079C408.749 98.9945 408.671 99.0623 408.578 99.1016L403.901 101.813Z" fill="black"/>
<path d="M390.384 52.683C390.434 51.9055 390.664 51.1503 391.058 50.4778C391.451 49.8054 391.996 49.2342 392.65 48.81L394.48 47.7546C395.18 47.3968 395.955 47.2102 396.741 47.2102C397.527 47.2102 398.302 47.3968 399.002 47.7546L421.911 60.9133C422.563 61.3374 423.108 61.9088 423.499 62.5814C423.891 63.2541 424.12 64.0093 424.167 64.7863V95.7707C424.119 96.5476 423.89 97.3025 423.498 97.975C423.107 98.6475 422.563 99.219 421.911 99.6438L420.071 100.709C419.37 101.062 418.595 101.246 417.81 101.246C417.025 101.246 416.25 101.062 415.549 100.709L407.29 96.0709L404.056 101.667C404.011 101.75 403.944 101.817 403.861 101.861C403.778 101.905 403.684 101.924 403.591 101.914C403.498 101.905 403.41 101.868 403.337 101.809C403.265 101.749 403.212 101.67 403.184 101.58L399.766 91.7234L392.621 87.6179C391.97 87.1921 391.427 86.6203 391.035 85.948C390.643 85.2757 390.414 84.5214 390.365 83.7449L390.384 52.683Z" fill="#8CC63F"/>
<path opacity="0.2" d="M424.167 95.848C424.12 96.6251 423.891 97.3803 423.499 98.0529C423.108 98.7256 422.563 99.2969 421.911 99.7211L420.071 100.786C419.433 101.106 418.735 101.288 418.022 101.318C417.31 101.348 416.599 101.226 415.936 100.96C417.002 101.367 417.815 100.767 417.815 99.479V68.4946C417.79 67.7068 417.559 66.9392 417.147 66.2676L423.508 62.5979C423.914 63.272 424.14 64.0386 424.167 64.8249V95.848Z" fill="black"/>
<path opacity="0.5" d="M390.461 52.044C390.723 51.0758 391.594 50.7756 392.64 51.3759L415.559 64.583C416.227 64.9948 416.775 65.5761 417.147 66.2678L423.499 62.5981C423.124 61.9085 422.577 61.3279 421.911 60.9133L399.002 47.7159C398.302 47.3627 397.529 47.1787 396.746 47.1787C395.962 47.1787 395.189 47.3627 394.489 47.7159L392.64 48.781C392.074 49.1485 391.59 49.6273 391.215 50.1883C390.84 50.7493 390.584 51.3807 390.461 52.044Z" fill="white"/>
<path d="M400.899 86.4175H400.619C400.281 86.371 399.96 86.2401 399.686 86.0371C399.412 85.834 399.193 85.5653 399.05 85.2556L394.983 76.6187C394.851 76.3745 394.77 76.1059 394.746 75.8294C394.721 75.5529 394.753 75.2742 394.839 75.0104C394.926 74.7466 395.065 74.5033 395.249 74.2951C395.433 74.087 395.657 73.9185 395.908 73.7999C396.159 73.6813 396.431 73.6151 396.709 73.6054C396.986 73.5956 397.263 73.6425 397.522 73.7432C397.78 73.8439 398.016 73.9963 398.214 74.191C398.411 74.3857 398.568 74.6187 398.672 74.8758L401.403 80.6854L410.776 69.7731C410.949 69.564 411.162 69.3916 411.402 69.2658C411.643 69.14 411.906 69.0634 412.176 69.0405C412.447 69.0176 412.719 69.0488 412.978 69.1323C413.236 69.2157 413.475 69.3499 413.681 69.5268C413.887 69.7037 414.055 69.9198 414.176 70.1626C414.298 70.4054 414.37 70.6699 414.388 70.9407C414.406 71.2115 414.369 71.4832 414.281 71.7399C414.193 71.9966 414.055 72.2332 413.874 72.4358L402.449 85.7107C402.258 85.9345 402.02 86.1138 401.752 86.2359C401.485 86.358 401.194 86.42 400.899 86.4175Z" fill="#FAFAFA"/>
</svg>
