<svg width="460" height="450" viewBox="0 0 460 450" fill="none" xmlns="http://www.w3.org/2000/svg">
<path d="M237.896 86.9344C238.992 86.5465 240.051 86.0632 241.062 85.4899C242.472 84.6212 243.695 83.4798 244.658 82.1327C245.621 80.7855 246.306 79.2596 246.672 77.6444C246.907 76.5362 247 75.4025 246.949 74.2708C246.83 73.0223 246.585 71.7892 246.217 70.5904C245.534 68.028 244.792 65.2381 243.991 62.2601L238.589 41.939L232.059 17.3044C231.475 15.0882 230.882 12.8424 230.268 10.5472C229.782 8.25348 228.657 6.14409 227.023 4.46269C225.336 2.74602 223.171 1.5773 220.81 1.10882C218.357 0.686352 215.836 0.914916 213.499 1.77168L148.687 18.8477C145.915 19.587 143.497 21.2922 141.871 23.656C140.258 25.9836 139.537 28.8146 139.842 31.6301C140.047 33.0334 140.358 34.4192 140.772 35.7754C141.139 37.1704 141.495 38.5555 141.861 39.9307C142.586 42.6876 143.302 45.4215 144.008 48.1323C146.847 59.0151 149.578 69.4329 152.189 79.4055C153.509 84.3918 154.775 89.2461 155.989 93.9686C156.398 96.2861 157.397 98.4595 158.887 100.281C160.358 102.008 162.29 103.281 164.457 103.951C168.791 105.475 173.094 103.407 177.2 102.517L189.072 99.4397L224.797 90.219L234.523 87.7555L237.055 87.1421C237.629 87.0036 237.926 86.9641 237.926 86.9641C237.926 86.9641 237.649 87.0729 237.085 87.2312L234.572 87.9435L224.886 90.5752L189.27 100.093L177.398 103.229L171.106 104.881C168.795 105.468 166.366 105.397 164.094 104.676C161.821 103.956 159.795 102.615 158.244 100.805C156.662 98.8968 155.596 96.6145 155.148 94.1764C153.901 89.4671 152.621 84.616 151.309 79.6231C148.687 69.6604 145.927 59.213 143.078 48.3698C142.365 45.659 141.646 42.9251 140.921 40.1681C140.552 38.7962 140.185 37.4111 139.823 36.0129C139.383 34.6125 139.052 33.1803 138.833 31.729C138.505 28.6873 139.281 25.629 141.02 23.1118C142.781 20.5253 145.415 18.6602 148.44 17.8584L213.262 0.88127C215.731 -0.000580086 218.386 -0.225591 220.969 0.228303C223.491 0.754784 225.797 2.02661 227.587 3.87898C229.314 5.67244 230.503 7.91402 231.02 10.3493C231.614 12.6347 232.208 14.8904 232.781 17.1065C235.087 26.0106 237.233 34.2221 239.192 41.7708C241.151 49.3195 242.912 56.1262 244.465 62.1216C245.237 65.1226 245.956 67.906 246.622 70.4717C246.993 71.7045 247.245 72.9701 247.374 74.251C247.417 75.4216 247.304 76.5927 247.038 77.7335C246.646 79.381 245.924 80.932 244.916 82.2924C243.908 83.6529 242.633 84.7945 241.171 85.6482C240.418 86.0934 239.614 86.4456 238.777 86.6969C238.193 86.875 237.896 86.9344 237.896 86.9344Z" fill="#101D00"/>
<path d="M211.837 61.6075C211.642 61.6947 211.44 61.7643 211.233 61.8152L209.492 62.3099L203.002 64.1006L181.237 69.9575H181.059L180.979 69.7893L179.476 66.3365L168.939 41.0885L169.097 41.1577L163.28 42.6418L161.727 43.0177L161.183 43.1265C161.351 43.0506 161.527 42.991 161.707 42.9485L163.24 42.5033L169.038 40.9005H169.157V41.0093L179.832 66.2079L181.296 69.7003L181.049 69.5717L202.893 63.8533L209.413 62.1912L211.174 61.7658C211.39 61.6949 211.612 61.642 211.837 61.6075Z" fill="#101D00"/>
<path d="M178.565 63.6257C178.565 63.6257 178.615 63.6257 178.714 63.5663L179.159 63.4278L180.91 62.9332L187.46 61.1326L210.096 55.0481L209.947 55.2658C209.611 51.3084 209.245 46.9652 208.859 42.4933C208.671 40.1981 208.473 37.9424 208.295 35.7856L208.562 35.9736L181.85 42.9781L173.935 45.0162L171.798 45.5504L171.244 45.6691C171.116 45.6691 171.056 45.6691 171.046 45.6691L171.234 45.6098L171.778 45.4416L173.906 44.8381L181.82 42.6813L208.533 35.5382L208.77 35.469V35.7163C208.948 37.8731 209.136 40.1288 209.334 42.4241C209.71 46.8959 210.066 51.2094 210.402 55.2064V55.3746H210.234L187.559 61.3106L180.979 62.9925L179.208 63.4278L178.753 63.5367L178.565 63.6257Z" fill="#101D00"/>
<path d="M190.982 76.042C190.982 76.042 190.873 75.7847 190.616 75.3593C190.255 74.7681 189.709 74.3125 189.062 74.0633C188.595 73.8839 188.09 73.8226 187.593 73.8847C187.096 73.9468 186.622 74.1305 186.213 74.4194C185.906 74.6812 185.656 75.0027 185.477 75.3645C185.298 75.7262 185.196 76.1206 185.174 76.5235C185.153 76.9264 185.215 77.3293 185.355 77.7077C185.495 78.0861 185.71 78.4319 185.988 78.7242C186.267 79.0164 186.601 79.2489 186.972 79.4074C187.343 79.566 187.743 79.6472 188.146 79.6462C188.549 79.6451 188.948 79.5619 189.319 79.4015C189.689 79.241 190.022 79.0069 190.299 78.7132C190.735 78.1778 190.982 77.5136 191.001 76.8235C191.001 76.3289 190.942 76.0519 191.001 76.042C191.128 76.2828 191.193 76.5514 191.189 76.8235C191.229 77.569 191.005 78.3046 190.556 78.9012C190.216 79.3567 189.764 79.717 189.244 79.9474C188.725 80.1778 188.154 80.2707 187.588 80.217C186.897 80.1587 186.241 79.8881 185.709 79.4423C185.178 78.9964 184.797 78.3972 184.619 77.7266C184.442 77.056 184.476 76.3469 184.717 75.6964C184.958 75.046 185.394 74.4859 185.966 74.093C186.426 73.7744 186.961 73.5791 187.519 73.5254C188.076 73.4717 188.638 73.5615 189.151 73.7863C189.836 74.0865 190.395 74.6143 190.734 75.2802C190.878 75.5098 190.963 75.7715 190.982 76.042Z" fill="#101D00"/>
<path d="M210.769 70.8085C210.769 70.8085 210.66 70.5413 210.402 70.1258C210.039 69.537 209.494 69.0822 208.849 68.8298C208.339 68.6342 207.784 68.5835 207.246 68.6832C206.709 68.7829 206.209 69.0291 205.803 69.3947C205.396 69.7603 205.099 70.2311 204.943 70.7551C204.787 71.2791 204.779 71.836 204.919 72.3643C205.06 72.8927 205.344 73.372 205.739 73.7493C206.135 74.1266 206.627 74.3873 207.161 74.5027C207.696 74.6181 208.252 74.5836 208.768 74.4031C209.284 74.2225 209.74 73.903 210.086 73.4797C210.522 72.9405 210.768 72.2732 210.788 71.5802C210.788 71.0954 210.729 70.8184 210.788 70.8085C210.916 71.0452 210.981 71.311 210.976 71.5802C211.019 72.3259 210.794 73.0624 210.343 73.6578C210.007 74.1057 209.564 74.4614 209.053 74.6915C208.543 74.9215 207.983 75.0186 207.425 74.9736C206.734 74.9148 206.079 74.6437 205.549 74.1976C205.019 73.7516 204.641 73.1523 204.465 72.4823C204.289 71.8122 204.325 71.1042 204.568 70.4555C204.811 69.8068 205.249 69.2493 205.822 68.8595C206.284 68.5409 206.821 68.3456 207.38 68.292C207.939 68.2383 208.503 68.3281 209.017 68.5528C209.704 68.8502 210.264 69.3788 210.6 70.0467C210.718 70.2831 210.775 70.5446 210.769 70.8085Z" fill="#101D00"/>
<path d="M390.512 441.941C368.302 431.058 359.754 405.711 356.954 382.214C356.489 378.257 355.42 374.3 356.756 370.54C358.092 366.781 362.049 363.823 365.799 364.931C368.905 365.851 370.686 369.027 372.724 371.559C375.463 374.944 379.101 377.489 383.221 378.9C385.902 379.8 389.098 380.117 391.343 378.386C394.43 376.011 394.104 371.302 393.49 367.424L390.018 345.747C389.394 341.869 388.771 337.912 389.414 334.043C390.057 330.175 392.194 326.346 395.726 324.743C399.258 323.141 404.155 324.565 405.511 328.246C406.085 329.769 406.015 331.461 406.372 333.054C406.728 334.647 407.747 336.319 409.34 336.536C410.932 336.754 412.308 335.409 413.297 334.093C416.7 329.562 418.639 324.1 420.41 318.689C422.181 313.277 423.853 307.756 426.831 302.928C429.809 298.1 434.311 293.935 439.821 292.758C445.332 291.581 451.782 294.113 454.028 299.347C456.274 304.581 453.989 310.645 451.179 315.651C447.04 323.013 441.858 329.738 435.795 335.616C434.706 336.675 433.519 337.813 433.272 339.326C432.827 342.037 435.676 344.273 438.357 344.689C441.404 345.213 444.491 344.431 447.578 344.313C450.664 344.194 454.137 345.035 455.72 347.726C457.926 351.446 455.245 356.116 452.396 359.341C446.69 365.786 439.921 371.204 432.381 375.358C429.68 376.832 426.821 378.218 424.823 380.572C422.824 382.927 421.983 386.637 423.833 389.16C425.684 391.682 429.344 392.009 432.253 390.99C435.161 389.971 437.585 387.943 440.266 386.429C445.292 383.59 452.237 382.897 456.363 386.983C459.074 389.674 459.915 393.859 459.331 397.648C458.747 401.437 456.927 404.89 454.919 408.135C447.914 419.483 438.218 429.238 426.505 435.431C414.791 441.625 403.502 444.553 390.522 441.941" fill="#8CC63F"/>
<path d="M394.292 426.359C396.212 413.024 398.898 399.811 402.335 386.785C403.226 383.316 404.106 379.892 404.977 376.515C405.847 373.152 406.718 369.818 407.767 366.622C409.798 360.458 412.166 354.411 414.86 348.507C417.393 342.858 420.005 337.624 422.478 332.678C424.951 327.731 427.375 323.239 429.75 319.203C433.455 312.814 437.663 306.73 442.334 301.009C443.977 299.03 445.302 297.457 446.222 296.438L447.271 295.28C447.383 295.142 447.509 295.016 447.647 294.905C447.551 295.053 447.445 295.195 447.33 295.33L446.341 296.537C445.47 297.586 444.174 299.139 442.562 301.197C437.987 306.969 433.853 313.077 430.195 319.47C427.86 323.506 425.486 328.048 423.022 332.955C420.559 337.862 417.987 343.155 415.474 348.784C412.807 354.675 410.462 360.705 408.449 366.85C407.41 370.045 406.56 373.35 405.679 376.743C404.799 380.137 403.938 383.54 403.047 387.003C399.618 400 396.916 413.179 394.955 426.477" fill="#101D00"/>
<path d="M407.964 366.563C407.701 366.054 407.489 365.521 407.331 364.97C406.965 363.921 406.48 362.398 405.916 360.508C404.769 356.729 403.374 351.455 401.85 345.668C400.327 339.88 398.882 334.607 397.655 330.828C397.062 328.948 396.567 327.434 396.211 326.385C395.994 325.857 395.835 325.306 395.736 324.743C396.04 325.228 396.289 325.746 396.478 326.287C396.913 327.276 397.467 328.799 398.14 330.659C399.466 334.389 401.019 339.623 402.543 345.45C404.066 351.277 405.372 356.392 406.401 360.369C406.876 362.16 407.282 363.674 407.608 364.881C407.791 365.426 407.911 365.99 407.964 366.563Z" fill="#101D00"/>
<path d="M456.432 349.565C455.79 349.806 455.128 349.988 454.453 350.11C453.197 350.416 451.367 350.861 449.121 351.475C444.629 352.672 438.475 354.542 431.778 356.896C425.08 359.251 419.124 361.675 414.86 363.545C412.723 364.455 411.011 365.247 409.824 365.781C409.222 366.097 408.593 366.359 407.944 366.562C408.497 366.18 409.083 365.849 409.695 365.573C410.853 364.95 412.535 364.089 414.642 363.11C418.867 361.131 424.823 358.628 431.53 356.253C437.254 354.209 443.079 352.459 448.982 351.01C451.248 350.456 453.098 350.09 454.384 349.872C455.056 349.705 455.741 349.603 456.432 349.565Z" fill="#101D00"/>
<path d="M394.786 425.349C394.615 425.186 394.469 425 394.351 424.795L393.213 423.123C392.224 421.659 390.888 419.512 389.256 416.841C385.971 411.499 381.658 403.979 377.018 395.6C372.378 387.22 368.113 379.671 364.977 374.26L361.149 367.868C360.743 367.176 360.407 366.602 360.159 366.127C360.024 365.929 359.918 365.712 359.843 365.484C360.008 365.656 360.154 365.845 360.278 366.048C360.585 366.503 360.961 367.037 361.406 367.72C362.395 369.174 363.741 371.321 365.363 373.992C368.648 379.345 372.951 386.854 377.601 395.244C382.251 403.633 386.505 411.172 389.642 416.574L393.411 422.965L394.4 424.716C394.556 424.91 394.685 425.123 394.786 425.349Z" fill="#101D00"/>
<path d="M457.778 393.809C457.594 393.965 457.387 394.092 457.164 394.185L455.334 395.125L448.587 398.518C442.898 401.387 435.072 405.444 426.435 409.916C417.798 414.387 409.933 418.384 404.175 421.135C401.296 422.51 398.961 423.598 397.329 424.32L395.439 425.142C395.226 425.248 395 425.328 394.767 425.379C394.955 425.229 395.161 425.103 395.38 425.003L397.21 424.063L403.948 420.67C409.646 417.811 417.472 413.744 426.109 409.273C434.746 404.801 442.611 400.804 448.359 398.053C451.238 396.678 453.583 395.59 455.215 394.868L457.095 394.056C457.31 393.943 457.54 393.86 457.778 393.809Z" fill="#101D00"/>
<path d="M10.3969 83.8379C10.3969 83.8379 -0.634259 86.519 8.12143 110.402C16.8771 134.284 23.476 146.384 23.476 146.384C23.476 146.384 24.8809 151.855 20.3794 152.132C15.8779 152.409 6.39997 149.698 3.7881 154.833C1.0773 160.166 4.50043 165.924 12.1579 171.533C19.8155 177.143 36.1396 190.054 37.6335 191.231C39.1274 192.408 40.3443 195.001 37.3169 195.683C34.2895 196.366 12.2371 196 12.6922 206.467C13.1473 216.934 37.03 229.074 39.6122 230.449C42.1944 231.824 42.7089 233.051 42.3131 234.515C41.9174 235.979 34.5072 235.158 28.2348 235.306C21.9623 235.455 14.7104 236.741 15.4821 242.766C16.2538 248.791 29.5704 262.85 65.1076 270.725L81.8077 273.297L92.6905 260.228C114.189 230.864 114.921 211.503 111.488 206.467C108.055 201.431 101.802 205.26 96.9842 209.287C92.1661 213.313 87.1501 218.814 85.8838 217.983C84.6174 217.152 84.192 215.886 85.2209 213.145C86.2498 210.405 96.2125 185.523 89.6433 177.351C83.074 169.179 66.7499 184.009 64.0193 185.503C61.2887 186.997 60.517 184.177 60.8435 182.357C61.17 180.536 64.9196 160.037 66.9774 150.767C69.0353 141.497 67.7887 134.937 62.2385 132.702C56.8861 130.555 51.5437 138.865 47.982 141.606C44.4204 144.346 41.8679 139.33 41.8679 139.33C41.8679 139.33 38.8405 125.885 29.6594 102.161C20.4783 78.4361 10.1793 83.8972 10.1793 83.8972" fill="#8CC63F"/>
<path d="M82.2034 277.344C75.5254 259.902 64.1776 228.688 54.2941 201.946C44.4105 175.204 35.4471 151.015 28.8581 133.533C25.5636 124.817 22.922 117.704 21.0324 112.846C20.1222 110.412 19.4 108.522 18.9152 107.216C18.6777 106.583 18.4997 106.099 18.371 105.742C18.2424 105.386 18.2029 105.238 18.2029 105.238C18.2029 105.238 18.282 105.396 18.4205 105.723L19.0141 107.177L21.2302 112.767C23.1397 117.624 25.8703 124.639 29.2043 133.404C35.8824 150.847 44.9052 175.026 54.7887 201.768C64.6723 228.51 75.9607 259.734 82.5497 277.215" fill="#101D00"/>
<path d="M16.9167 159.166C17.308 159.285 17.686 159.444 18.0445 159.641C18.7569 159.968 19.7759 160.472 21.0126 161.105C23.5057 162.382 26.9486 164.242 30.6488 166.349L40.1662 171.79L43.0551 173.423C43.4068 173.597 43.7385 173.81 44.0445 174.056C43.6512 173.951 43.2724 173.798 42.9166 173.601C42.2043 173.274 41.1853 172.77 39.9486 172.117C37.4554 170.811 34.0719 168.921 30.352 166.804L20.8147 161.432L17.9159 159.819C17.5554 159.647 17.2194 159.427 16.9167 159.166Z" fill="#101D00"/>
<path d="M45.39 173.126C45.2614 173.057 48.7736 165.864 53.2256 157.049C57.6777 148.234 61.4075 141.15 61.5361 141.219C61.6647 141.289 58.1525 148.481 53.7005 157.296C49.2485 166.111 45.5483 173.185 45.39 173.126Z" fill="#101D00"/>
<path d="M58.7164 214.876C58.9411 214.514 59.2104 214.182 59.5178 213.887L61.8329 211.413C63.8115 209.316 66.4729 206.466 69.3123 203.103C72.1517 199.739 74.6448 196.712 76.4158 194.466L78.5231 191.804C78.7641 191.464 79.0393 191.149 79.3442 190.865C79.1642 191.239 78.9454 191.594 78.6913 191.923C78.2362 192.586 77.5733 193.536 76.7126 194.693C75.0109 196.998 72.5771 200.125 69.7179 203.449C66.8587 206.773 64.1281 209.642 62.1 211.67C61.1106 212.66 60.2598 213.491 59.6662 214.035C59.3781 214.346 59.0599 214.627 58.7164 214.876Z" fill="#101D00"/>
<path d="M30.1739 207.921C30.5617 207.924 30.9475 207.977 31.3215 208.08L34.3984 208.703C36.9806 209.247 40.5521 210.039 44.4897 210.949C48.4273 211.859 51.9889 212.7 54.5513 213.343L57.5886 214.125C57.9668 214.202 58.3351 214.321 58.6868 214.481C58.3022 214.478 57.9196 214.425 57.549 214.322L54.4524 213.749C51.8603 213.204 48.2888 212.413 44.3512 211.503C40.4136 210.593 36.8618 209.752 34.2896 209.109L31.2523 208.327C30.8777 208.236 30.5156 208.1 30.1739 207.921Z" fill="#101D00"/>
<path d="M37.2576 246.269C37.7473 246.303 38.2336 246.376 38.7119 246.486L42.6693 247.268C45.9935 247.951 50.584 248.93 55.6297 250.048C60.6753 251.166 65.2659 252.195 68.5604 252.967L72.5178 253.956C73.0039 254.052 73.4807 254.191 73.9424 254.372C73.4481 254.35 72.9573 254.277 72.4782 254.154L68.5208 253.372C65.1966 252.69 60.6061 251.71 55.5604 250.592C50.5148 249.474 45.8846 248.376 42.5802 247.634L38.6229 246.645C38.156 246.567 37.6984 246.441 37.2576 246.269Z" fill="#101D00"/>
<path d="M73.0619 253.896C73.3518 253.453 73.6831 253.039 74.0512 252.659L76.8709 249.414C79.2552 246.664 82.52 242.865 86.0223 238.531C89.5246 234.198 92.5915 230.261 94.7879 227.372L97.3997 223.949C97.694 223.515 98.025 223.108 98.3891 222.732C98.1514 223.2 97.8733 223.647 97.558 224.067C96.9842 224.918 96.1433 226.125 95.0748 227.599C92.9477 230.567 89.9203 234.525 86.418 238.868C82.9157 243.211 79.5916 246.941 77.138 249.632C75.9112 250.968 74.9021 252.046 74.17 252.768C73.8291 253.171 73.4587 253.548 73.0619 253.896Z" fill="#101D00"/>
<path d="M438.456 443.752C438.456 443.9 343.152 444.009 225.618 444.009C108.085 444.009 12.7614 443.9 12.7614 443.752C12.7614 443.603 108.045 443.494 225.618 443.494C343.192 443.494 438.456 443.613 438.456 443.752Z" fill="#263238"/>
<path d="M392.412 36.2406H363.721C361.838 36.2899 360.051 37.0842 358.752 38.4493C357.454 39.8144 356.75 41.6388 356.795 43.5222V48.7262C356.841 50.6095 356.137 52.4339 354.839 53.799C353.54 55.1642 351.753 55.9585 349.87 56.0077H293.923C292.032 55.961 290.238 55.1678 288.931 53.8014C287.623 52.435 286.911 50.6067 286.948 48.7163V43.4628C286.985 41.5817 286.279 39.7617 284.982 38.3983C283.685 37.0349 281.903 36.2382 280.022 36.1813H269.931H244.812C238.82 36.1813 233.072 38.5603 228.834 42.7956C224.595 47.0308 222.21 52.7758 222.205 58.768L222.136 421.036C222.136 427.025 224.514 432.768 228.748 437.004C232.982 441.239 238.724 443.62 244.713 443.623L392.461 443.712C395.428 443.714 398.366 443.132 401.107 441.999C403.849 440.865 406.34 439.203 408.438 437.106C410.537 435.009 412.202 432.52 413.337 429.779C414.473 427.039 415.058 424.101 415.058 421.135L415.127 58.857C415.131 55.8776 414.545 52.9267 413.404 50.1745C412.263 47.4223 410.588 44.9232 408.477 42.8209C406.365 40.7187 403.859 39.055 401.102 37.9257C398.345 36.7964 395.391 36.2237 392.412 36.2406Z" fill="white"/>
<path d="M392.412 36.2408C392.412 36.2408 392.669 36.2408 393.184 36.2408C393.949 36.2395 394.712 36.2957 395.469 36.4089C398.473 36.7876 401.363 37.7992 403.948 39.377C405.863 40.5009 407.598 41.9085 409.092 43.552C410.92 45.5244 412.378 47.81 413.396 50.2993C414.57 53.2118 415.145 56.3309 415.088 59.4705C415.088 62.8046 415.088 66.3959 415.088 70.1159C415.088 100.212 415.137 143.753 415.167 197.543C415.196 251.334 415.167 315.414 415.167 386.508V420.363C415.22 422.701 414.93 425.035 414.306 427.289C413.676 429.548 412.701 431.697 411.417 433.66C410.109 435.614 408.526 437.37 406.718 438.874C403.003 441.882 398.44 443.653 393.668 443.939C388.939 444.078 384.23 443.939 379.481 443.999H350.751H291.717H246.276C241.044 444.266 235.869 442.81 231.545 439.853C227.266 436.854 224.128 432.496 222.641 427.487C221.935 425.004 221.618 422.428 221.701 419.849V412.231C221.701 402.1 221.701 392.032 221.701 382.026C221.701 362.042 221.701 342.36 221.701 322.982C221.701 284.269 221.701 246.931 221.701 211.355C221.701 175.778 221.701 141.982 221.701 110.343C221.701 94.5131 221.701 79.2574 221.701 64.5756C221.701 62.7354 221.701 60.9051 221.701 59.0946C221.701 58.1844 221.78 57.2643 221.829 56.3541C221.879 55.4439 222.057 54.5436 222.284 53.6631C223.1 50.1427 224.73 46.8626 227.043 44.0862C229.289 41.4157 232.115 39.2931 235.306 37.8803C238.497 36.4676 241.968 35.8019 245.455 35.9341H265.143H279.251C280.83 35.8498 282.393 36.2841 283.703 37.1707C284.976 38.0665 285.941 39.335 286.463 40.8016C286.897 42.2465 287.051 43.7608 286.918 45.2636V47.5391C286.896 48.2587 286.919 48.9791 286.987 49.6958C287.199 51.1084 287.83 52.425 288.798 53.4751C289.698 54.5301 290.905 55.2773 292.251 55.6121C292.915 55.7712 293.597 55.8411 294.279 55.8199H304.519H334.298H347.426C348.465 55.8199 349.524 55.8199 350.503 55.8199C351.485 55.697 352.427 55.3592 353.264 54.8305C354.068 54.3208 354.762 53.6557 355.305 52.8742C355.849 52.0927 356.231 51.2106 356.429 50.2795C356.592 49.3724 356.652 48.4497 356.608 47.5292C356.608 46.619 356.608 45.7187 356.608 44.8283C356.568 43.9493 356.608 43.0685 356.726 42.1966C356.869 41.349 357.157 40.5323 357.577 39.7826C358.376 38.3639 359.637 37.2608 361.149 36.6563C362.599 36.1991 364.126 36.0377 365.64 36.1814C364.196 36.1814 362.672 36.033 361.228 36.6662C359.74 37.2632 358.506 38.3576 357.735 39.7628C357.335 40.4976 357.057 41.293 356.914 42.1174C356.808 42.9771 356.771 43.844 356.805 44.7095C356.805 45.5999 356.805 46.5002 356.805 47.4104C356.844 48.3474 356.784 49.2858 356.627 50.2103C356.424 51.1744 356.031 52.0884 355.47 52.8987C354.91 53.709 354.193 54.3994 353.363 54.9295C352.488 55.4687 351.505 55.8066 350.484 55.9188C349.435 56.0078 348.426 55.9188 347.377 55.9188H294.279C293.564 55.9469 292.848 55.877 292.152 55.711C290.73 55.3627 289.456 54.573 288.511 53.4553C287.539 52.3401 286.917 50.964 286.72 49.498C286.659 48.8469 286.635 48.1928 286.651 47.5391V45.3031C286.774 43.8468 286.623 42.3804 286.206 40.9797C285.714 39.5913 284.801 38.3912 283.594 37.5467C282.349 36.7105 280.867 36.3008 279.37 36.3793H245.574C242.152 36.2504 238.747 36.9054 235.617 38.2943C232.488 39.6833 229.718 41.7693 227.518 44.3929C225.259 47.1134 223.67 50.3257 222.878 53.7719C222.651 54.6327 222.581 55.5231 222.423 56.4036C222.265 57.2841 222.314 58.1844 222.304 59.0946V64.5756C222.304 79.2574 222.304 94.5131 222.304 110.343C222.304 142.002 222.304 175.788 222.304 211.355V322.982C222.304 342.334 222.304 362.015 222.304 382.026V419.849C222.218 422.368 222.526 424.884 223.214 427.309C224.677 432.183 227.746 436.419 231.921 439.329C236.138 442.189 241.179 443.58 246.266 443.286H261.522H291.707H350.741H379.511C384.25 443.286 388.999 443.366 393.668 443.227C398.313 442.946 402.752 441.216 406.362 438.28C408.125 436.818 409.668 435.109 410.942 433.205C412.19 431.297 413.138 429.208 413.752 427.012C414.357 424.822 414.64 422.556 414.593 420.284C414.593 417.989 414.593 415.713 414.593 413.428C414.593 404.326 414.593 395.326 414.593 386.429C414.593 315.305 414.662 251.235 414.692 197.464C414.722 143.693 414.791 100.133 414.821 70.0367C414.821 66.2772 414.821 62.7255 414.821 59.3914C414.885 56.2774 414.323 53.1821 413.168 50.2894C412.166 47.8178 410.728 45.5459 408.924 43.5817C405.394 39.6923 400.612 37.1645 395.41 36.4386C394.656 36.3218 393.896 36.2524 393.134 36.2309C392.669 36.2704 392.412 36.2408 392.412 36.2408Z" fill="#263238"/>
<path d="M258.643 72.8267C258.643 72.9158 254.903 73.0345 250.303 73.0642C245.702 73.0938 241.962 73.0642 241.962 72.9652C241.962 72.8663 245.692 72.7575 250.303 72.7179C254.913 72.6783 258.643 72.7278 258.643 72.8267Z" fill="#263238"/>
<path d="M258.672 77.0908C258.672 77.1897 254.943 77.2985 250.342 77.3381C245.742 77.3777 242.002 77.3381 242.002 77.2293C242.002 77.1204 245.732 77.0215 250.332 76.9819C254.933 76.9423 258.672 76.9918 258.672 77.0908Z" fill="#263238"/>
<path d="M258.712 81.3549C258.712 81.4538 254.982 81.5627 250.372 81.6022C245.762 81.6418 242.032 81.6022 242.032 81.4934C242.032 81.3846 245.762 81.2857 250.372 81.2461C254.982 81.2065 258.712 81.256 258.712 81.3549Z" fill="#263238"/>
<path d="M313.403 352.158H239.153V426.408H313.403V352.158Z" fill="#F5F5F5"/>
<path d="M304.637 394.64C298.592 386.201 285.761 380.423 275.333 381.976C266.884 383.233 259.405 387.16 255.309 395.55C255.034 396.097 254.896 396.703 254.905 397.316C254.915 397.928 255.072 398.529 255.363 399.068C255.654 399.607 256.071 400.068 256.578 400.411C257.086 400.754 257.668 400.97 258.277 401.041C272.354 402.721 286.584 402.675 300.65 400.902C302.817 400.625 305.399 400.022 305.548 397.341C305.561 396.363 305.24 395.41 304.637 394.64Z" fill="#8CC63F"/>
<g opacity="0.5">
<path d="M304.637 394.64C298.592 386.201 285.761 380.423 275.333 381.976C266.884 383.233 259.404 387.16 255.309 395.55" fill="white"/>
</g>
<path d="M271.257 394.215C271.207 394.215 270.772 393.829 270.198 393.038C269.432 391.991 268.887 390.8 268.596 389.535C268.348 388.278 268.242 386.997 268.279 385.717C268.235 385.189 268.278 384.657 268.408 384.144C268.572 384.648 268.652 385.176 268.645 385.707C268.712 386.952 268.86 388.191 269.09 389.417C269.384 390.622 269.858 391.776 270.495 392.84C270.806 393.264 271.062 393.726 271.257 394.215Z" fill="#F5F5F5"/>
<path d="M280.21 393.81C280.062 393.81 280.28 391.415 279.963 388.507C279.647 385.598 278.974 383.313 279.102 383.263C280.557 386.579 280.944 390.264 280.21 393.81Z" fill="#F5F5F5"/>
<path d="M289.471 392.434C289.322 392.374 290.025 390.781 290.193 388.684C290.361 386.587 289.975 384.895 290.124 384.855C290.621 386.08 290.821 387.406 290.708 388.723C290.594 390.04 290.17 391.312 289.471 392.434Z" fill="#F5F5F5"/>
<path d="M314.264 112.133H239.153V224.73H314.264V112.133Z" fill="#F5F5F5"/>
<path d="M314.264 233.219H239.153V345.816H314.264V233.219Z" fill="#F5F5F5"/>
<path d="M396.527 211.958H321.417V317.086H396.527V211.958Z" fill="#F5F5F5"/>
<path d="M395.914 324.477H320.803V426.399H395.914V324.477Z" fill="#F5F5F5"/>
<path d="M396.527 112.133H321.417V205.131H396.527V112.133Z" fill="#F5F5F5"/>
<path d="M288.511 145.801V177.014C288.511 178.38 287.413 179.795 285.395 180.863C282.69 182.133 279.725 182.75 276.738 182.664H276.688C269.318 182.664 264.915 179.755 264.915 177.014V145.741C264.915 142.694 267.161 139.518 269.417 136.372C270.93 134.275 271.297 131.257 271.395 129.447C271.395 129.239 271.395 129.051 271.395 128.873H271.188C270.755 128.906 270.327 128.766 269.997 128.484C269.667 128.203 269.462 127.802 269.427 127.369V126.053C269.46 125.618 269.663 125.214 269.993 124.929C270.323 124.643 270.752 124.5 271.188 124.53H282.258C282.587 124.52 282.912 124.601 283.198 124.763C283.484 124.926 283.72 125.163 283.881 125.45C283.972 125.638 284.019 125.844 284.019 126.053V127.369C283.982 127.801 283.776 128.2 283.447 128.481C283.117 128.763 282.691 128.903 282.258 128.873H282.001C282.001 129.051 282.001 129.239 282.001 129.447C282.07 131.228 282.437 134.245 283.98 136.372C286.236 139.518 288.472 142.694 288.481 145.741L288.511 145.801Z" fill="#FAFAFA"/>
<path d="M288.511 145.801V145.484C288.484 145.172 288.441 144.862 288.382 144.554C288.117 143.374 287.677 142.24 287.076 141.19C286.111 139.52 285.044 137.911 283.881 136.372C282.519 134.123 281.833 131.531 281.902 128.903V128.725H282.001C282.391 128.784 282.789 128.696 283.118 128.479C283.447 128.261 283.683 127.929 283.782 127.547C283.782 127.152 283.782 126.667 283.782 126.222C283.806 126.017 283.777 125.811 283.699 125.62C283.622 125.43 283.497 125.262 283.337 125.133C282.999 124.862 282.573 124.724 282.14 124.748H277.678H271.306C271.058 124.726 270.808 124.757 270.573 124.838C270.337 124.92 270.122 125.051 269.941 125.222C269.777 125.395 269.667 125.611 269.624 125.846C269.609 126.116 269.609 126.387 269.624 126.657C269.624 126.934 269.624 127.26 269.624 127.488C269.656 127.73 269.763 127.955 269.931 128.131C270.115 128.317 270.339 128.459 270.586 128.546C270.832 128.633 271.096 128.664 271.356 128.636H271.583V128.883C271.572 130.16 271.433 131.433 271.168 132.682C270.911 133.993 270.404 135.243 269.674 136.362C268.01 138.479 266.636 140.808 265.588 143.288C265.365 143.928 265.219 144.592 265.153 145.267C265.153 145.929 265.153 146.662 265.153 147.364V151.658C265.153 154.56 265.153 157.501 265.153 160.483C265.153 165.726 265.153 170.851 265.153 175.798C265.122 176.392 265.149 176.989 265.232 177.578C265.375 178.132 265.658 178.639 266.053 179.053C266.858 179.908 267.836 180.583 268.922 181.031C271.061 181.889 273.336 182.355 275.64 182.406C277.833 182.521 280.031 182.324 282.169 181.823C284.187 181.424 286.041 180.432 287.492 178.973C287.803 178.615 288.038 178.198 288.184 177.747C288.296 177.287 288.336 176.813 288.303 176.342V173.473C288.303 171.593 288.303 169.792 288.303 168.071C288.303 161.215 288.363 155.665 288.382 151.786C288.382 149.887 288.382 148.403 288.382 147.354C288.382 146.305 288.432 145.811 288.432 145.811C288.484 146.323 288.503 146.839 288.491 147.354C288.491 148.403 288.491 149.887 288.541 151.786C288.541 155.665 288.541 161.215 288.62 168.071C288.62 169.792 288.62 171.593 288.62 173.473V176.342C288.658 176.853 288.618 177.366 288.501 177.865C288.34 178.374 288.077 178.846 287.729 179.25C286.225 180.777 284.294 181.812 282.189 182.219C280.011 182.743 277.769 182.952 275.531 182.842C273.156 182.795 270.81 182.319 268.605 181.437C267.453 180.975 266.413 180.269 265.558 179.369C265.11 178.892 264.787 178.31 264.618 177.677C264.523 177.049 264.489 176.413 264.519 175.778C264.519 170.831 264.519 165.706 264.519 160.463C264.519 157.475 264.519 154.533 264.519 151.638V147.344C264.519 146.622 264.519 145.949 264.519 145.207C264.584 144.492 264.737 143.787 264.974 143.11C266.039 140.588 267.44 138.222 269.14 136.076C270.414 133.894 271.051 131.399 270.98 128.873L271.217 129.111C270.893 129.138 270.566 129.093 270.262 128.978C269.957 128.864 269.682 128.682 269.456 128.448C269.226 128.202 269.077 127.891 269.031 127.557C269.031 127.211 269.031 126.964 269.031 126.667C269.012 126.374 269.012 126.08 269.031 125.786C269.089 125.461 269.244 125.161 269.476 124.926C269.697 124.71 269.961 124.544 270.251 124.438C270.541 124.332 270.85 124.289 271.158 124.312H277.529H281.991C282.512 124.297 283.021 124.469 283.426 124.797C283.623 124.965 283.778 125.177 283.878 125.416C283.977 125.655 284.019 125.914 284 126.172C284 126.637 284 127.053 284 127.547C283.891 128.012 283.612 128.42 283.219 128.691C282.826 128.961 282.346 129.076 281.872 129.012L282.041 128.843C281.946 131.412 282.592 133.953 283.901 136.165C285.049 137.727 286.1 139.359 287.047 141.052C287.638 142.123 288.053 143.282 288.274 144.485C288.324 144.796 288.354 145.11 288.363 145.425C288.436 145.539 288.486 145.667 288.511 145.801Z" fill="#263238"/>
<path d="M281.417 128.834C278.129 129.179 274.813 129.179 271.524 128.834C274.813 128.488 278.129 128.488 281.417 128.834Z" fill="#263238"/>
<path d="M287.522 149.965C286.992 149.706 286.405 149.584 285.816 149.61C285.227 149.636 284.653 149.809 284.148 150.114C283.137 150.729 282.045 151.198 280.903 151.509C279.51 151.638 278.114 151.289 276.946 150.519C275.78 149.758 274.552 149.097 273.275 148.541C272.008 148.11 270.645 148.043 269.342 148.349C268.038 148.656 266.847 149.322 265.905 150.272V176.984C265.905 176.984 267.379 181.545 277.727 180.833C288.076 180.12 287.255 175.55 287.255 175.55L287.522 149.965Z" fill="#8CC63F"/>
<path d="M367.49 362.397V393.354C367.49 394.719 366.402 396.114 364.384 397.183C361.7 398.45 358.753 399.064 355.786 398.973C348.455 398.973 344.082 396.075 344.082 393.354V362.437C344.082 362.437 344.082 362.437 344.082 362.368C344.082 359.34 346.318 356.184 348.554 353.068C350.068 350.98 350.424 347.973 350.533 346.212C350.533 346.004 350.533 345.816 350.533 345.648H350.266C349.835 345.678 349.409 345.537 349.082 345.255C348.754 344.974 348.55 344.575 348.515 344.144V342.838C348.548 342.406 348.751 342.006 349.079 341.724C349.407 341.442 349.834 341.302 350.266 341.334H361.267C361.594 341.324 361.917 341.403 362.201 341.563C362.486 341.724 362.72 341.959 362.88 342.244C362.967 342.43 363.011 342.633 363.009 342.838V344.144C362.976 344.574 362.774 344.973 362.448 345.255C362.122 345.537 361.697 345.678 361.267 345.648H361.06C361.06 345.816 361.06 346.004 361.06 346.212C361.129 347.973 361.485 350.98 362.989 353.068C365.235 356.184 367.451 359.34 367.471 362.368C367.5 362.358 367.49 362.378 367.49 362.397Z" fill="#FAFAFA"/>
<path d="M367.49 362.397C367.497 362.292 367.497 362.186 367.49 362.08C367.469 361.768 367.429 361.458 367.372 361.15C367.107 359.981 366.67 358.857 366.076 357.816C365.118 356.154 364.053 354.554 362.89 353.028C361.534 350.795 360.847 348.22 360.911 345.608V345.42H361.079C361.467 345.478 361.862 345.39 362.188 345.172C362.513 344.954 362.746 344.623 362.84 344.243C362.84 343.857 362.84 343.372 362.84 342.927C362.859 342.724 362.828 342.521 362.751 342.333C362.673 342.145 362.551 341.979 362.395 341.848C362.059 341.582 361.637 341.445 361.208 341.463H356.776H350.444C350.197 341.441 349.949 341.472 349.715 341.554C349.481 341.636 349.268 341.766 349.089 341.937C348.922 342.108 348.812 342.326 348.772 342.561C348.756 342.828 348.756 343.095 348.772 343.362C348.772 343.629 348.772 343.956 348.772 344.183C348.803 344.425 348.911 344.65 349.079 344.826C349.261 345.009 349.482 345.148 349.725 345.233C349.968 345.319 350.227 345.349 350.483 345.321H350.721V345.568C350.709 346.836 350.57 348.098 350.305 349.338C350.052 350.639 349.548 351.879 348.821 352.988C347.164 355.104 345.8 357.433 344.765 359.914C344.539 360.552 344.396 361.217 344.34 361.893C344.34 362.545 344.34 363.278 344.34 363.97C344.34 365.375 344.34 366.8 344.34 368.244V376.99C344.34 382.204 344.34 387.299 344.34 392.216C344.31 392.804 344.336 393.394 344.419 393.977C344.565 394.529 344.847 395.036 345.24 395.451C346.04 396.303 347.011 396.977 348.089 397.43C350.203 398.26 352.447 398.709 354.718 398.755C356.898 398.869 359.083 398.673 361.208 398.172C363.214 397.782 365.055 396.796 366.491 395.342C366.802 394.987 367.037 394.574 367.184 394.125C367.291 393.669 367.327 393.198 367.292 392.73C367.292 391.741 367.292 390.811 367.292 389.881C367.292 388.011 367.292 386.23 367.292 384.519C367.292 377.702 367.352 372.182 367.372 368.333C367.372 366.443 367.372 364.969 367.421 363.94C367.471 362.912 367.421 362.407 367.421 362.407C367.48 362.916 367.5 363.429 367.48 363.94C367.48 364.93 367.48 366.443 367.48 368.333C367.48 372.182 367.53 377.702 367.569 384.519C367.569 386.23 367.569 388.011 367.569 389.881C367.569 390.811 367.569 391.761 367.569 392.73C367.608 393.239 367.565 393.75 367.441 394.244C367.281 394.749 367.022 395.216 366.679 395.619C365.187 397.141 363.269 398.176 361.178 398.587C359.013 399.111 356.784 399.321 354.56 399.211C352.212 399.162 349.893 398.689 347.713 397.816C346.621 397.346 345.637 396.655 344.824 395.787C344.381 395.312 344.062 394.734 343.894 394.106C343.799 393.484 343.766 392.854 343.796 392.226V363.95C343.796 363.238 343.796 362.565 343.796 361.833C343.861 361.118 344.014 360.414 344.251 359.736C345.308 357.235 346.699 354.888 348.386 352.761C349.647 350.592 350.28 348.116 350.216 345.608L350.444 345.835C350.123 345.862 349.801 345.817 349.5 345.704C349.199 345.591 348.927 345.413 348.703 345.183C348.471 344.938 348.326 344.626 348.287 344.292C348.287 343.956 348.287 343.708 348.287 343.412C348.268 343.118 348.268 342.824 348.287 342.531C348.35 342.21 348.504 341.915 348.732 341.68C348.952 341.466 349.215 341.3 349.503 341.195C349.791 341.089 350.098 341.045 350.404 341.067H356.736H361.168C361.686 341.049 362.193 341.222 362.593 341.552C362.79 341.718 362.944 341.928 363.044 342.165C363.143 342.403 363.186 342.66 363.167 342.917C363.167 343.382 363.167 343.797 363.167 344.282C363.047 344.739 362.767 345.137 362.379 345.406C361.991 345.674 361.519 345.795 361.05 345.746L361.218 345.578C361.126 348.125 361.764 350.645 363.058 352.84C364.207 354.388 365.252 356.011 366.184 357.698C366.774 358.762 367.188 359.915 367.411 361.111C367.464 361.418 367.491 361.729 367.49 362.041C367.52 362.288 367.51 362.397 367.49 362.397Z" fill="#263238"/>
<path d="M360.446 345.529C357.19 345.872 353.908 345.872 350.652 345.529C353.908 345.186 357.19 345.186 360.446 345.529Z" fill="#263238"/>
<path d="M366.511 366.532C365.985 366.272 365.402 366.148 364.816 366.172C364.23 366.196 363.659 366.368 363.157 366.671C362.155 367.283 361.073 367.753 359.942 368.066C358.549 368.191 357.154 367.842 355.984 367.076C354.826 366.314 353.605 365.652 352.334 365.098C351.075 364.672 349.722 364.608 348.43 364.914C347.137 365.22 345.956 365.884 345.022 366.829V393.403C345.022 393.403 346.477 397.944 356.756 397.232C367.035 396.519 366.234 391.978 366.234 391.978L366.511 366.532Z" fill="#8CC63F"/>
<g opacity="0.5">
<path d="M366.511 366.532C365.985 366.272 365.402 366.148 364.816 366.172C364.23 366.196 363.659 366.368 363.157 366.671C362.155 367.283 361.073 367.753 359.942 368.066C358.549 368.191 357.154 367.842 355.984 367.076C354.826 366.314 353.605 365.652 352.334 365.098C351.075 364.672 349.722 364.608 348.43 364.914C347.137 365.22 345.956 365.884 345.022 366.829V393.403C345.022 393.403 346.477 397.944 356.756 397.232C367.035 396.519 366.234 391.978 366.234 391.978L366.511 366.532Z" fill="white"/>
</g>
<path d="M383.597 249.9C383.258 249.762 382.891 249.711 382.528 249.753C382.164 249.794 381.818 249.926 381.519 250.137C381.371 250.236 381.212 250.355 381.064 250.473C376.042 254.187 369.937 256.145 363.691 256.044C351.532 256.044 341.461 249.227 339.66 240.323V238.641C339.675 238.473 339.655 238.303 339.601 238.143C339.547 237.983 339.46 237.835 339.346 237.711C339.232 237.586 339.094 237.486 338.939 237.418C338.784 237.35 338.617 237.314 338.448 237.314C338.279 237.314 338.112 237.35 337.957 237.418C337.802 237.486 337.664 237.586 337.55 237.711C337.436 237.835 337.349 237.983 337.295 238.143C337.241 238.303 337.221 238.473 337.236 238.641V243.35C337.244 243.462 337.267 243.572 337.305 243.677C336.469 245.524 336.028 247.526 336.009 249.553C336.009 259.833 346.892 268.183 360.357 268.183C371.645 268.183 381.133 262.316 383.903 254.332C383.937 254.297 383.958 254.252 383.963 254.203C384.283 253.566 384.462 252.868 384.487 252.155C384.561 251.734 384.516 251.3 384.359 250.902C384.202 250.504 383.938 250.157 383.597 249.9Z" fill="#8CC63F"/>
<g opacity="0.3">
<path d="M338.75 244.913C338.75 244.913 350.216 271.289 381.292 252.828C381.292 252.828 373.288 261.138 362.85 263.156C353.392 264.967 339.383 259.634 338.75 244.913Z" fill="black"/>
</g>
<path d="M384.448 251.224C384.26 251.68 383.518 251.808 382.795 251.501C382.073 251.195 381.638 250.571 381.806 250.116C381.974 249.661 382.736 249.543 383.458 249.849C384.18 250.156 384.645 250.769 384.448 251.224Z" fill="#263238"/>
<path d="M396.033 81.1765C395.951 81.1909 395.867 81.1909 395.786 81.1765H395.083H392.481L383.745 81.2556H383.676V81.1864C383.607 80.7214 383.537 80.197 383.458 79.7419C382.855 75.5075 382.321 71.7282 381.964 69.2549H382.014H379.046C378.977 69.2635 378.907 69.2635 378.838 69.2549H379.046H379.669H381.994H382.044V69.3044C382.41 71.7678 382.974 75.5471 383.607 79.7716C383.676 80.2663 383.745 80.761 383.815 81.2161L383.735 81.1468H392.471H396.023L396.033 81.1765Z" fill="#263238"/>
<path d="M383.369 78.7031C383.369 78.7031 383.369 78.7031 383.439 78.7031H383.617H384.319H386.951L396.013 78.614L395.934 78.6833C396.191 77.1498 396.478 75.4976 396.765 73.7959C396.913 72.9154 397.062 72.0448 397.21 71.2236L397.289 71.3226H386.604H382.36C382.311 71.3226 382.291 71.3226 382.291 71.3226H382.588H383.439H386.604L397.289 71.2335H397.388V71.3325L396.953 73.8949C396.656 75.6064 396.369 77.2586 396.112 78.8416V78.9009H396.043H386.98H383.399L383.369 78.7031Z" fill="#263238"/>
<path d="M386.871 84.5606C386.871 84.5606 386.871 84.4518 386.802 84.2638C386.727 84.0072 386.566 83.7839 386.347 83.6307C386.189 83.5193 386.007 83.4476 385.816 83.4217C385.625 83.3959 385.43 83.4167 385.249 83.4823C385.028 83.5652 384.839 83.7133 384.705 83.9068C384.571 84.1004 384.499 84.3302 384.499 84.5656C384.499 84.801 384.571 85.0308 384.705 85.2243C384.839 85.4179 385.028 85.566 385.249 85.6489C385.43 85.7185 385.626 85.7404 385.818 85.7127C386.011 85.685 386.193 85.6085 386.347 85.4906C386.561 85.3342 386.717 85.1117 386.792 84.8574C386.852 84.6695 386.852 84.5606 386.861 84.5606C386.887 84.6613 386.887 84.7667 386.861 84.8673C386.8 85.1518 386.643 85.4066 386.416 85.5896C386.246 85.7219 386.046 85.8101 385.834 85.8463C385.622 85.8826 385.404 85.8657 385.199 85.7973C384.943 85.7101 384.721 85.5449 384.563 85.3249C384.406 85.1048 384.321 84.8411 384.321 84.5705C384.321 84.3 384.406 84.0362 384.563 83.8162C384.721 83.5962 384.943 83.431 385.199 83.3437C385.404 83.2713 385.624 83.2515 385.838 83.2861C386.052 83.3206 386.255 83.4085 386.426 83.5416C386.654 83.7193 386.811 83.9715 386.871 84.2539C386.9 84.3542 386.9 84.4604 386.871 84.5606Z" fill="#263238"/>
<path d="M394.786 84.5104C394.786 84.5104 394.786 84.4016 394.717 84.2235C394.644 83.9658 394.483 83.7418 394.262 83.5903C394.105 83.4766 393.923 83.4034 393.732 83.3775C393.54 83.3516 393.345 83.3738 393.164 83.4419C393 83.494 392.85 83.5819 392.725 83.6991C392.599 83.8164 392.501 83.9601 392.438 84.1198C392.375 84.2795 392.348 84.4513 392.36 84.6227C392.371 84.794 392.421 84.9607 392.505 85.1105C392.589 85.2604 392.705 85.3897 392.845 85.4891C392.985 85.5884 393.146 85.6554 393.315 85.6851C393.484 85.7148 393.657 85.7064 393.823 85.6607C393.989 85.615 394.142 85.533 394.272 85.4206C394.487 85.2587 394.646 85.0339 394.727 84.7776C394.776 84.5896 394.776 84.4808 394.786 84.4808C394.812 84.5814 394.812 84.6868 394.786 84.7875C394.729 85.0715 394.576 85.3268 394.351 85.5097C394.162 85.6586 393.935 85.7519 393.695 85.7791C393.456 85.8063 393.214 85.7662 392.996 85.6635C392.779 85.5608 392.594 85.3994 392.462 85.1975C392.331 84.9956 392.259 84.7611 392.254 84.5203C392.253 84.2509 392.335 83.9878 392.489 83.7666C392.643 83.5454 392.861 83.3768 393.114 83.2836C393.317 83.2112 393.535 83.1913 393.748 83.2259C393.961 83.2605 394.162 83.3484 394.331 83.4815C394.564 83.6548 394.722 83.909 394.776 84.1938C394.81 84.2963 394.813 84.4061 394.786 84.5104Z" fill="#263238"/>
<path d="M397.348 73.3363C399.238 72.9283 400.44 71.0647 400.032 69.174C399.624 67.2833 397.76 66.0814 395.87 66.4895C393.979 66.8976 392.777 68.7611 393.185 70.6518C393.593 72.5425 395.457 73.7444 397.348 73.3363Z" fill="#8CC63F"/>
<path d="M397.042 68.5822V71.2435H396.419V69.0768H395.884V68.5822H397.042Z" fill="white"/>
<path d="M369.578 392.414H267.309C259.725 392.414 253.577 398.562 253.577 406.146V412.735C253.577 420.319 259.725 426.467 267.309 426.467H369.578C377.162 426.467 383.31 420.319 383.31 412.735V406.146C383.31 398.562 377.162 392.414 369.578 392.414Z" fill="#8CC63F"/>
<g opacity="0.3">
<path d="M369.578 392.414H267.309C259.725 392.414 253.577 398.562 253.577 406.146V412.735C253.577 420.319 259.725 426.467 267.309 426.467H369.578C377.162 426.467 383.31 420.319 383.31 412.735V406.146C383.31 398.562 377.162 392.414 369.578 392.414Z" fill="black"/>
</g>
<path d="M364.542 392.414H262.274C254.69 392.414 248.542 398.562 248.542 406.146V412.735C248.542 420.319 254.69 426.467 262.274 426.467H364.542C372.126 426.467 378.274 420.319 378.274 412.735V406.146C378.274 398.562 372.126 392.414 364.542 392.414Z" fill="#8CC63F"/>
<path d="M309.505 407.571C309.505 409.312 308.238 410.371 306.151 410.371H304.172V412.814H303.025V404.761H306.171C308.238 404.761 309.505 405.82 309.505 407.571ZM308.357 407.571C308.357 406.413 307.586 405.76 306.111 405.76H304.133V409.371H306.111C307.586 409.371 308.357 408.718 308.357 407.571Z" fill="white"/>
<path d="M315.926 410.796H311.681L310.801 412.775H309.614L313.264 404.721H314.402L318.053 412.775H316.846L315.926 410.796ZM315.52 409.876L313.789 405.919L312.047 409.876H315.52Z" fill="white"/>
<path d="M321.812 410.024V412.814H320.675V410.004L317.479 404.761H318.706L321.278 409.005L323.87 404.761H325.008L321.812 410.024Z" fill="white"/>
<path d="M279.211 271.536C279.504 269.639 279.419 267.702 278.961 265.838C278.503 263.974 277.681 262.219 276.541 260.674C275.402 259.129 273.968 257.825 272.323 256.837C270.677 255.848 268.852 255.195 266.953 254.915C266.744 254.833 266.514 254.816 266.295 254.865C266.075 254.914 265.875 255.028 265.721 255.192C265.567 255.356 265.465 255.562 265.429 255.784C265.393 256.006 265.424 256.234 265.519 256.438C265.865 260.138 267.375 263.632 269.831 266.419C272.288 269.206 275.565 271.143 279.191 271.951" fill="#455A64"/>
<path d="M258.821 298.396C262.491 305.965 267.725 311.06 274.304 311.307C275.61 311.307 276.599 310.496 277.846 310.417C278.575 310.582 279.278 310.849 279.933 311.208C280.282 311.356 280.654 311.439 281.032 311.456C287.779 311.09 293.537 306.341 297.415 298.396C302.807 287.266 301.145 275.315 293.695 271.684C292.715 271.195 291.691 270.798 290.638 270.497C289.435 270.161 288.186 270.014 286.938 270.061C284.032 270.246 281.173 270.891 278.469 271.971L278.103 272.109C272.048 269.428 267.22 269.418 262.521 271.684C255.071 275.315 253.419 287.266 258.821 298.396Z" fill="#8CC63F"/>
<path d="M258.949 287.128C258.6 286.43 258.392 285.67 258.336 284.892C258.115 283.01 258.342 281.102 258.999 279.324C259.656 277.546 260.723 275.949 262.115 274.662C262.658 274.101 263.312 273.66 264.035 273.366C264.084 273.435 263.342 273.92 262.363 274.919C261.101 276.226 260.123 277.779 259.491 279.482C258.86 281.185 258.588 283 258.692 284.813C258.791 286.247 259.038 287.098 258.949 287.128Z" fill="#FAFAFA"/>
<path d="M260.315 292.411C260.176 292.411 259.939 291.917 259.781 291.244C259.622 290.571 259.612 289.987 259.781 289.948C259.949 289.908 260.156 290.443 260.315 291.125C260.473 291.808 260.453 292.382 260.315 292.411Z" fill="#FAFAFA"/>
<path d="M294.615 253.323C294.615 253.422 293.21 253.956 291.113 255.212C289.89 255.954 288.723 256.784 287.621 257.696C286.303 258.836 285.085 260.087 283.98 261.435C282.866 262.797 281.873 264.254 281.012 265.788C280.335 267.046 279.753 268.352 279.27 269.696C278.449 272.011 278.212 273.515 278.113 273.495C278.106 273.136 278.146 272.776 278.232 272.427C278.285 272.009 278.368 271.596 278.479 271.19C278.6 270.649 278.749 270.114 278.924 269.588C279.36 268.198 279.92 266.85 280.596 265.561C282.261 262.395 284.549 259.598 287.324 257.339C288.446 256.428 289.644 255.614 290.905 254.906C291.389 254.628 291.888 254.377 292.399 254.154C292.775 253.967 293.162 253.802 293.557 253.659C293.895 253.506 294.25 253.393 294.615 253.323Z" fill="#263238"/>
<path d="M386.238 149.788C380.193 141.359 367.362 135.581 356.934 137.134C348.485 138.391 341.005 142.318 336.91 150.708C336.637 151.256 336.501 151.861 336.511 152.473C336.522 153.084 336.679 153.685 336.97 154.223C337.261 154.761 337.677 155.221 338.183 155.565C338.689 155.909 339.27 156.126 339.878 156.199C353.955 157.879 368.185 157.833 382.251 156.06C384.428 155.783 387 155.18 387.148 152.499C387.162 151.518 386.841 150.562 386.238 149.788Z" fill="#8CC63F"/>
<path d="M352.858 149.371C352.809 149.371 352.373 148.986 351.799 148.194C351.035 147.146 350.49 145.955 350.197 144.692C349.949 143.435 349.843 142.154 349.88 140.873C349.842 140.342 349.886 139.808 350.009 139.29C350.176 139.794 350.257 140.322 350.246 140.853C350.317 142.102 350.469 143.344 350.701 144.573C350.986 145.781 351.46 146.936 352.106 147.996C352.415 148.421 352.667 148.883 352.858 149.371Z" fill="#263238"/>
<path d="M361.821 148.956C361.663 148.956 361.881 146.562 361.574 143.653C361.267 140.744 360.585 138.459 360.713 138.41C361.513 140.028 361.978 141.791 362.079 143.594C362.35 145.38 362.262 147.203 361.821 148.956Z" fill="#263238"/>
<path d="M371.042 147.591C370.904 147.532 371.596 145.929 371.764 143.832C371.933 141.734 371.547 140.043 371.695 140.013C372.193 141.238 372.393 142.563 372.279 143.881C372.166 145.198 371.742 146.469 371.042 147.591Z" fill="#263238"/>
<g opacity="0.3">
<path d="M360.248 137.679C359.324 139.371 358.97 141.317 359.237 143.227C359.504 145.137 360.379 146.91 361.732 148.284C362.608 144.689 362.077 140.895 360.248 137.679Z" fill="black"/>
</g>
<g opacity="0.3">
<path d="M351.641 147.888C350.682 146.147 350.108 144.221 349.959 142.239C349.97 141.364 349.843 140.493 349.583 139.657C348.543 140.951 348.03 142.591 348.149 144.247C348.289 145.988 349.106 147.603 350.424 148.749C350.621 148.933 350.858 149.068 351.117 149.145C351.247 149.176 351.384 149.168 351.509 149.12C351.635 149.072 351.743 148.988 351.819 148.877C351.997 148.571 351.819 148.195 351.641 147.888Z" fill="black"/>
</g>
<g opacity="0.3">
<path d="M371.883 140.795C371.849 140.449 371.748 140.113 371.586 139.805C371.503 139.656 371.379 139.533 371.228 139.453C371.077 139.372 370.906 139.336 370.735 139.35C370.27 139.43 370.043 139.954 369.904 140.409C369.126 142.361 368.89 144.487 369.222 146.563C369.33 147.028 369.637 147.552 370.122 147.552C370.607 147.552 370.735 147.156 370.904 146.83C371.853 144.97 372.195 142.859 371.883 140.795Z" fill="black"/>
</g>
<path d="M252.019 205V202.43H251.239V201.79H252.019V200.97H251.239V200.33H252.019V197.86H253.059L254.009 200.33H255.189V197.86H255.979V200.33H256.759V200.97H255.979V201.79H256.759V202.43H255.979V205H254.929L253.979 202.43H252.799V205H252.019ZM252.799 201.79H253.739L253.439 200.97H252.779L252.799 201.79ZM255.189 203.59H255.229L255.199 202.43H254.779L255.189 203.59ZM252.779 200.33H253.199L252.779 199.09H252.739L252.779 200.33ZM254.539 201.79H255.209L255.189 200.97H254.239L254.539 201.79Z" fill="#263238"/>
<path d="M263.098 203.448V204.359H258.814V203.636L261.12 201.45C261.684 200.906 261.782 200.569 261.782 200.243C261.782 199.719 261.416 199.412 260.704 199.412C260.447 199.398 260.189 199.446 259.954 199.551C259.718 199.656 259.511 199.815 259.349 200.015L258.597 199.432C258.86 199.106 259.196 198.847 259.577 198.675C259.959 198.504 260.375 198.424 260.793 198.442C262.06 198.442 262.871 199.076 262.871 200.104C262.859 200.465 262.764 200.819 262.592 201.136C262.421 201.454 262.177 201.727 261.881 201.935L260.328 203.419L263.098 203.448Z" fill="#263238"/>
<path d="M265.127 203.725C265.111 203.973 265.047 204.215 264.939 204.438L264.513 205.605H263.84L264.177 204.339C264.056 204.29 263.952 204.205 263.882 204.095C263.811 203.985 263.776 203.856 263.781 203.725C263.781 203.547 263.852 203.376 263.978 203.25C264.104 203.124 264.275 203.053 264.454 203.053C264.632 203.053 264.803 203.124 264.93 203.25C265.056 203.376 265.127 203.547 265.127 203.725Z" fill="#263238"/>
<path d="M270.113 203.448V204.358H265.829V203.636L268.134 201.45C268.698 200.906 268.797 200.569 268.797 200.243C268.797 199.718 268.431 199.412 267.719 199.412C267.461 199.398 267.204 199.446 266.969 199.55C266.733 199.655 266.526 199.815 266.363 200.015L265.611 199.431C265.875 199.105 266.213 198.845 266.596 198.673C266.98 198.501 267.398 198.422 267.818 198.442C269.074 198.442 269.885 199.075 269.885 200.104C269.874 200.465 269.779 200.818 269.607 201.136C269.435 201.454 269.192 201.727 268.896 201.934L267.343 203.418L270.113 203.448Z" fill="#263238"/>
<path d="M274.951 202.578C274.951 203.567 274.219 204.438 272.655 204.438C271.876 204.454 271.113 204.218 270.479 203.765L270.934 202.934C271.422 203.307 272.021 203.505 272.636 203.498C273.407 203.498 273.862 203.161 273.862 202.617C273.862 202.073 273.506 201.707 272.309 201.707H270.904L271.211 198.551H274.614V199.461H272.121L271.993 200.797H272.547C274.268 200.797 274.951 201.549 274.951 202.578Z" fill="#263238"/>
<path d="M279.951 202.578C279.951 203.567 279.219 204.438 277.655 204.438C276.876 204.454 276.113 204.218 275.479 203.765L275.934 202.934C276.422 203.307 277.021 203.505 277.636 203.498C278.407 203.498 278.862 203.161 278.862 202.617C278.862 202.073 278.506 201.707 277.309 201.707H275.904L276.211 198.551H279.614V199.461H277.121L276.993 200.797H277.547C279.268 200.797 279.951 201.549 279.951 202.578Z" fill="#263238"/>
<path d="M300.472 211.463C300.472 211.611 289.837 211.72 276.728 211.72C263.619 211.72 252.984 211.611 252.984 211.463C252.984 211.315 263.619 211.206 276.728 211.206C289.837 211.206 300.472 211.325 300.472 211.463Z" fill="#263238"/>
<path d="M275.076 215.332C275.076 215.481 270.129 215.59 264.045 215.59C257.96 215.59 253.003 215.481 253.003 215.332C253.003 215.184 257.95 215.075 264.045 215.075C270.139 215.075 275.076 215.194 275.076 215.332Z" fill="#263238"/>
<path d="M338.019 181V178.43H337.239V177.79H338.019V176.97H337.239V176.33H338.019V173.86H339.059L340.009 176.33H341.189V173.86H341.979V176.33H342.759V176.97H341.979V177.79H342.759V178.43H341.979V181H340.929L339.979 178.43H338.799V181H338.019ZM338.799 177.79H339.739L339.439 176.97H338.779L338.799 177.79ZM341.189 179.59H341.229L341.199 178.43H340.779L341.189 179.59ZM338.779 176.33H339.199L338.779 175.09H338.739L338.779 176.33ZM340.539 177.79H341.209L341.189 176.97H340.239L340.539 177.79Z" fill="#263238"/>
<path d="M349.098 179.448V180.359H344.814V179.636L347.12 177.45C347.684 176.906 347.782 176.569 347.782 176.243C347.782 175.719 347.416 175.412 346.704 175.412C346.447 175.398 346.189 175.446 345.954 175.551C345.718 175.656 345.511 175.815 345.349 176.015L344.597 175.432C344.86 175.106 345.196 174.847 345.577 174.675C345.959 174.504 346.375 174.424 346.793 174.442C348.06 174.442 348.871 175.076 348.871 176.104C348.859 176.465 348.764 176.819 348.592 177.136C348.421 177.454 348.177 177.727 347.881 177.935L346.328 179.419L349.098 179.448Z" fill="#263238"/>
<path d="M351.127 179.725C351.111 179.973 351.047 180.215 350.939 180.438L350.513 181.605H349.84L350.177 180.339C350.056 180.29 349.952 180.205 349.882 180.095C349.811 179.985 349.776 179.856 349.781 179.725C349.781 179.547 349.852 179.376 349.978 179.25C350.104 179.124 350.275 179.053 350.454 179.053C350.632 179.053 350.803 179.124 350.93 179.25C351.056 179.376 351.127 179.547 351.127 179.725Z" fill="#263238"/>
<path d="M356.113 179.448V180.358H351.829V179.636L354.134 177.45C354.698 176.906 354.797 176.569 354.797 176.243C354.797 175.718 354.431 175.412 353.719 175.412C353.461 175.398 353.204 175.446 352.969 175.55C352.733 175.655 352.526 175.815 352.363 176.015L351.611 175.431C351.875 175.105 352.213 174.845 352.596 174.673C352.98 174.501 353.398 174.422 353.818 174.442C355.074 174.442 355.885 175.075 355.885 176.104C355.874 176.465 355.779 176.818 355.607 177.136C355.435 177.454 355.192 177.727 354.896 177.934L353.343 179.418L356.113 179.448Z" fill="#263238"/>
<path d="M360.951 178.578C360.951 179.567 360.219 180.438 358.655 180.438C357.876 180.454 357.113 180.218 356.479 179.765L356.934 178.934C357.422 179.307 358.021 179.505 358.636 179.498C359.407 179.498 359.862 179.161 359.862 178.617C359.862 178.073 359.506 177.707 358.309 177.707H356.904L357.211 174.551H360.614V175.461H358.121L357.993 176.797H358.547C360.268 176.797 360.951 177.549 360.951 178.578Z" fill="#263238"/>
<path d="M365.951 178.578C365.951 179.567 365.219 180.438 363.655 180.438C362.876 180.454 362.113 180.218 361.479 179.765L361.934 178.934C362.422 179.307 363.021 179.505 363.636 179.498C364.407 179.498 364.862 179.161 364.862 178.617C364.862 178.073 364.506 177.707 363.309 177.707H361.904L362.211 174.551H365.614V175.461H363.121L362.993 176.797H363.547C365.268 176.797 365.951 177.549 365.951 178.578Z" fill="#263238"/>
<path d="M383.745 187.749C383.745 187.887 373.11 188.006 360.001 188.006C346.892 188.006 336.257 187.887 336.257 187.749C336.257 187.61 346.902 187.491 360.001 187.491C373.1 187.491 383.745 187.61 383.745 187.749Z" fill="#263238"/>
<path d="M358.368 191.617C358.368 191.755 353.422 191.874 347.327 191.874C341.233 191.874 336.296 191.755 336.296 191.617C336.296 191.478 341.243 191.359 347.327 191.359C353.412 191.359 358.368 191.478 358.368 191.617Z" fill="#263238"/>
<path d="M251.019 325V322.43H250.239V321.79H251.019V320.97H250.239V320.33H251.019V317.86H252.059L253.009 320.33H254.189V317.86H254.979V320.33H255.759V320.97H254.979V321.79H255.759V322.43H254.979V325H253.929L252.979 322.43H251.799V325H251.019ZM251.799 321.79H252.739L252.439 320.97H251.779L251.799 321.79ZM254.189 323.59H254.229L254.199 322.43H253.779L254.189 323.59ZM251.779 320.33H252.199L251.779 319.09H251.739L251.779 320.33ZM253.539 321.79H254.209L254.189 320.97H253.239L253.539 321.79Z" fill="#263238"/>
<path d="M262.098 323.448V324.359H257.814V323.636L260.12 321.45C260.684 320.906 260.782 320.569 260.782 320.243C260.782 319.719 260.416 319.412 259.704 319.412C259.447 319.398 259.189 319.446 258.954 319.551C258.718 319.656 258.511 319.815 258.349 320.015L257.597 319.432C257.86 319.106 258.196 318.847 258.577 318.675C258.959 318.504 259.375 318.424 259.793 318.442C261.06 318.442 261.871 319.076 261.871 320.104C261.859 320.465 261.764 320.819 261.592 321.136C261.421 321.454 261.177 321.727 260.881 321.935L259.328 323.419L262.098 323.448Z" fill="#263238"/>
<path d="M264.127 323.725C264.111 323.973 264.047 324.215 263.939 324.438L263.513 325.605H262.84L263.177 324.339C263.056 324.29 262.952 324.205 262.882 324.095C262.811 323.985 262.776 323.856 262.781 323.725C262.781 323.547 262.852 323.376 262.978 323.25C263.104 323.124 263.275 323.053 263.454 323.053C263.632 323.053 263.803 323.124 263.93 323.25C264.056 323.376 264.127 323.547 264.127 323.725Z" fill="#263238"/>
<path d="M269.113 323.448V324.358H264.829V323.636L267.134 321.45C267.698 320.906 267.797 320.569 267.797 320.243C267.797 319.718 267.431 319.412 266.719 319.412C266.461 319.398 266.204 319.446 265.969 319.55C265.733 319.655 265.526 319.815 265.363 320.015L264.611 319.431C264.875 319.105 265.213 318.845 265.596 318.673C265.98 318.501 266.398 318.422 266.818 318.442C268.074 318.442 268.885 319.075 268.885 320.104C268.874 320.465 268.779 320.818 268.607 321.136C268.435 321.454 268.192 321.727 267.896 321.934L266.343 323.418L269.113 323.448Z" fill="#263238"/>
<path d="M273.951 322.578C273.951 323.567 273.219 324.438 271.655 324.438C270.876 324.454 270.113 324.218 269.479 323.765L269.934 322.934C270.422 323.307 271.021 323.505 271.636 323.498C272.407 323.498 272.862 323.161 272.862 322.617C272.862 322.073 272.506 321.707 271.309 321.707H269.904L270.211 318.551H273.614V319.461H271.121L270.993 320.797H271.547C273.268 320.797 273.951 321.549 273.951 322.578Z" fill="#263238"/>
<path d="M278.951 322.578C278.951 323.567 278.219 324.438 276.655 324.438C275.876 324.454 275.113 324.218 274.479 323.765L274.934 322.934C275.422 323.307 276.021 323.505 276.636 323.498C277.407 323.498 277.862 323.161 277.862 322.617C277.862 322.073 277.506 321.707 276.309 321.707H274.904L275.211 318.551H278.614V319.461H276.121L275.993 320.797H276.547C278.268 320.797 278.951 321.549 278.951 322.578Z" fill="#263238"/>
<path d="M298.583 331.876C298.583 332.014 287.937 332.133 274.838 332.133C261.739 332.133 251.094 332.014 251.094 331.876C251.094 331.737 261.729 331.619 274.838 331.619C287.947 331.619 298.583 331.727 298.583 331.876Z" fill="#263238"/>
<path d="M273.196 335.745C273.196 335.883 268.249 336.002 262.165 336.002C256.08 336.002 251.134 335.883 251.134 335.745C251.134 335.606 256.08 335.488 262.165 335.488C268.249 335.488 273.196 335.596 273.196 335.745Z" fill="#263238"/>
<path d="M332.019 294V291.43H331.239V290.79H332.019V289.97H331.239V289.33H332.019V286.86H333.059L334.009 289.33H335.189V286.86H335.979V289.33H336.759V289.97H335.979V290.79H336.759V291.43H335.979V294H334.929L333.979 291.43H332.799V294H332.019ZM332.799 290.79H333.739L333.439 289.97H332.779L332.799 290.79ZM335.189 292.59H335.229L335.199 291.43H334.779L335.189 292.59ZM332.779 289.33H333.199L332.779 288.09H332.739L332.779 289.33ZM334.539 290.79H335.209L335.189 289.97H334.239L334.539 290.79Z" fill="#263238"/>
<path d="M343.098 292.448V293.359H338.814V292.636L341.12 290.45C341.684 289.906 341.782 289.569 341.782 289.243C341.782 288.719 341.416 288.412 340.704 288.412C340.447 288.398 340.189 288.446 339.954 288.551C339.718 288.656 339.511 288.815 339.349 289.015L338.597 288.432C338.86 288.106 339.196 287.847 339.577 287.675C339.959 287.504 340.375 287.424 340.793 287.442C342.06 287.442 342.871 288.076 342.871 289.104C342.859 289.465 342.764 289.819 342.592 290.136C342.421 290.454 342.177 290.727 341.881 290.935L340.328 292.419L343.098 292.448Z" fill="#263238"/>
<path d="M345.127 292.725C345.111 292.973 345.047 293.215 344.939 293.438L344.513 294.605H343.84L344.177 293.339C344.056 293.29 343.952 293.205 343.882 293.095C343.811 292.985 343.776 292.856 343.781 292.725C343.781 292.547 343.852 292.376 343.978 292.25C344.104 292.124 344.275 292.053 344.454 292.053C344.632 292.053 344.803 292.124 344.93 292.25C345.056 292.376 345.127 292.547 345.127 292.725Z" fill="#263238"/>
<path d="M350.113 292.448V293.358H345.829V292.636L348.134 290.45C348.698 289.906 348.797 289.569 348.797 289.243C348.797 288.718 348.431 288.412 347.719 288.412C347.461 288.398 347.204 288.446 346.969 288.55C346.733 288.655 346.526 288.815 346.363 289.015L345.611 288.431C345.875 288.105 346.213 287.845 346.596 287.673C346.98 287.501 347.398 287.422 347.818 287.442C349.074 287.442 349.885 288.075 349.885 289.104C349.874 289.465 349.779 289.818 349.607 290.136C349.435 290.454 349.192 290.727 348.896 290.934L347.343 292.418L350.113 292.448Z" fill="#263238"/>
<path d="M354.951 291.578C354.951 292.567 354.219 293.438 352.655 293.438C351.876 293.454 351.113 293.218 350.479 292.765L350.934 291.934C351.422 292.307 352.021 292.505 352.636 292.498C353.407 292.498 353.862 292.161 353.862 291.617C353.862 291.073 353.506 290.707 352.309 290.707H350.904L351.211 287.551H354.614V288.461H352.121L351.993 289.797H352.547C354.268 289.797 354.951 290.549 354.951 291.578Z" fill="#263238"/>
<path d="M359.951 291.578C359.951 292.567 359.219 293.438 357.655 293.438C356.876 293.454 356.113 293.218 355.479 292.765L355.934 291.934C356.422 292.307 357.021 292.505 357.636 292.498C358.407 292.498 358.862 292.161 358.862 291.617C358.862 291.073 358.506 290.707 357.309 290.707H355.904L356.211 287.551H359.614V288.461H357.121L356.993 289.797H357.547C359.268 289.797 359.951 290.549 359.951 291.578Z" fill="#263238"/>
<path d="M379.946 300.484C379.946 300.622 369.301 300.741 356.202 300.741C343.103 300.741 332.458 300.622 332.458 300.484C332.458 300.345 343.093 300.217 356.202 300.217C369.311 300.217 379.946 300.336 379.946 300.484Z" fill="#263238"/>
<path d="M354.51 304.352C354.51 304.491 349.563 304.61 343.479 304.61C337.394 304.61 332.448 304.491 332.448 304.352C332.448 304.214 337.394 304.085 343.479 304.085C349.563 304.085 354.51 304.204 354.51 304.352Z" fill="#263238"/>
<path d="M344.092 78.7331C344.092 78.8716 332.626 78.9903 318.488 78.9903C304.35 78.9903 292.874 78.8716 292.874 78.7331C292.874 78.5946 304.341 78.4758 318.488 78.4758C332.636 78.4758 344.092 78.5847 344.092 78.7331Z" fill="#8CC63F"/>
<path d="M10.5255 385.944C8.99492 386.006 7.52953 386.58 6.3637 387.574C5.19787 388.567 4.39896 389.923 4.09475 391.425C3.45184 393.838 2.94646 396.285 2.58105 398.756C2.58105 398.756 -3.22639 403.979 2.58105 405.374C8.3885 406.769 10.4958 398.944 10.4958 398.944L11.3862 385.904L10.5255 385.944Z" fill="#FFBE9D"/>
<path d="M68.6791 285.971C68.6791 285.971 86.8236 225.037 88.6737 222.416C91.7209 218.072 121.094 205.013 121.094 205.013L129.009 188.946L177.794 181.101L189.893 196.673L223.897 221.664L221.523 307.855L220.256 368.037L226.697 443.168L72.2605 442.881L79.2453 427.051L86.5763 290.403L68.6791 285.971Z" fill="#8CC63F" fill-opacity="0.47"/>
<path d="M89.6037 277.749C89.5587 277.588 89.5387 277.421 89.5443 277.254C89.5443 276.869 89.5443 276.404 89.4652 275.84C89.4652 274.613 89.3563 272.872 89.3168 270.646C89.2376 266.253 89.2376 260.188 89.4256 253.49C89.6136 246.793 89.9697 240.738 90.3061 236.355C90.4644 234.168 90.6227 232.398 90.7513 231.181L90.8997 229.776C90.9147 229.612 90.9445 229.45 90.9888 229.291C91.0168 229.455 91.0168 229.622 90.9888 229.786C90.9888 230.162 90.9888 230.627 90.9294 231.191C90.8601 232.497 90.7612 234.248 90.6425 236.385C90.405 240.767 90.1082 246.812 89.9203 253.51C89.7323 260.208 89.6729 266.253 89.663 270.646C89.663 272.783 89.663 274.534 89.663 275.84C89.663 276.404 89.663 276.829 89.663 277.254C89.6669 277.421 89.6469 277.588 89.6037 277.749Z" fill="#263238"/>
<g opacity="0.3">
<path d="M124.587 260.247C124.55 259.565 124.749 258.891 125.151 258.338C125.828 257.508 126.757 256.92 127.797 256.663C128.837 256.406 129.933 256.494 130.919 256.913C133.501 258.15 134.787 261.118 135.311 263.938C135.875 267.024 135.796 270.21 136.38 273.297C136.964 276.384 138.359 279.53 141.079 281.123C144.433 283.101 148.836 282.211 152.358 283.873C157.601 286.336 158.818 293.153 159.085 298.951C159.58 309.922 159.085 320.904 158.63 331.876L155.603 401.941L152.843 437.093L138.636 443.128L119.838 319.608L124.587 260.247Z" fill="black"/>
</g>
<path d="M128.653 250.235C128.546 250.326 128.422 250.394 128.287 250.433C127.901 250.571 127.486 250.612 127.08 250.552C126.337 250.42 125.643 250.088 125.075 249.591C124.507 249.094 124.085 248.451 123.855 247.732C123.55 246.747 123.452 245.709 123.568 244.685C123.699 243.538 123.89 242.398 124.142 241.272C124.617 238.877 125.131 236.266 125.685 233.525C126.793 228.034 127.822 223.068 128.594 219.476L129.583 215.232C129.679 214.708 129.814 214.192 129.989 213.689C129.968 214.222 129.899 214.752 129.781 215.272C129.573 216.37 129.316 217.814 128.999 219.556C128.317 223.157 127.337 228.133 126.229 233.624C125.665 236.364 125.131 238.976 124.646 241.361C124.161 243.745 123.657 245.902 124.241 247.623C124.44 248.295 124.815 248.902 125.326 249.382C125.837 249.862 126.466 250.197 127.149 250.354C127.653 250.426 128.167 250.385 128.653 250.235Z" fill="#263238"/>
<path d="M133.659 227.313C133.659 227.362 133.254 227.362 132.581 227.57C131.637 227.882 130.807 228.467 130.196 229.252C129.737 229.809 129.429 230.474 129.301 231.184C129.173 231.894 129.229 232.626 129.464 233.308C129.723 234.154 130.23 234.904 130.92 235.458C131.61 236.013 132.451 236.347 133.333 236.417C134.216 236.488 135.099 236.291 135.868 235.853C136.637 235.415 137.257 234.756 137.646 233.961C137.987 233.326 138.159 232.613 138.145 231.893C138.131 231.172 137.932 230.467 137.567 229.845C137.092 228.971 136.364 228.261 135.48 227.807C134.846 227.491 134.49 227.431 134.49 227.382C134.49 227.332 134.589 227.382 134.777 227.382C135.057 227.419 135.33 227.496 135.588 227.609C136.563 228.019 137.379 228.734 137.913 229.647C138.292 230.277 138.525 230.984 138.596 231.715C138.674 232.564 138.502 233.417 138.101 234.169C137.677 235.058 136.993 235.797 136.14 236.289C135.286 236.781 134.304 237.002 133.322 236.924C132.34 236.846 131.405 236.472 130.64 235.851C129.875 235.23 129.317 234.391 129.039 233.446C128.761 232.64 128.726 231.769 128.94 230.943C129.169 230.08 129.624 229.294 130.259 228.666C130.894 228.038 131.685 227.591 132.551 227.372C132.825 227.299 133.108 227.266 133.392 227.273C133.483 227.27 133.573 227.284 133.659 227.313Z" fill="#263238"/>
<path d="M150.27 290.304L61.0711 274.158L19.4297 283.299L112.606 300.069L150.27 290.304Z" fill="#8CC63F"/>
<g opacity="0.6">
<path d="M150.27 290.304L61.0711 274.158L19.4297 283.299L112.606 300.069L150.27 290.304Z" fill="black"/>
</g>
<path d="M93.2346 329.206C94.4416 312.763 98.953 271.003 102.337 254.866C103.326 250.038 104.513 245.101 107.283 241.016C110.053 236.93 114.941 233.942 119.808 234.694C124.161 235.366 127.664 238.898 129.425 242.935C131.145 247.019 131.913 251.441 131.671 255.866C130.83 275.811 129.108 298.15 129.128 316.641" fill="#455A64"/>
<path d="M123.439 290.047C122.357 290.453 121.254 290.803 120.135 291.096C114.81 292.741 109.715 295.051 104.968 297.972C104.011 298.624 103.021 299.225 102 299.772C102 299.772 102.228 299.525 102.703 299.149C103.177 298.773 103.88 298.268 104.77 297.665C107.108 296.113 109.566 294.75 112.121 293.589C114.677 292.427 117.324 291.477 120.036 290.749C121.075 290.472 121.925 290.274 122.509 290.166C122.813 290.086 123.125 290.046 123.439 290.047Z" fill="#263238"/>
<path d="M124.923 271.071C124.923 271.15 123.588 271.447 121.451 272.11C115.873 273.824 110.662 276.562 106.086 280.183C104.335 281.568 103.316 282.518 103.257 282.459C103.442 282.187 103.657 281.938 103.9 281.717C104.335 281.262 104.998 280.638 105.878 279.906C108.117 277.991 110.563 276.332 113.17 274.959C115.777 273.59 118.528 272.512 121.372 271.744C122.228 271.504 123.097 271.309 123.974 271.16C124.284 271.082 124.604 271.052 124.923 271.071Z" fill="#263238"/>
<path d="M122.925 255.795C122.925 255.884 121.866 255.934 120.194 256.241C118.02 256.644 115.913 257.346 113.932 258.328C111.956 259.32 110.125 260.579 108.49 262.068C107.234 263.215 106.512 264.046 106.512 263.977C106.512 263.908 106.63 263.73 106.917 263.344C107.324 262.798 107.771 262.282 108.253 261.801C111.455 258.577 115.625 256.492 120.125 255.865C120.8 255.771 121.481 255.725 122.163 255.726C122.658 255.736 122.915 255.756 122.925 255.795Z" fill="#263238"/>
<path d="M111.834 303.364C111.83 303.394 111.83 303.424 111.834 303.453V360.538C111.834 363.041 109.856 365.624 106.106 367.583C102.356 369.541 97.0039 370.877 90.2764 370.887H90.1874C76.6828 370.887 68.6098 365.554 68.6098 360.538V303.453C68.6122 303.424 68.6122 303.394 68.6098 303.364C68.6098 303.364 68.6098 303.295 68.6098 303.255C68.6098 297.676 72.7354 291.848 76.8708 286.09C79.641 282.252 80.3038 276.711 80.4325 273.466C80.4325 273.071 80.4325 272.724 80.4325 272.408H80.0565C79.6634 272.441 79.2675 272.396 78.8919 272.275C78.5164 272.154 78.1687 271.96 77.8694 271.703C77.57 271.446 77.3248 271.131 77.1483 270.779C76.9717 270.426 76.8673 270.041 76.8411 269.647V267.233C76.8648 266.838 76.9674 266.451 77.1428 266.096C77.3182 265.741 77.563 265.425 77.8626 265.165C78.1623 264.906 78.5108 264.71 78.8876 264.588C79.2644 264.465 79.6618 264.42 80.0565 264.453H100.338C100.941 264.434 101.537 264.581 102.061 264.88C102.585 265.179 103.016 265.617 103.306 266.145C103.468 266.485 103.553 266.857 103.553 267.233V269.647C103.527 270.042 103.423 270.427 103.245 270.781C103.068 271.135 102.822 271.449 102.522 271.706C102.221 271.964 101.872 272.158 101.496 272.278C101.119 272.399 100.722 272.443 100.328 272.408H99.9621C99.9621 272.724 99.9621 273.071 99.9621 273.466C100.091 276.711 100.754 282.252 103.534 286.09C107.659 291.848 111.765 297.676 111.795 303.255C111.834 303.295 111.834 303.344 111.834 303.364Z" fill="#FAFAFA"/>
<path d="M111.834 303.363C111.847 303.169 111.847 302.974 111.834 302.78C111.798 302.209 111.729 301.641 111.626 301.078C111.152 298.907 110.355 296.82 109.262 294.885C107.506 291.812 105.556 288.855 103.425 286.03C102.165 284.166 101.266 282.082 100.773 279.886C100.187 277.439 99.8814 274.933 99.8632 272.417V272.239H100.041C100.791 272.289 101.539 272.113 102.188 271.734C102.514 271.545 102.795 271.287 103.011 270.977C103.226 270.668 103.371 270.315 103.435 269.943C103.435 269.181 103.435 268.321 103.435 267.5C103.469 267.103 103.407 266.705 103.253 266.338C103.1 265.971 102.86 265.646 102.554 265.392C101.908 264.868 101.09 264.6 100.259 264.64H92.0474H80.3633C79.8836 264.598 79.4005 264.659 78.9464 264.82C78.4924 264.98 78.0782 265.236 77.7316 265.57C77.4012 265.914 77.1808 266.348 77.0984 266.817C77.0728 267.321 77.0728 267.826 77.0984 268.331C77.0984 268.835 77.0984 269.409 77.0984 269.874C77.1682 270.355 77.3821 270.803 77.7118 271.16C78.0652 271.52 78.495 271.796 78.9694 271.967C79.4438 272.138 79.9506 272.201 80.4523 272.15H80.6898V272.397C80.6735 274.725 80.4216 277.045 79.9379 279.322C79.4579 281.692 78.5312 283.948 77.2073 285.971C75.8123 287.949 74.3778 289.928 73.052 292.025C71.6801 294.109 70.5515 296.343 69.6883 298.684C69.2686 299.872 68.9993 301.109 68.8869 302.364C68.8176 303.601 68.8869 304.926 68.8869 306.213V330.254C68.8869 339.86 68.8869 349.249 68.8869 358.311C68.8333 359.419 68.8863 360.529 69.0452 361.626C69.3233 362.67 69.8571 363.629 70.5985 364.416C72.09 366.001 73.9007 367.252 75.9112 368.086C77.885 368.913 79.9413 369.526 82.0452 369.916C84.1056 370.306 86.1924 370.541 88.2879 370.619C92.3233 370.824 96.3673 370.455 100.299 369.521C102.176 369.063 103.998 368.399 105.73 367.542C107.407 366.743 108.907 365.616 110.142 364.228C110.72 363.547 111.16 362.761 111.439 361.913C111.646 361.055 111.72 360.171 111.656 359.291V354.028C111.656 350.595 111.656 347.29 111.656 344.134C111.656 331.55 111.716 321.379 111.735 314.296C111.755 307.212 111.824 303.353 111.824 303.353C111.854 303.593 111.854 303.836 111.824 304.076C111.824 304.57 111.824 305.273 111.824 306.183C111.824 308.053 111.824 310.783 111.824 314.296C111.824 321.359 111.824 331.55 111.904 344.134C111.904 347.28 111.904 350.585 111.904 354.028V360.636C111.891 361.109 111.818 361.578 111.686 362.031C111.394 362.935 110.927 363.772 110.311 364.495C109.045 365.935 107.5 367.103 105.77 367.928C104.01 368.785 102.162 369.449 100.259 369.907C96.3351 370.846 92.299 371.233 88.2681 371.054C86.1493 370.981 84.0393 370.746 81.9561 370.352C79.8155 369.953 77.723 369.33 75.7134 368.492C73.6309 367.653 71.7545 366.374 70.2126 364.742C69.4148 363.909 68.8398 362.888 68.5406 361.774C68.3642 360.639 68.3045 359.489 68.3625 358.341V306.232C68.3625 304.926 68.3625 303.66 68.3625 302.344C68.4824 301.049 68.7615 299.773 69.1936 298.545C70.07 296.165 71.2187 293.894 72.6167 291.778C73.9424 289.671 75.3968 287.682 76.7917 285.713C78.0713 283.735 78.9673 281.533 79.4333 279.223C79.9103 276.985 80.1654 274.705 80.1951 272.417L80.4226 272.644C79.8575 272.694 79.2883 272.618 78.7562 272.422C78.2241 272.225 77.7423 271.912 77.3458 271.506C76.9507 271.083 76.6982 270.547 76.6236 269.973C76.6236 269.389 76.6236 268.904 76.6236 268.37C76.5945 267.84 76.5945 267.308 76.6236 266.777C76.7262 266.222 76.9913 265.709 77.3854 265.303C77.7762 264.925 78.2429 264.634 78.7545 264.45C79.2662 264.266 79.8112 264.192 80.3534 264.235H92.0375H100.2C101.119 264.201 102.02 264.503 102.732 265.086C103.077 265.376 103.347 265.745 103.519 266.162C103.692 266.579 103.761 267.031 103.722 267.48C103.722 268.331 103.722 269.112 103.722 269.973C103.652 270.395 103.491 270.797 103.248 271.149C103.005 271.502 102.687 271.796 102.317 272.011C101.61 272.421 100.796 272.607 99.9819 272.545L100.14 272.387C100.229 277.601 101.238 282.429 103.593 285.852C105.71 288.691 107.64 291.666 109.371 294.756C110.458 296.711 111.232 298.824 111.666 301.019C111.761 301.604 111.818 302.196 111.834 302.789C111.869 302.979 111.869 303.174 111.834 303.363Z" fill="#263238"/>
<path d="M98.854 272.268C95.854 272.529 92.8413 272.615 89.8312 272.525C86.8179 272.615 83.8019 272.529 80.7985 272.268C83.8022 272.013 86.8179 271.928 89.8312 272.011C92.8413 271.927 95.8536 272.013 98.854 272.268Z" fill="#263238"/>
<path d="M110.034 310.991C108.213 309.804 105.809 310.329 103.85 311.258C101.891 312.188 100.041 313.485 97.9141 313.821C95.4111 314.227 92.8882 313.227 90.6622 311.971C88.4362 310.714 86.3289 309.161 83.9347 308.3C81.6126 307.516 79.1169 307.398 76.7313 307.961C74.3457 308.524 72.1661 309.746 70.4401 311.486V360.498C70.4401 360.498 73.1311 368.858 92.0869 367.552C111.043 366.246 109.549 357.866 109.549 357.866L110.034 310.991Z" fill="#8CC63F"/>
<path d="M59.8145 277.631C60.0949 275.822 60.0139 273.975 59.5762 272.197C59.1384 270.42 58.3527 268.747 57.2643 267.275C56.176 265.803 54.8066 264.561 53.2354 263.622C51.6642 262.682 49.9224 262.063 48.1106 261.801C47.7786 261.715 47.4267 261.754 47.1212 261.91C46.7156 262.187 46.7057 262.771 46.7453 263.255C47.0767 266.791 48.5187 270.131 50.8646 272.797C53.2105 275.463 56.3399 277.317 59.8046 278.096" fill="#455A64"/>
<path d="M40.3542 303.264C43.8565 310.486 48.8922 315.354 55.135 315.591C56.3815 315.591 57.3214 314.81 58.5086 314.741C59.1989 314.901 59.8644 315.154 60.4873 315.492C60.8002 315.63 61.1353 315.711 61.4767 315.73C67.9272 315.384 73.418 310.852 77.1182 303.264C82.2727 292.649 80.6798 281.241 73.5664 277.769C72.6329 277.303 71.6594 276.923 70.6578 276.631C69.5069 276.322 68.3171 276.182 67.1258 276.216C64.3756 276.412 61.6724 277.032 59.1121 278.056L58.7659 278.184C52.9782 275.632 48.3679 275.612 43.9257 277.779C36.7728 281.241 35.1898 292.649 40.3542 303.264Z" fill="#8CC63F"/>
<path d="M40.4729 292.51C40.1353 291.844 39.9335 291.118 39.8793 290.373C39.6688 288.576 39.8863 286.755 40.5138 285.058C41.1414 283.361 42.1613 281.836 43.4904 280.609C44.0147 280.077 44.6405 279.657 45.3306 279.372C45.3306 279.451 44.6776 279.906 43.7377 280.866C42.5366 282.122 41.6042 283.61 40.9972 285.239C40.395 286.87 40.1389 288.608 40.2453 290.344C40.3245 291.669 40.6015 292.481 40.4729 292.51Z" fill="#FAFAFA"/>
<path d="M41.7887 297.555C41.6502 297.555 41.4128 297.09 41.2644 296.438C41.116 295.785 41.1061 295.24 41.2644 295.211C41.4227 295.181 41.6304 295.676 41.7887 296.329C41.947 296.982 41.9273 297.526 41.7887 297.555Z" fill="#FAFAFA"/>
<path d="M74.5163 260.248C74.5163 260.337 73.1905 260.851 71.1822 262.058C70.0137 262.761 68.9022 263.555 67.858 264.432C66.5875 265.517 65.4125 266.709 64.3458 267.994C63.3005 269.298 62.3672 270.688 61.5559 272.149C60.9056 273.347 60.3499 274.595 59.8938 275.879C59.1122 278.076 58.9044 279.52 58.7758 279.5C58.7761 279.167 58.8126 278.836 58.8846 278.511C58.9331 278.113 59.0125 277.719 59.1221 277.334C59.2363 276.812 59.3783 276.297 59.5475 275.79C59.9637 274.466 60.4968 273.181 61.1403 271.951C62.7217 268.925 64.907 266.255 67.5612 264.106C68.6387 263.227 69.7944 262.449 71.014 261.781C71.5185 261.474 72.0033 261.267 72.4386 261.059C72.7973 260.879 73.1674 260.724 73.5467 260.594C73.855 260.44 74.1805 260.324 74.5163 260.248Z" fill="#263238"/>
<path d="M19.4296 283.3L8.22037 424.697L112.695 449.955C112.695 449.955 149.142 437.598 149.637 436.757C150.132 435.916 150.27 290.334 150.27 290.334L112.606 300.099L19.4296 283.3Z" fill="#8CC63F"/>
<g opacity="0.4">
<path d="M19.4296 283.3L8.22037 424.697L112.695 449.955C112.695 449.955 149.142 437.598 149.637 436.757C150.132 435.916 150.27 290.334 150.27 290.334L112.606 300.099L19.4296 283.3Z" fill="black"/>
</g>
<path d="M183.294 118.593L177.467 201.114C177.009 207.608 174.106 213.686 169.343 218.124C164.581 222.561 158.313 225.028 151.804 225.027C148.279 225.034 144.791 224.318 141.555 222.921C138.319 221.524 135.405 219.478 132.993 216.908C130.581 214.339 128.723 211.301 127.534 207.983C126.345 204.665 125.85 201.139 126.081 197.622C126.595 189.767 127.07 183.326 127.07 183.326C127.07 183.326 107.095 180.219 106.848 160.245C106.709 148.709 108.698 122.531 110.4 102.477C110.958 95.9267 113.959 89.8259 118.806 85.3852C123.654 80.9446 129.994 78.4888 136.568 78.5051H148.628C153.56 78.7948 158.384 80.0701 162.815 82.2557C167.246 84.4412 171.194 87.4927 174.425 91.2298C177.657 94.9668 180.107 99.3137 181.63 104.014C183.153 108.713 183.719 113.671 183.294 118.593Z" fill="#FFBE9D"/>
<path d="M127.11 183.326C127.11 183.326 139.704 184.068 153.119 175.638C153.119 175.638 146.689 190.172 126.753 188.371L127.11 183.326Z" fill="#EB996E"/>
<path d="M114.189 123.076C114.545 123.452 116.702 121.849 119.779 121.859C122.856 121.869 125.091 123.402 125.428 123.026C125.586 122.858 125.23 122.195 124.251 121.473C122.921 120.558 121.343 120.071 119.729 120.078C118.132 120.08 116.575 120.582 115.277 121.513C114.337 122.245 114.021 122.917 114.189 123.076Z" fill="#263238"/>
<path d="M147.451 126.607C147.447 127.349 147.732 128.064 148.245 128.601C148.758 129.138 149.459 129.455 150.201 129.486C150.566 129.517 150.933 129.474 151.281 129.361C151.629 129.248 151.951 129.066 152.228 128.826C152.505 128.586 152.73 128.294 152.892 127.965C153.054 127.637 153.148 127.279 153.169 126.913C153.177 126.17 152.894 125.452 152.38 124.914C151.866 124.376 151.162 124.06 150.419 124.034C150.053 124.002 149.686 124.044 149.337 124.156C148.988 124.269 148.666 124.451 148.389 124.691C148.112 124.931 147.886 125.224 147.725 125.553C147.564 125.883 147.47 126.241 147.451 126.607Z" fill="#263238"/>
<path d="M116.959 126.607C116.953 127.35 117.237 128.066 117.751 128.604C118.264 129.141 118.967 129.457 119.709 129.486C120.074 129.518 120.442 129.477 120.791 129.364C121.14 129.251 121.462 129.069 121.739 128.829C122.016 128.589 122.242 128.296 122.403 127.967C122.564 127.638 122.658 127.279 122.677 126.913C122.688 126.17 122.407 125.453 121.895 124.914C121.383 124.376 120.68 124.06 119.937 124.034C119.571 123.999 119.201 124.039 118.851 124.15C118.5 124.262 118.176 124.443 117.898 124.684C117.619 124.924 117.393 125.219 117.231 125.549C117.07 125.88 116.977 126.239 116.959 126.607Z" fill="#263238"/>
<path d="M144.057 123.086C144.413 123.452 146.58 121.849 149.647 121.859C152.714 121.869 154.96 123.402 155.296 123.026C155.454 122.858 155.098 122.195 154.119 121.473C152.789 120.558 151.212 120.071 149.598 120.078C148 120.08 146.444 120.582 145.145 121.513C144.206 122.245 143.889 122.917 144.057 123.086Z" fill="#263238"/>
<path d="M132.917 145.841C132.917 145.672 131.027 145.346 127.97 144.95C127.189 144.861 126.447 144.713 126.318 144.178C126.247 143.369 126.426 142.557 126.833 141.854L129.157 135.917C132.373 127.419 134.708 120.434 134.361 120.306C134.015 120.177 131.126 126.964 127.911 135.462C127.086 137.527 126.344 139.515 125.685 141.428C125.199 142.376 125.056 143.463 125.279 144.505C125.394 144.782 125.571 145.029 125.795 145.228C126.02 145.427 126.286 145.572 126.575 145.653C127.008 145.771 127.453 145.834 127.901 145.841C130.978 146.009 132.907 146.019 132.917 145.841Z" fill="#263238"/>
<path d="M141.95 147.968C141.455 147.968 141.445 151.272 138.596 153.636C135.747 156.001 132.195 155.615 132.165 156.1C132.165 156.308 132.957 156.743 134.46 156.792C136.412 156.817 138.31 156.155 139.823 154.923C141.271 153.731 142.204 152.026 142.425 150.164C142.553 148.779 142.177 147.948 141.95 147.968Z" fill="#263238"/>
<path d="M143.266 113.103C143.572 113.934 146.629 113.538 150.191 113.974C153.753 114.409 156.711 115.389 157.186 114.647C157.403 114.29 156.889 113.499 155.721 112.668C154.161 111.663 152.384 111.043 150.537 110.857C148.695 110.633 146.826 110.854 145.086 111.5C143.8 112.054 143.137 112.707 143.266 113.103Z" fill="#263238"/>
<path d="M114.614 114.29C115.158 114.993 117.276 114.29 119.818 114.231C122.361 114.171 124.508 114.706 125.012 113.973C125.22 113.617 124.884 112.915 123.944 112.262C122.681 111.468 121.211 111.068 119.72 111.114C118.229 111.159 116.785 111.649 115.574 112.519C114.674 113.231 114.377 113.954 114.614 114.29Z" fill="#263238"/>
<path d="M176.557 133.612C176.903 133.463 190.289 129.555 189.854 143.208C189.419 156.861 175.795 153.606 175.785 153.221C175.775 152.835 176.557 133.612 176.557 133.612Z" fill="#FFBE9D"/>
<path d="M180.099 148.145C180.158 148.145 180.336 148.323 180.732 148.521C181.288 148.779 181.923 148.811 182.503 148.61C183.967 148.125 185.253 145.88 185.392 143.416C185.47 142.248 185.281 141.077 184.838 139.993C184.723 139.561 184.506 139.164 184.205 138.835C183.903 138.506 183.526 138.255 183.106 138.103C182.835 138.022 182.543 138.039 182.283 138.151C182.022 138.263 181.809 138.463 181.682 138.717C181.484 139.093 181.563 139.37 181.494 139.389C181.425 139.409 181.207 139.152 181.335 138.588C181.426 138.254 181.624 137.958 181.899 137.747C182.284 137.475 182.76 137.365 183.225 137.44C183.782 137.571 184.297 137.841 184.721 138.225C185.145 138.609 185.464 139.095 185.649 139.637C186.189 140.841 186.43 142.158 186.351 143.475C186.173 146.226 184.679 148.749 182.691 149.263C182.32 149.357 181.933 149.366 181.558 149.291C181.183 149.216 180.83 149.057 180.524 148.828C180.099 148.452 180.099 148.175 180.099 148.145Z" fill="#EB996E"/>
<path d="M184.155 133.117C182.078 132.612 178.476 134.542 177.586 136.491C176.696 138.44 176.498 140.646 175.607 142.595C174.717 144.544 172.718 146.315 170.661 145.82C169.954 145.598 169.32 145.192 168.821 144.645C168.322 144.097 167.977 143.428 167.821 142.704C167.534 141.25 167.534 139.755 167.821 138.301C168.623 131.92 169.958 125.598 170.215 119.177C170.473 112.756 169.562 106.078 166.189 100.607C162.815 95.1362 156.622 91.1095 150.211 91.624C145.967 91.9703 142.078 94.1864 137.864 94.7701C135.356 95.1021 132.805 94.8587 130.405 94.0581C128.005 93.2576 125.819 91.9211 124.013 90.1499C123.548 89.6948 121.421 88.28 121.421 88.28C121.421 87.9535 121.728 85.1042 122.856 84.0654C131.215 76.3287 146.293 74.172 157.344 76.952C168.395 79.7321 178.753 87.5281 183.502 97.8865C188.251 108.245 186.846 122.62 184.224 133.117" fill="#263238"/>
<path d="M108.253 98.8764C110.044 103.022 114.614 105.436 119.136 105.891C123.657 106.346 128.119 105.179 132.462 103.912C136.805 102.646 148.47 100.746 152.991 100.885C153.664 100.885 154.475 100.885 154.841 100.321C155.316 99.559 154.554 98.639 153.852 98.0948C147.916 93.4251 133.501 90.5659 125.942 90.2493C118.384 89.9327 110.459 93.2173 106.363 99.5392" fill="#263238"/>
<path d="M110.222 99.3906C110.222 99.3906 162.657 82.5717 185.293 127.874C185.293 127.874 188.677 116.526 188.677 110.442C188.677 106.385 186.253 82.1859 161.361 74.5778C161.361 74.5778 123.855 60.2719 110.222 99.3906Z" fill="#8CC63F"/>
<g opacity="0.4">
<path d="M110.222 99.3906C114.581 94.8002 120.557 92.0889 126.882 91.832C142.346 91.1394 171.274 99.8358 185.253 127.874C185.253 127.874 188.637 116.526 188.637 110.442C188.637 106.385 186.213 82.1859 161.321 74.5778C161.361 74.5778 123.855 60.2719 110.222 99.3906Z" fill="black"/>
</g>
<path d="M183.067 122.561C175.119 110.727 164.703 100.753 152.536 93.3256C140.525 85.7967 120.61 78.3569 106.887 74.7062C102.772 73.6179 98.4781 72.6582 94.2734 73.3904C90.0687 74.1225 85.953 76.9124 84.9142 81.0479C83.6082 86.2222 92.8289 94.2062 97.1128 97.3424C101.342 100.161 105.721 102.747 110.231 105.089C110.231 105.089 110.113 95.4923 125.477 93.5136C146.362 90.8226 183.067 122.561 183.067 122.561Z" fill="#8CC63F"/>
<path d="M140.13 83.4026C140.13 83.4026 132.571 79.2276 124.993 78.258C126.254 77.2631 127.637 76.432 129.108 75.7847C133.225 76.4668 137.206 77.8028 140.901 79.742L140.13 83.4026Z" fill="#FAFAFA"/>
<path d="M205.96 219.526C205.96 219.526 191.635 235.9 193.218 258.684C193.435 261.84 193.594 266.243 193.98 269.389C196.394 288.938 200.133 307.083 200.133 307.083H201.499L251.45 294.746C251.45 294.746 243.922 251.383 242.19 245.625C236.66 227.194 217.694 217.053 217.694 217.053L205.96 219.526Z" fill="#8CC63F"/>
<path d="M149.637 436.756C149.637 436.756 149.637 436.509 149.637 436.024C149.637 435.54 149.637 434.798 149.637 433.848C149.637 431.928 149.637 429.119 149.637 425.488C149.637 418.196 149.637 407.68 149.696 394.502C149.785 368.195 149.914 331.589 150.062 290.304L150.379 290.551L131.384 295.498L112.725 300.336L112.913 300.088C113.17 320.786 113.101 340.315 113.002 357.965C112.903 375.615 112.804 391.375 112.725 404.553C112.646 417.731 112.725 428.298 112.725 435.619C112.725 439.259 112.725 442.079 112.725 444.008V446.185C112.725 445.7 112.725 444.958 112.725 444.008C112.725 442.03 112.655 439.259 112.596 435.619C112.507 428.327 112.448 417.731 112.458 404.553C112.467 391.375 112.566 375.605 112.626 357.965C112.685 340.325 112.744 320.786 112.477 300.098V299.891L112.675 299.841L131.324 295.003L150.33 290.057L150.656 289.968V290.304C150.438 331.589 150.25 368.205 150.122 394.502C150.033 407.64 149.954 418.196 149.904 425.488C149.904 429.119 149.845 431.928 149.825 433.848C149.825 434.837 149.825 435.52 149.825 436.024C149.825 436.529 149.637 436.756 149.637 436.756Z" fill="#263238"/>
<path d="M126.506 190.084C126.506 190.084 124.527 209.089 130.919 212.047C138.131 215.371 145.323 212.117 149.716 209.297C161.499 201.778 179.011 180.893 179.011 180.893L190.883 196.307C190.883 196.307 160.985 232.24 154.979 232.002C151.022 231.854 144.938 228.045 141.129 225.364C139.044 223.908 137.187 222.151 135.618 220.15L130.444 213.571C123.983 216.757 118.76 220.843 115.149 226.076C115.149 226.076 113.427 212.769 116.524 206.734C119.62 200.699 125.794 190.282 125.794 190.282L126.506 190.084Z" fill="#8CC63F"/>
<path d="M116.158 207.248C116.134 207.362 116.094 207.472 116.039 207.575C115.95 207.812 115.821 208.119 115.653 208.505C115.242 209.734 114.948 211 114.773 212.284C114.198 217.015 114.198 221.799 114.773 226.531L114.416 226.461C116.081 223.65 118.255 221.174 120.827 219.16C123.74 216.792 126.921 214.777 130.305 213.155L130.464 213.075L130.582 213.214C132.67 215.638 134.876 218.161 137.201 220.723C139.526 223.407 142.145 225.823 145.007 227.925C146.374 228.894 147.861 229.682 149.429 230.27C150.201 230.551 150.995 230.766 151.804 230.913C152.595 231.042 153.399 231.072 154.198 231.002C157.413 230.706 160.134 228.865 162.39 226.926L182.859 205.101L188.795 198.839L190.388 197.187L190.804 196.761L190.962 196.633L190.843 196.791L190.447 197.246L188.914 198.948L183.077 205.309L162.756 227.253C161.584 228.296 160.303 229.212 158.937 229.983C157.506 230.795 155.923 231.3 154.287 231.467C153.442 231.536 152.592 231.507 151.754 231.378C150.915 231.231 150.091 231.009 149.291 230.715C147.675 230.111 146.142 229.303 144.73 228.311C141.826 226.189 139.171 223.747 136.815 221.03C134.48 218.457 132.274 215.925 130.196 213.491L130.483 213.55C127.132 215.159 123.978 217.151 121.085 219.486C118.574 221.459 116.445 223.873 114.802 226.61L114.505 227.124L114.446 226.54C113.893 221.778 113.947 216.964 114.604 212.215C114.807 210.928 115.139 209.666 115.594 208.445C115.772 208.03 115.93 207.733 116.029 207.525C116.066 207.43 116.109 207.338 116.158 207.248Z" fill="#263238"/>
<g opacity="0.3">
<path d="M116.89 223.266C116.69 223.765 116.653 224.314 116.785 224.835C116.916 225.355 117.209 225.821 117.622 226.165C118.034 226.323 118.481 226.365 118.916 226.287C119.35 226.208 119.755 226.012 120.085 225.72C120.733 225.127 121.293 224.444 121.747 223.692C122.931 221.986 124.353 220.46 125.972 219.16C127.565 217.874 129.751 216.786 131.581 217.696C132.726 218.452 133.594 219.56 134.055 220.852C136.538 225.928 139.516 231.092 144.374 233.991C149.231 236.889 155.474 237.018 160.826 235.128C166.147 233.057 170.829 229.621 174.4 225.166C177.944 220.724 181.086 215.976 183.789 210.979C186.025 207.11 188.291 203.123 188.983 198.711C188.37 199.057 186.925 201.283 186.312 201.629C186.312 201.629 163.25 227.026 161.084 228.342C158.917 229.657 152.941 238.423 136.014 219.437L130.414 213.363C130.414 213.363 119.749 218.537 116.89 223.266Z" fill="black"/>
</g>
<path d="M178.657 278.059L153.299 274.17L152.125 281.827L177.482 285.716L178.657 278.059Z" fill="white"/>
<path d="M247.255 295.706L207.682 305.273L212.252 342.6L136.469 399.517C133.441 399.943 130.335 400.428 128.613 400.863C124.468 401.852 117.147 412.29 115.079 413.329L100.308 424.726C100.308 424.726 99.0123 429.91 105.75 428.871C112.487 427.832 119.996 422.658 120.778 422.658C121.559 422.658 123.914 424.231 122.756 427.605C121.767 430.573 117.711 440.783 117.711 440.783L112.695 449.984C112.695 449.984 134.381 450.696 140.396 442.653C144.512 437.192 157.215 421.708 157.215 421.708C157.215 421.708 246.424 377.821 251.777 368.63C259.068 356.125 247.255 295.706 247.255 295.706Z" fill="#FFBE9D"/>
<path d="M229.012 358.687C229.065 357.326 229.006 355.963 228.834 354.611C228.355 351.347 226.755 348.352 224.309 346.139C221.863 343.926 218.724 342.633 215.428 342.482C214.066 342.444 212.702 342.52 211.352 342.709C211.69 342.548 212.05 342.438 212.421 342.383C213.415 342.172 214.432 342.082 215.448 342.116C218.858 342.172 222.132 343.465 224.659 345.755C227.187 348.044 228.797 351.174 229.19 354.562C229.312 355.57 229.312 356.59 229.19 357.599C229.184 357.968 229.124 358.335 229.012 358.687Z" fill="#EB996E"/>
<path d="M130.513 436.043C130.435 436.891 130.263 437.727 129.999 438.536C129.492 440.537 128.755 442.473 127.802 444.304C126.853 446.177 125.409 447.754 123.627 448.865C123.083 449.189 122.492 449.43 121.876 449.577C121.654 449.654 121.417 449.678 121.184 449.646C121.964 449.346 122.718 448.982 123.439 448.558C125.106 447.403 126.465 445.858 127.397 444.057C128.309 442.25 129.061 440.366 129.642 438.427C129.863 437.609 130.154 436.811 130.513 436.043Z" fill="#EB996E"/>
<path d="M141.02 432.592C140.87 433.422 140.614 434.23 140.258 434.996C139.513 436.89 138.648 438.734 137.666 440.516C136.681 442.299 135.584 444.017 134.381 445.661C133.925 446.385 133.38 447.05 132.759 447.639C133.14 446.888 133.584 446.17 134.085 445.493C134.935 444.197 136.063 442.376 137.211 440.308C138.359 438.241 139.279 436.351 139.922 434.897C140.22 434.098 140.587 433.327 141.02 432.592Z" fill="#EB996E"/>
<path d="M140.733 367.988C140.841 368.402 140.9 368.827 140.911 369.254C141 370.065 141.069 371.233 141.109 372.707C141.295 380.343 140.191 387.956 137.844 395.224C137.389 396.61 136.993 397.727 136.677 398.479C136.542 398.882 136.366 399.27 136.152 399.637C136.218 399.217 136.331 398.805 136.489 398.41C136.746 397.638 137.092 396.511 137.478 395.116C138.541 391.48 139.347 387.774 139.892 384.025C140.427 380.276 140.705 376.494 140.723 372.707C140.723 371.253 140.723 370.075 140.723 369.264C140.686 368.839 140.69 368.412 140.733 367.988Z" fill="#263238"/>
<path d="M119.294 379.868C119.775 380.879 120.191 381.92 120.54 382.985C121.273 384.963 122.292 387.595 123.508 390.514C124.725 393.432 125.853 396.054 126.694 397.943C127.189 398.948 127.622 399.982 127.99 401.04C127.352 400.107 126.809 399.113 126.368 398.072C125.438 396.212 124.241 393.61 123.034 390.682C121.827 387.753 120.867 385.052 120.224 383.074C119.816 382.036 119.504 380.963 119.294 379.868Z" fill="#263238"/>
<path d="M113.546 405.482C113.346 405.568 113.137 405.628 112.923 405.661L111.112 406.096C110.321 406.284 109.361 406.502 108.223 406.689C107.085 406.877 105.809 407.154 104.365 407.333C102.92 407.511 101.397 407.758 99.6654 407.906C97.934 408.055 96.1433 408.183 94.2339 408.292C85.9171 408.661 77.5862 408.026 69.4211 406.403C67.5513 405.997 65.7606 405.641 64.1183 405.186C62.476 404.731 60.9425 404.335 59.5574 403.909C58.1723 403.484 56.9258 403.059 55.8375 402.693C54.7492 402.326 53.8588 401.97 53.0772 401.703L51.3459 401.011C51.1416 400.933 50.9432 400.84 50.7523 400.734C50.9704 400.764 51.1833 400.824 51.3854 400.912L53.1465 401.515C53.8984 401.792 54.8382 402.129 55.9265 402.505C57.0148 402.881 58.2614 403.276 59.6563 403.642C61.0513 404.008 62.565 404.473 64.2172 404.849C65.8694 405.225 67.6403 405.631 69.5102 406.017C73.5783 406.776 77.683 407.324 81.8077 407.659C85.9362 407.955 90.0773 408.035 94.2141 407.896C96.1235 407.798 97.934 407.728 99.6258 407.56C101.318 407.392 102.881 407.234 104.315 407.056C105.75 406.877 107.036 406.66 108.174 406.482C109.311 406.304 110.281 406.135 111.072 405.977L112.903 405.641C113.11 405.564 113.326 405.51 113.546 405.482Z" fill="#263238"/>
<path d="M109.776 388.279C108.139 387.68 106.565 386.921 105.077 386.013C103.51 385.253 102.02 384.345 100.625 383.302C102.265 383.894 103.84 384.653 105.324 385.568C106.895 386.321 108.387 387.229 109.776 388.279Z" fill="#263238"/>
<path d="M251.45 294.746L251.203 294.826L250.471 295.023L247.641 295.746L236.996 298.377L200.193 307.281L199.925 307.341V307.074C198.887 300.277 197.462 292.946 196.087 285.308C195.186 280.213 194.405 275.217 193.871 270.369C193.336 265.521 193.099 260.802 193.03 256.31C192.921 252.059 193.169 247.807 193.772 243.597C194.307 239.914 195.402 236.335 197.017 232.982C198.398 230.234 200.246 227.747 202.478 225.631C204.157 224.031 206.085 222.715 208.186 221.733C209.523 221.136 210.924 220.694 212.361 220.417L213.489 220.279C213.618 220.265 213.747 220.265 213.875 220.279C213.75 220.319 213.62 220.346 213.489 220.358L212.381 220.556C210.965 220.861 209.587 221.326 208.275 221.941C206.212 222.956 204.322 224.291 202.676 225.898C200.496 228.011 198.693 230.48 197.343 233.199C195.773 236.527 194.713 240.073 194.197 243.716C193.616 247.908 193.384 252.14 193.505 256.37C193.584 260.842 193.841 265.531 194.375 270.369C194.909 275.207 195.701 280.193 196.601 285.278C197.966 292.906 199.381 300.247 200.42 307.044L200.113 306.836L236.966 298.08L247.641 295.587L250.491 294.944L251.233 294.786C251.304 294.766 251.377 294.753 251.45 294.746Z" fill="#263238"/>
</svg>
