<svg width="470" height="450" viewBox="0 0 470 450" fill="none" xmlns="http://www.w3.org/2000/svg">
<path d="M62.9891 396.211V404.378H124.131V396.211H62.9891Z" fill="#A6A6A6"/>
<path d="M71.3296 396.537C71.5359 396.537 71.7097 398.253 71.7097 400.371C71.7097 402.488 71.5359 404.193 71.3296 404.193C71.1233 404.193 70.9386 402.478 70.9386 400.371C70.9386 398.264 71.1124 396.537 71.3296 396.537Z" fill="#FAFAFA"/>
<path d="M69.9938 396.374C70.211 396.374 70.3739 398.09 70.3739 400.197C70.3739 402.304 70.211 404.031 69.9938 404.031C69.7766 404.031 69.6137 402.315 69.6137 400.197C69.6137 398.079 69.7766 396.374 69.9938 396.374Z" fill="#FAFAFA"/>
<path d="M119.407 396.537C119.624 396.537 119.798 398.253 119.798 400.371C119.798 402.488 119.624 404.193 119.407 404.193C119.19 404.193 119.027 402.478 119.027 400.371C119.027 398.264 119.201 396.537 119.407 396.537Z" fill="#FAFAFA"/>
<path d="M118.082 396.374C118.289 396.374 118.462 398.09 118.462 400.197C118.462 402.304 118.289 404.031 118.082 404.031C117.876 404.031 117.691 402.315 117.691 400.197C117.691 398.079 117.865 396.374 118.082 396.374Z" fill="#FAFAFA"/>
<path d="M110.089 400.534C110.089 400.751 103.084 400.914 94.4507 400.914C85.817 400.914 78.8122 400.751 78.8122 400.534C78.8122 400.316 85.817 400.153 94.4507 400.153C103.084 400.153 110.089 400.316 110.089 400.534Z" fill="#FAFAFA"/>
<path d="M62.7284 432.984V449.317H123.871V432.984H62.7284Z" fill="#A6A6A6"/>
<path d="M124.653 444.723C124.653 444.723 124.555 444.799 124.327 444.908C124.099 445.017 123.762 445.179 123.306 445.375C121.977 445.938 120.584 446.336 119.157 446.559C116.872 446.973 114.514 446.638 112.435 445.603C111.149 444.918 110.052 443.926 109.242 442.714C108.313 441.334 107.926 439.66 108.156 438.012C108.29 437.117 108.665 436.276 109.242 435.579C109.551 435.198 109.944 434.893 110.391 434.69C110.838 434.486 111.325 434.389 111.816 434.406C112.321 434.448 112.812 434.592 113.258 434.831C113.705 435.071 114.097 435.399 114.412 435.796C115.08 436.585 115.493 437.558 115.595 438.587C115.679 439.647 115.534 440.712 115.17 441.71C114.807 442.709 114.233 443.618 113.488 444.376C111.941 446.012 109.855 447.034 107.613 447.254C105.305 447.476 102.977 447.186 100.793 446.407C98.4594 445.677 96.388 444.285 94.8308 442.399C94.0277 441.387 93.5438 440.158 93.4407 438.87C93.3758 438.2 93.4588 437.524 93.684 436.889C93.9092 436.255 94.2711 435.678 94.744 435.199C95.2615 434.702 95.9391 434.406 96.6553 434.363C97.3633 434.344 98.0603 434.541 98.6536 434.928C99.7997 435.678 100.607 436.848 100.902 438.186C101.157 439.492 101.07 440.842 100.647 442.104C100.224 443.366 99.4814 444.497 98.4907 445.386C96.5496 447.024 94.139 448.005 91.6054 448.188C89.2039 448.464 86.7711 448.223 84.4703 447.482C82.2118 446.771 80.2844 445.272 79.0403 443.257C78.4216 442.301 78.038 441.213 77.921 440.08C77.804 438.948 77.9568 437.803 78.3669 436.741C78.5701 436.209 78.9046 435.736 79.3395 435.368C79.7743 435 80.2953 434.747 80.8539 434.634C81.3911 434.538 81.9425 434.554 82.4733 434.681C83.0042 434.808 83.5029 435.043 83.9382 435.373C84.7004 436.042 85.2459 436.923 85.5051 437.904C85.7643 438.885 85.7254 439.92 85.3934 440.879C84.799 442.591 83.7291 444.097 82.3092 445.223C79.9571 447.215 77.0054 448.362 73.9252 448.481C72.0503 448.548 70.1824 448.219 68.4425 447.518C66.7026 446.816 65.1296 445.757 63.8253 444.408C63.5641 444.139 63.3176 443.857 63.0868 443.561C63.0053 443.463 62.9326 443.358 62.8696 443.246C64.1605 444.671 65.7031 445.845 67.42 446.711C69.4429 447.704 71.685 448.168 73.936 448.057C76.9076 447.889 79.7404 446.743 81.9942 444.799C83.3171 443.728 84.3109 442.305 84.8613 440.694C85.1489 439.855 85.1818 438.949 84.9557 438.091C84.7296 437.233 84.2546 436.461 83.5906 435.872C83.2258 435.601 82.8092 435.407 82.3666 435.302C81.924 435.198 81.4646 435.185 81.0168 435.264C80.5627 435.358 80.1404 435.567 79.7904 435.872C79.4405 436.176 79.1747 436.565 79.0185 437.002C78.6615 437.961 78.5354 438.991 78.6505 440.008C78.7656 441.025 79.1186 442 79.681 442.855C80.847 444.716 82.6432 446.096 84.7418 446.743C86.9433 447.442 89.2681 447.664 91.562 447.395C93.933 447.218 96.1891 446.303 98.0128 444.778C98.9074 443.972 99.5777 442.948 99.9584 441.806C100.339 440.664 100.417 439.443 100.185 438.262C99.94 437.113 99.2586 436.105 98.2843 435.449C97.8449 435.124 97.3054 434.963 96.7596 434.995C96.2138 435.026 95.6965 435.249 95.2978 435.623C94.9029 436.022 94.6009 436.503 94.4132 437.033C94.2255 437.562 94.1567 438.126 94.2118 438.685C94.3033 439.826 94.7303 440.914 95.439 441.813C96.9027 443.58 98.8444 444.888 101.032 445.581C103.117 446.332 105.341 446.617 107.548 446.418C109.614 446.218 111.54 445.286 112.978 443.789C113.664 443.103 114.194 442.278 114.533 441.369C114.872 440.461 115.012 439.49 114.944 438.522C114.907 437.643 114.573 436.803 113.998 436.138C113.422 435.474 112.637 435.024 111.773 434.862C111.37 434.85 110.97 434.929 110.603 435.095C110.236 435.26 109.912 435.508 109.655 435.818C109.125 436.436 108.776 437.187 108.645 437.99C108.423 439.511 108.775 441.059 109.633 442.334C110.386 443.494 111.411 444.452 112.62 445.125C114.626 446.155 116.909 446.516 119.136 446.157C120.545 445.964 121.929 445.618 123.263 445.125C124.175 444.897 124.642 444.691 124.653 444.723Z" fill="#FAFAFA"/>
<path d="M68.191 404.606V432.951H123.871V404.606H68.191Z" fill="#8CC63F"/>
<path d="M77.4438 405.584C77.6502 405.584 77.8239 411.72 77.8239 419.3C77.8239 426.88 77.6502 433.016 77.4438 433.016C77.2375 433.016 77.0529 426.88 77.0529 419.3C77.0529 411.72 77.2266 405.584 77.4438 405.584Z" fill="#A6A6A6"/>
<path d="M81.6684 405.225C81.8748 405.225 82.0485 411.296 82.0485 418.768C82.0485 426.24 81.8748 432.31 81.6684 432.31C81.4621 432.31 81.2775 426.25 81.2775 418.768C81.2775 411.285 81.4512 405.225 81.6684 405.225Z" fill="#A6A6A6"/>
<path d="M117.583 404.356C117.789 404.356 117.963 410.742 117.963 418.627C117.963 426.511 117.789 432.886 117.583 432.886C117.376 432.886 117.192 426.5 117.192 418.627C117.192 410.753 117.366 404.356 117.583 404.356Z" fill="#A6A6A6"/>
<path d="M112.62 404.704C112.826 404.704 113 410.916 113 418.594C113 426.272 112.826 432.484 112.62 432.484C112.413 432.484 112.229 426.272 112.229 418.594C112.229 410.916 112.402 404.704 112.62 404.704Z" fill="#A6A6A6"/>
<path d="M412.347 342.736C418.125 339.75 424.912 339.37 431.331 340.423C434.773 340.999 438.357 342.02 440.703 344.615C443.049 347.211 443.483 351.75 440.801 353.966C439.193 355.291 436.967 355.497 434.882 355.464C429.865 355.41 424.304 354.53 420.297 357.55C418.005 359.265 416.485 362.133 413.781 362.98C411.077 363.827 408.09 362.23 406.678 359.819C405.373 357.305 405.085 354.384 405.875 351.663C406.194 349.778 406.945 347.992 408.067 346.443C409.19 344.895 410.655 343.626 412.347 342.736Z" fill="#8CC63F"/>
<path d="M399.12 317.204C402.649 322.243 409.513 320.571 412.695 317.497C415.877 314.424 417.223 309.96 418.44 305.703C421.242 295.994 424.054 285.797 421.98 275.903C421.483 272.902 420.163 270.098 418.168 267.801C417.159 266.669 415.871 265.821 414.433 265.341C412.995 264.861 411.455 264.766 409.969 265.065C406.515 265.988 404.365 269.409 402.812 272.591C398.236 282.108 395.836 292.525 395.786 303.086C395.786 307.995 396.35 313.142 399.12 317.204Z" fill="#8CC63F"/>
<path d="M389.465 324.437C393.299 319.887 394.026 313.251 392.321 307.56C390.616 301.87 386.761 297.004 382.319 293.051C377.093 288.399 371.01 284.809 364.411 282.484C361.858 281.456 359.113 280.99 356.363 281.116C354.989 281.196 353.655 281.61 352.477 282.324C351.3 283.038 350.315 284.029 349.608 285.21C347.719 288.805 349.532 293.16 351.487 296.722C354.932 302.985 358.861 308.969 363.238 314.619C366.767 319.17 370.84 323.655 376.172 325.708C381.505 327.76 387.13 327.51 389.975 323.785" fill="#8CC63F"/>
<path d="M398.881 393.246C399.067 392.496 399.176 391.728 399.206 390.955C399.369 389.293 399.565 387.197 399.815 384.71C400.126 381.63 400.594 378.567 401.216 375.534C402.033 371.83 403.148 368.198 404.55 364.674C405.926 361.173 407.786 357.883 410.077 354.9C411.945 352.468 414.33 350.483 417.06 349.089C418.916 348.178 420.902 347.559 422.947 347.254C423.717 347.23 424.481 347.121 425.227 346.928C424.455 346.843 423.676 346.843 422.903 346.928C420.779 347.09 418.701 347.63 416.767 348.525C413.895 349.883 411.375 351.886 409.404 354.378C407.009 357.406 405.076 360.774 403.67 364.37C402.267 367.935 401.177 371.616 400.412 375.371C399.82 378.439 399.411 381.54 399.185 384.656C398.989 387.306 398.913 389.456 398.881 390.944C398.8 391.709 398.8 392.481 398.881 393.246Z" fill="#A6A6A6"/>
<path d="M399.315 388.436C399.381 388.077 399.402 387.713 399.38 387.35C399.38 386.557 399.38 385.547 399.38 384.309C399.38 381.681 399.38 377.858 399.511 373.145C399.75 363.718 400.597 353.596 402.128 339.261C403.616 325.816 405.603 310.156 407.71 299.98C408.155 297.667 408.611 295.582 409.046 293.757C409.48 291.933 409.795 290.358 410.132 289.087C410.469 287.817 410.653 286.915 410.838 286.133C410.936 285.778 411.001 285.415 411.033 285.047C410.867 285.363 410.743 285.699 410.664 286.047C410.425 286.807 410.132 287.773 409.774 288.957C409.415 290.141 408.981 291.781 408.525 293.605C408.068 295.43 407.547 297.504 407.058 299.817C404.45 311.852 402.488 324.018 401.183 336.264C399.619 350.599 398.913 363.653 398.848 373.101C398.794 377.825 398.848 381.648 399.011 384.287C399.087 385.525 399.152 386.535 399.196 387.328C399.19 387.701 399.23 388.073 399.315 388.436Z" fill="#A6A6A6"/>
<path d="M399.38 363.262C399.463 362.206 399.463 361.146 399.38 360.091C399.261 358.049 398.979 355.095 398.403 351.489C397.71 347.262 396.779 343.078 395.612 338.957C394.242 333.886 392.489 328.927 390.366 324.122C386.733 315.265 381.518 307.144 374.978 300.154C373.837 298.96 372.626 297.836 371.35 296.787C370.797 296.32 370.264 295.853 369.808 295.484L368.407 294.517C367.562 293.872 366.665 293.298 365.725 292.801C365.573 293.008 369.515 295.321 374.489 300.621C380.816 307.672 385.892 315.752 389.498 324.513C391.572 329.284 393.325 334.19 394.743 339.196C396.122 343.8 397.035 348.036 397.73 351.598C398.425 355.16 398.761 358.114 398.989 360.123C399.035 361.178 399.166 362.228 399.38 363.262Z" fill="#A6A6A6"/>
<path d="M373.36 403.846L375.89 438.403H420.275L422.806 403.846H373.36Z" fill="#8CC63F"/>
<path d="M428.094 390.228H369.07V403.846H428.094V390.228Z" fill="#8CC63F"/>
<path d="M369.07 437.078V440.857H371.85H427.128V437.078H369.07Z" fill="#A6A6A6"/>
<path d="M374.565 447.08L371.85 440.445H425.01L421.839 447.08H374.565Z" fill="#A6A6A6"/>
<path d="M421.98 415.141C421.926 415.254 421.856 415.36 421.774 415.456C421.589 415.694 421.372 415.977 421.111 416.335L418.516 419.648L418.407 419.8L418.299 419.637C416.67 417.389 414.498 414.391 411.945 410.851H412.271L406.016 419.713L405.82 419.984L405.603 419.724L398.218 410.873H398.642L398.24 411.383L391.637 419.724L391.409 420.006L391.213 419.713C388.955 416.531 386.869 413.544 384.947 410.862H385.316L377.606 419.648L377.475 419.8L377.367 419.626L374.956 415.575C374.695 415.13 374.5 414.771 374.337 414.489C374.257 414.371 374.191 414.243 374.141 414.109C374.242 414.21 374.329 414.323 374.402 414.446L375.086 415.532L377.617 419.517H377.378L384.98 410.623L385.164 410.406L385.338 410.645L391.659 419.463H391.224L397.849 411.133L398.251 410.612L398.468 410.351L398.685 410.612L406.081 419.452H405.668L411.989 410.634L412.173 410.373L412.347 410.634L418.57 419.517H418.342C419.482 418.149 420.373 417.074 421.035 416.259L421.752 415.423C421.882 415.217 421.969 415.13 421.98 415.141Z" fill="#F5F5F5"/>
<path d="M423.424 403.618C423.424 403.77 412.293 403.889 398.577 403.889C384.86 403.889 373.729 403.77 373.729 403.618C373.729 403.466 384.849 403.346 398.577 403.346C412.304 403.346 423.424 403.466 423.424 403.618Z" fill="#F5F5F5"/>
<path d="M170.319 43.6277C170.319 43.6277 170.222 43.6277 170.059 43.5517L169.342 43.2693L166.605 42.129L156.56 37.785L123.545 23.4062L122.394 22.8958H122.633L90.2805 36.7859L80.5064 40.891L77.8348 41.977C77.5304 42.1167 77.2142 42.2294 76.89 42.3136C77.1783 42.1418 77.4797 41.9929 77.7914 41.8684L80.4195 40.6738L90.1936 36.384L122.47 22.3854H122.589H122.709L123.86 22.8849L156.809 37.4375L166.768 41.901L169.461 43.1499L170.156 43.4865C170.216 43.5271 170.271 43.5745 170.319 43.6277Z" fill="#A6A6A6"/>
<path d="M221.818 38.8926H9.7312V197.7H221.818V38.8926Z" fill="#A6A6A6"/>
<path d="M215.204 46.2775H17.1486V191.173H215.204V46.2775Z" fill="#FAFAFA"/>
<path d="M60.8931 109.581C60.8931 109.581 61.0994 133.897 62.3374 141.325L92.8434 139.881C92.8434 139.881 90.1718 115.989 91.2036 109.581H60.8931Z" fill="#A6A6A6"/>
<path d="M75.9234 113.013H76.3687C76.7933 112.997 77.2185 113.019 77.6393 113.078C78.3077 113.177 78.9586 113.371 79.5724 113.654C80.3849 114.056 81.103 114.626 81.6792 115.326C82.3876 116.177 82.8894 117.181 83.1454 118.258C83.384 119.52 83.2751 120.822 82.8304 122.027C82.6032 122.682 82.316 123.314 81.9725 123.916C81.608 124.529 81.2816 125.164 80.9951 125.817C80.3868 127.202 79.9703 128.663 79.757 130.161V130.259H79.6593H76.651H73.4908H73.3713V130.15C73.2359 128.66 72.732 127.227 71.9052 125.98C71.5359 125.35 71.1341 124.774 70.8192 124.177C70.4249 123.615 70.0624 123.031 69.7332 122.428C69.1761 121.275 69.0084 119.971 69.2553 118.714C69.4326 117.629 69.8359 116.593 70.4391 115.674C70.9541 114.935 71.6299 114.322 72.4156 113.882C73.3856 113.367 74.4493 113.053 75.5433 112.958H75.9777C75.9777 112.958 75.9777 112.958 75.8691 112.958H75.5433C75.1289 113.007 74.7186 113.087 74.3161 113.197C73.6739 113.365 73.0568 113.617 72.4808 113.947C71.7123 114.381 71.0545 114.987 70.5585 115.717C69.9976 116.628 69.6281 117.645 69.4725 118.703C69.2355 119.922 69.4033 121.184 69.9504 122.298C70.2829 122.892 70.6454 123.468 71.0364 124.025C71.4165 124.601 71.8183 125.198 72.1875 125.828C73.0448 127.103 73.5642 128.576 73.6971 130.107L73.5776 129.987H76.7379H79.757L79.6376 130.096C79.8547 128.579 80.2786 127.099 80.8973 125.697C81.1954 125.039 81.5289 124.397 81.8965 123.775C82.2337 123.186 82.5173 122.569 82.7435 121.929C83.1832 120.762 83.2995 119.497 83.0802 118.269C82.8326 117.218 82.3541 116.235 81.6792 115.391C81.119 114.7 80.4197 114.134 79.6267 113.73C79.0257 113.439 78.3854 113.238 77.7262 113.132C77.3127 113.069 76.8955 113.033 76.4773 113.024H76.1406C75.9668 113.024 75.9234 113.024 75.9234 113.013Z" fill="white"/>
<path d="M77.4873 129.965C77.4851 129.933 77.4851 129.9 77.4873 129.868V129.585C77.4873 129.335 77.3895 128.966 77.3244 128.499C77.1832 127.543 76.9769 126.175 76.8465 124.47C76.8465 124.047 76.7814 123.601 76.7705 123.134C76.7432 122.646 76.7432 122.157 76.7705 121.668C76.7822 121.144 76.8966 120.628 77.1072 120.148C77.3419 119.629 77.7595 119.216 78.2801 118.986C78.5573 118.869 78.8628 118.837 79.1583 118.893C79.4538 118.949 79.7262 119.091 79.9417 119.301C80.0563 119.407 80.1468 119.537 80.2067 119.681C80.2667 119.825 80.2948 119.981 80.2892 120.137C80.283 120.452 80.1764 120.756 79.9851 121.006C79.7887 121.26 79.5359 121.464 79.2466 121.603C78.9596 121.738 78.6567 121.837 78.3452 121.896C77.0729 122.156 75.7659 122.2 74.479 122.027C74.1607 121.983 73.85 121.895 73.5559 121.766C73.2691 121.637 73.0107 121.452 72.7957 121.223C72.5754 120.993 72.4215 120.708 72.3505 120.398C72.2821 120.094 72.3205 119.775 72.4591 119.496C72.5848 119.215 72.8144 118.993 73.0998 118.877C73.2353 118.819 73.3813 118.789 73.5288 118.789C73.6763 118.789 73.8222 118.819 73.9578 118.877C74.2199 118.996 74.4451 119.184 74.6094 119.42C74.7623 119.652 74.8727 119.91 74.9352 120.18C75.0272 120.697 75.0781 121.22 75.0872 121.744L75.2392 124.535C75.3153 126.24 75.3913 127.62 75.4347 128.586C75.4347 129.053 75.4347 129.422 75.4347 129.672V130.052C75.4371 130.02 75.4371 129.987 75.4347 129.954C75.4347 129.889 75.4347 129.792 75.4347 129.672C75.4347 129.553 75.4347 129.042 75.3696 128.586C75.3696 127.62 75.2284 126.24 75.1306 124.535C75.1306 123.688 75.0329 122.754 74.9786 121.744C74.9716 121.226 74.9171 120.71 74.8157 120.202C74.7626 119.942 74.6593 119.695 74.5116 119.474C74.3504 119.253 74.138 119.074 73.8926 118.953C73.7673 118.9 73.6324 118.872 73.4962 118.872C73.36 118.872 73.2251 118.9 73.0998 118.953C72.8355 119.063 72.6223 119.269 72.5025 119.529C72.3775 119.793 72.3431 120.09 72.4048 120.376C72.4779 120.665 72.6237 120.93 72.8283 121.147C73.2691 121.582 73.8424 121.857 74.4573 121.929C75.0944 122.012 75.7375 122.041 76.3795 122.016C77.0218 121.999 77.6613 121.926 78.2909 121.799C78.5959 121.74 78.8917 121.642 79.1706 121.505C79.4457 121.373 79.6872 121.18 79.8765 120.941C80.0558 120.706 80.1582 120.421 80.1697 120.126C80.1691 119.982 80.14 119.84 80.0841 119.708C80.0282 119.575 79.9465 119.456 79.8439 119.355C79.6396 119.16 79.3837 119.028 79.1065 118.974C78.8293 118.92 78.5425 118.947 78.2801 119.051C77.7979 119.269 77.4117 119.655 77.1941 120.137C76.9875 120.611 76.8733 121.119 76.8574 121.636C76.8574 122.135 76.8574 122.613 76.8574 123.08C76.8574 123.547 76.8574 123.992 76.9334 124.427C77.0637 126.132 77.2592 127.5 77.3787 128.445C77.4438 128.923 77.4981 129.281 77.5307 129.531V129.813C77.5223 129.865 77.5077 129.916 77.4873 129.965Z" fill="white"/>
<path d="M73.4365 130.128C73.486 130.463 73.515 130.8 73.5233 131.138C73.5233 131.862 73.5668 132.742 73.6537 133.777V133.712L75.7171 136.112H75.6085L77.9868 135.982H77.8891L79.062 134.548L79.6593 133.821V133.918C79.6593 132.517 79.5941 131.203 79.5724 130.009L79.7027 130.128H75.261H73.4365C73.5769 130.108 73.7195 130.108 73.86 130.128L75.1089 130.063L79.6267 129.889H79.757V130.019C79.757 131.225 79.8331 132.539 79.8765 133.929V133.94C79.681 134.179 79.4855 134.429 79.2792 134.668L78.0954 136.112H78.0303L75.6519 136.231H75.6085L73.5885 133.831C73.5885 132.745 73.5885 131.877 73.5885 131.116C73.5184 130.79 73.4676 130.46 73.4365 130.128Z" fill="white"/>
<path d="M79.605 133.56C79.605 133.56 79.5181 133.56 79.3769 133.462C79.1749 133.372 78.9683 133.292 78.7579 133.223C78.0606 132.98 77.3239 132.87 76.5859 132.898C75.8399 132.914 75.1034 133.069 74.4139 133.354L73.8166 133.636L73.5994 133.745C73.6553 133.686 73.7216 133.638 73.7949 133.604C73.9874 133.487 74.1868 133.381 74.3922 133.289C75.077 132.985 75.8151 132.819 76.5642 132.8C77.3049 132.773 78.0435 132.894 78.7362 133.158C78.9456 133.233 79.1489 133.324 79.3444 133.43L79.605 133.56Z" fill="white"/>
<path d="M79.5941 132.615L79.3769 132.517L78.7579 132.268C78.0591 132.031 77.3235 131.92 76.5859 131.942C75.8411 131.968 75.1065 132.123 74.4139 132.398C74.1532 132.506 73.9578 132.604 73.8166 132.68L73.5994 132.789L73.7949 132.648C73.9856 132.531 74.1853 132.429 74.3922 132.344C75.0762 132.036 75.8143 131.866 76.5642 131.844C77.3042 131.827 78.0408 131.949 78.7362 132.202C78.9968 132.311 79.2032 132.409 79.3444 132.485C79.4855 132.561 79.605 132.604 79.5941 132.615Z" fill="white"/>
<path d="M79.5398 131.703L79.3226 131.616C79.1706 131.551 78.9642 131.453 78.7036 131.366C78.0046 131.13 77.2692 131.019 76.5316 131.04C75.7854 131.055 75.0486 131.21 74.3596 131.497C74.0989 131.605 73.9034 131.703 73.7623 131.779L73.5451 131.888L73.7405 131.746C73.9318 131.627 74.1314 131.522 74.3378 131.431C75.0245 131.133 75.7615 130.967 76.5099 130.943C77.2498 130.927 77.9862 131.049 78.6819 131.301C78.8909 131.381 79.0941 131.475 79.29 131.583C79.3804 131.606 79.4653 131.647 79.5398 131.703Z" fill="white"/>
<path d="M26.9227 69.8655C26.9227 69.8655 27.1291 94.1921 28.3671 101.61L58.8731 100.165C58.8731 100.165 56.1906 76.2729 57.2224 69.8655H26.9227Z" fill="#8CC63F"/>
<path d="M52.6285 80.0307C49.2426 80.5319 45.8304 80.8365 42.4092 80.9429C38.9979 81.2575 35.5706 81.3626 32.1464 81.2579C35.5332 80.7631 38.9449 80.4585 42.3658 80.3456C45.7778 80.0442 49.2044 79.939 52.6285 80.0307Z" fill="white"/>
<path d="M52.6285 85.1783C49.2434 85.6881 45.8309 85.9964 42.4092 86.1014C39.0007 86.4028 35.5778 86.508 32.1572 86.4163C35.5431 85.9143 38.9553 85.6097 42.3766 85.5041C45.7847 85.1961 49.2078 85.0874 52.6285 85.1783Z" fill="white"/>
<path d="M47.4483 90.2393C45.5348 90.652 43.5846 90.8703 41.6273 90.8909C39.6847 91.0886 37.7271 91.0886 35.7845 90.8909C37.6944 90.4787 39.641 90.2604 41.5947 90.2393C43.5409 90.0415 45.5021 90.0415 47.4483 90.2393Z" fill="white"/>
<path d="M25.4783 141.379C25.4783 141.379 25.6846 165.695 26.9227 173.123L57.4287 171.679C57.4287 171.679 54.7462 147.787 55.7779 141.379H25.4783Z" fill="#8CC63F"/>
<path d="M51.1842 151.587C47.7988 152.096 44.3864 152.404 40.9648 152.511C37.5564 152.812 34.1334 152.917 30.7129 152.826C34.0951 152.323 37.5037 152.019 40.9214 151.913C44.3331 151.605 47.7598 151.497 51.1842 151.587Z" fill="white"/>
<path d="M51.1842 156.746C47.7984 157.249 44.3861 157.553 40.9648 157.658C37.5564 157.96 34.1334 158.065 30.7129 157.973C34.0988 157.471 37.511 157.167 40.9322 157.061C44.3407 156.76 47.7636 156.654 51.1842 156.746Z" fill="white"/>
<path d="M46.0039 161.807C44.0941 162.219 42.1472 162.433 40.1937 162.448C38.2494 162.664 36.2882 162.682 34.3401 162.502C36.25 162.09 38.1966 161.871 40.1503 161.85C42.0948 161.635 44.0564 161.62 46.0039 161.807Z" fill="white"/>
<path d="M108.851 76.262L111.87 146.418L199.446 147.472L195.515 77.1851L108.851 76.262Z" fill="#8CC63F"/>
<path d="M194.83 75.7627H107.83V141.455H194.83V75.7627Z" fill="#F5F5F5"/>
<path d="M194.831 141.455C194.831 141.455 194.831 141.032 194.831 140.228C194.831 139.425 194.831 138.252 194.831 136.731C194.831 133.647 194.831 129.129 194.765 123.439C194.765 111.981 194.689 95.5932 194.635 75.7627L194.885 76.0016H107.896L108.2 75.7084C108.2 99.3291 108.2 121.701 108.2 141.401L107.928 141.13L170.678 141.26L188.532 141.336H193.278H194.505H194.928H193.332L188.553 141.542L170.775 141.618L107.787 141.749H107.515V141.488C107.515 121.788 107.515 99.416 107.515 75.7953V75.4912H107.82H194.809H195.069V75.741C195.069 95.6258 194.972 112.079 194.939 123.525C194.939 129.227 194.939 133.69 194.874 136.764C194.874 138.263 194.874 139.414 194.874 140.217C194.852 141.064 194.831 141.455 194.831 141.455Z" fill="#A6A6A6"/>
<path d="M153.595 89.6744H118.332V134.06H153.595V89.6744Z" fill="#F5F5F5"/>
<path d="M153.595 134.06C153.583 133.984 153.583 133.907 153.595 133.832V133.202C153.595 132.615 153.595 131.812 153.595 130.78C153.595 128.608 153.595 125.556 153.53 121.668C153.53 113.86 153.443 102.804 153.388 89.6744L153.66 89.9459H118.397C118.321 89.9459 118.962 89.3812 118.69 89.6527V101.718C118.69 105.66 118.69 109.505 118.69 113.23C118.69 120.691 118.69 127.674 118.69 134.016L118.452 133.766L143.984 133.897L151.14 133.962H153.041H153.714C153.508 133.977 153.301 133.977 153.095 133.962H151.249L144.136 134.027L118.452 134.157H118.202V133.908C118.202 127.565 118.202 120.582 118.202 113.121C118.202 109.396 118.202 105.519 118.202 101.61V89.6961C117.93 89.9568 118.56 89.316 118.506 89.3921H153.769H154.04V89.6636C153.986 102.859 153.931 113.979 153.899 121.831L153.834 130.878C153.834 131.891 153.834 132.684 153.834 133.256C153.834 133.495 153.834 133.69 153.834 133.853C153.763 133.931 153.682 134.001 153.595 134.06Z" fill="#A6A6A6"/>
<path d="M187.261 79.5201H119.679V85.9167H187.261V79.5201Z" fill="#F5F5F5"/>
<path d="M187.261 85.9169C187.261 85.9169 187.261 85.754 187.261 85.4825C187.261 85.211 187.261 84.7549 187.261 84.2336C187.261 83.1476 187.261 81.5512 187.185 79.5203L187.305 79.6398C175.912 79.7484 149.935 79.8244 119.722 79.8244C120.319 79.2162 119.885 79.6506 120.026 79.5203V85.8952L119.733 85.5911L167.637 85.7214L182.016 85.8083H185.925H186.957C187.076 85.7994 187.196 85.7994 187.315 85.8083H187H186.012H182.168L167.854 85.906L119.733 86.0255H119.44V85.7323C119.44 84.7114 119.44 83.658 119.44 82.5937V79.3357L119.744 79.0316C149.957 79.0316 175.934 79.1076 187.326 79.2162H187.457V79.3357C187.457 81.3883 187.457 82.9955 187.391 84.125C187.391 84.6354 187.391 85.0264 187.391 85.3305C187.383 85.5321 187.338 85.7305 187.261 85.9169Z" fill="#A6A6A6"/>
<path d="M187.261 89.6744H157.906V116.423H187.261V89.6744Z" fill="#F5F5F5"/>
<path d="M187.261 116.423C187.261 116.423 187.261 116.238 187.261 115.912V114.457C187.261 113.154 187.261 111.319 187.196 109.027C187.196 104.314 187.12 97.6783 187.066 89.6961L187.315 89.9567H157.993L158.286 89.6635V96.842C158.286 99.1878 158.286 101.49 158.286 103.738C158.286 108.223 158.286 112.426 158.286 116.401L158.015 116.14L179.192 116.271L185.198 116.347H186.805C186.993 116.331 187.182 116.331 187.37 116.347C187.2 116.362 187.029 116.362 186.859 116.347H185.306L179.366 116.412L158.015 116.542H157.754V116.271C157.754 112.35 157.754 108.093 157.754 103.608C157.754 101.36 157.754 99.0575 157.754 96.7117V89.5332C157.483 89.7938 158.113 89.164 158.058 89.2291H187.381H187.641V89.4789C187.587 97.5262 187.543 104.227 187.511 109.027C187.511 111.308 187.457 113.121 187.446 114.457C187.446 115.029 187.446 115.496 187.446 115.858C187.41 116.054 187.348 116.244 187.261 116.423Z" fill="#A6A6A6"/>
<path d="M187.261 120.615H157.906V134.06H187.261V120.615Z" fill="#F5F5F5"/>
<path d="M187.261 134.06C187.261 134.06 187.261 133.712 187.261 133.082L187.207 130.389C187.207 128.01 187.142 124.698 187.087 120.615L187.304 120.832L157.982 120.919C157.711 121.19 158.341 120.55 158.275 120.626V127.543C158.275 129.792 158.275 131.974 158.275 134.06L157.982 133.777L178.975 133.907L185.1 133.994H186.751H187.337C187.164 134.01 186.989 134.01 186.816 133.994H185.219L179.17 134.081L157.982 134.212H157.7V133.929C157.7 131.844 157.7 129.661 157.7 127.413V120.495C157.635 120.495 158.265 119.92 158.004 120.191L187.326 120.267H187.467V120.484C187.467 124.622 187.38 127.989 187.359 130.389C187.359 131.475 187.359 132.376 187.359 133.039C187.359 133.381 187.326 133.723 187.261 134.06Z" fill="#A6A6A6"/>
<path d="M152.715 89.7505C141.79 104.835 129.236 118.975 118.321 134.06L152.715 89.7505Z" fill="white"/>
<path d="M118.332 134.06C118.332 134.06 118.408 133.875 118.614 133.56L119.538 132.213C120.341 131.041 121.547 129.379 123.067 127.348C126.097 123.265 130.43 117.748 135.296 111.72C140.161 105.693 144.537 100.22 147.643 96.2122L151.325 91.4663L152.335 90.174C152.574 89.8916 152.704 89.7396 152.726 89.7504C152.647 89.9274 152.549 90.095 152.433 90.25L151.51 91.5966C150.706 92.7695 149.501 94.4311 147.98 96.4728C144.95 100.545 140.617 106.062 135.752 112.09C130.886 118.117 126.521 123.59 123.404 127.598L119.722 132.355L118.712 133.636C118.602 133.792 118.475 133.934 118.332 134.06Z" fill="#A6A6A6"/>
<path d="M153.595 134.06C153.464 134.157 145.461 124.286 135.73 112.057C125.999 99.8287 118.202 89.7831 118.354 89.6745C118.506 89.5659 126.477 99.4486 136.219 111.688C145.96 123.927 153.725 133.94 153.595 134.06Z" fill="#A6A6A6"/>
<path d="M111.87 89.7719C111.87 90.8631 111.547 91.9297 110.941 92.837C110.334 93.7442 109.473 94.4514 108.465 94.8689C107.457 95.2865 106.347 95.3957 105.277 95.1829C104.207 94.97 103.224 94.4445 102.452 93.673C101.681 92.9014 101.155 91.9184 100.942 90.8482C100.73 89.7781 100.839 88.6688 101.256 87.6607C101.674 86.6526 102.381 85.791 103.288 85.1848C104.196 84.5786 105.262 84.255 106.353 84.255C107.816 84.2579 109.217 84.84 110.251 85.874C111.285 86.908 111.867 88.3096 111.87 89.7719Z" fill="#A6A6A6"/>
<path d="M202.107 76.3816C202.107 77.4727 201.783 78.5393 201.177 79.4466C200.571 80.3538 199.709 81.061 198.701 81.4785C197.693 81.8961 196.584 82.0053 195.514 81.7925C194.443 81.5796 193.46 81.0542 192.689 80.2826C191.917 79.5111 191.392 78.528 191.179 77.4579C190.966 76.3877 191.075 75.2784 191.493 74.2703C191.91 73.2622 192.618 72.4006 193.525 71.7944C194.432 71.1882 195.499 70.8646 196.59 70.8646C198.052 70.8675 199.454 71.4497 200.488 72.4837C201.522 73.5177 202.104 74.9193 202.107 76.3816Z" fill="#A6A6A6"/>
<path d="M417.918 114.805H354.344V206.964H417.918V114.805Z" fill="#A6A6A6"/>
<path d="M414.736 114.805H351.162V206.964H414.736V114.805Z" fill="#F5F5F5"/>
<path d="M406.841 124.785H359.057V196.983H406.841V124.785Z" fill="white"/>
<path d="M406.841 196.983C406.841 196.983 406.841 196.853 406.841 196.625C406.841 196.396 406.841 196.049 406.841 195.604C406.841 194.691 406.841 193.367 406.841 191.64C406.841 188.186 406.841 183.136 406.841 176.772C406.841 164.044 406.841 146.017 406.765 124.785L406.928 124.948H359.057L359.231 124.774C359.231 152.011 359.231 177.12 359.231 196.972L359.089 196.831L393.842 196.907H403.453H405.972H406.852H406.005H403.507H393.929L359.068 196.972H358.926V196.842C358.926 176.989 358.926 151.881 358.926 124.644V124.47H359.057H406.841H406.993V124.622C406.993 145.897 406.939 163.957 406.917 176.751C406.917 183.104 406.917 188.132 406.917 191.585C406.917 193.291 406.917 194.605 406.917 195.506C406.917 195.951 406.917 196.277 406.917 196.516L406.841 196.983Z" fill="#A6A6A6"/>
<path d="M414.91 114.805C414.604 115.39 414.24 115.943 413.824 116.456C413.086 117.444 412.032 118.78 410.838 120.235C409.643 121.69 408.524 122.972 407.699 123.895C407.277 124.412 406.808 124.888 406.298 125.317C406.66 124.757 407.067 124.227 407.514 123.732L410.577 120.018L413.629 116.303C414.019 115.773 414.447 115.272 414.91 114.805Z" fill="#A6A6A6"/>
<path d="M407.08 196.744C409.452 200.524 412.247 204.022 415.41 207.17L407.08 196.744Z" fill="white"/>
<path d="M415.41 207.17C414.881 206.783 414.397 206.338 413.965 205.845C412.855 204.72 411.804 203.538 410.816 202.305C409.829 201.07 408.905 199.787 408.047 198.46C407.664 197.924 407.34 197.349 407.08 196.744C407.507 197.241 407.899 197.767 408.253 198.319C408.948 199.307 409.936 200.643 411.088 202.087C412.239 203.532 413.336 204.781 414.139 205.682C414.601 206.144 415.026 206.642 415.41 207.17Z" fill="#A6A6A6"/>
<path d="M351.151 206.887L359.48 196.613L351.151 206.887Z" fill="white"/>
<path d="M359.48 196.613C359.545 196.613 357.743 199.024 355.451 201.859C354.093 203.61 352.643 205.289 351.107 206.887C353.702 203.319 356.482 199.89 359.437 196.613H359.48Z" fill="#A6A6A6"/>
<path d="M351.162 114.805C352.588 116.347 353.937 117.96 355.201 119.638C356.55 121.25 357.808 122.936 358.97 124.687C357.539 123.138 356.19 121.514 354.93 119.822C353.578 118.224 352.32 116.548 351.162 114.805Z" fill="#A6A6A6"/>
<path d="M391.952 139.446H375.955V184.874H391.952V139.446Z" fill="#A6A6A6"/>
<path d="M403.266 16.8811L394.166 16.9303L394.411 62.2162L403.511 62.167L403.266 16.8811Z" fill="#A6A6A6"/>
<path d="M338.89 17.0015L315.324 17.129L315.459 42.1286L339.025 42.0011L338.89 17.0015Z" fill="#8CC63F"/>
<path d="M362.335 16.8857L338.769 17.0132L338.905 42.0127L362.471 41.8852L362.335 16.8857Z" fill="#F5F5F5"/>
<path d="M315.356 24.0576C331.016 24.1879 346.72 24.0576 362.38 23.8404C362.446 23.8404 362.51 23.8141 362.557 23.7673C362.603 23.7204 362.63 23.6569 362.63 23.5906C362.63 23.5244 362.603 23.4608 362.557 23.414C362.51 23.3672 362.446 23.3408 362.38 23.3408C346.705 23.254 331.031 23.3481 315.356 23.6232C315.298 23.6232 315.243 23.6461 315.202 23.6868C315.162 23.7276 315.139 23.7828 315.139 23.8404C315.139 23.898 315.162 23.9533 315.202 23.994C315.243 24.0347 315.298 24.0576 315.356 24.0576Z" fill="#A6A6A6"/>
<path d="M343.443 41.5967L300.622 41.8284L300.732 62.2016L343.553 61.9699L343.443 41.5967Z" fill="#8CC63F"/>
<path d="M386.067 41.366L343.246 41.5977L343.356 61.9709L386.177 61.7392L386.067 41.366Z" fill="#F5F5F5"/>
<path d="M300.651 47.5046C329.105 47.8304 357.645 47.5046 386.088 47.0811C386.154 47.0811 386.217 47.0548 386.264 47.0079C386.311 46.9611 386.337 46.8976 386.337 46.8313C386.337 46.7651 386.311 46.7015 386.264 46.6547C386.217 46.6078 386.154 46.5815 386.088 46.5815C357.634 46.4295 329.094 46.4512 300.651 47.0702C300.594 47.0702 300.538 47.0931 300.498 47.1338C300.457 47.1746 300.434 47.2298 300.434 47.2874C300.434 47.345 300.457 47.4003 300.498 47.441C300.538 47.4818 300.594 47.5046 300.651 47.5046Z" fill="#A6A6A6"/>
<path d="M450.542 62.2092H284.643V69.5072H450.542V62.2092Z" fill="#A6A6A6"/>
<path d="M318.538 65.7169H311.805V90.6191H318.538V65.7169Z" fill="#A6A6A6"/>
<path d="M419.07 65.7169H412.336V90.6191H419.07V65.7169Z" fill="#A6A6A6"/>
<path d="M412.145 -4.52958e-05L403.045 0.0491943L403.382 62.3309L412.482 62.2817L412.145 -4.52958e-05Z" fill="#8CC63F"/>
<path d="M426.369 11.5977L412.23 11.6742L412.503 62.1512L426.643 62.0747L426.369 11.5977Z" fill="#F5F5F5"/>
<path d="M426.27 21.3318C421.57 21.6638 416.852 21.6638 412.152 21.3318C416.852 21.0142 421.569 21.0142 426.27 21.3318Z" fill="#A6A6A6"/>
<path d="M426.27 19.2139C421.57 19.5459 416.852 19.5459 412.152 19.2139C416.852 18.8963 421.569 18.8963 426.27 19.2139Z" fill="#A6A6A6"/>
<path d="M426.27 54.4875C421.57 54.8195 416.852 54.8195 412.152 54.4875C416.852 54.1699 421.569 54.1699 426.27 54.4875Z" fill="#A6A6A6"/>
<path d="M426.27 52.3698C421.57 52.7018 416.852 52.7018 412.152 52.3698C416.852 52.0522 421.569 52.0522 426.27 52.3698Z" fill="#A6A6A6"/>
<path d="M419.428 47.7435C419.287 47.7435 419.178 42.6501 419.178 36.373C419.178 30.0958 419.287 25.0024 419.428 25.0024C419.569 25.0024 419.667 30.0958 419.667 36.373C419.667 42.6501 419.558 47.7435 419.428 47.7435Z" fill="#A6A6A6"/>
<path d="M441.811 24.0033H426.422V62.1005H441.811V24.0033Z" fill="#8CC63F"/>
<path d="M434.556 52.2287C434.098 52.2554 433.639 52.185 433.21 52.0221C432.781 51.8592 432.391 51.6075 432.066 51.2835C431.741 50.9596 431.489 50.5706 431.324 50.142C431.16 49.7135 431.088 49.2551 431.114 48.7969C431.089 48.2975 431.19 47.7999 431.408 47.35C431.627 46.9002 431.955 46.5126 432.362 46.223L432.71 46.7117C432.384 46.9499 432.121 47.2647 431.945 47.6283C431.769 47.9918 431.685 48.3932 431.7 48.7969C431.7 49.5544 432.001 50.2809 432.537 50.8165C433.072 51.3521 433.799 51.6531 434.556 51.6531C435.314 51.6531 436.04 51.3521 436.576 50.8165C437.111 50.2809 437.412 49.5544 437.412 48.7969C437.428 48.3919 437.344 47.9893 437.165 47.6253C436.987 47.2613 436.721 46.9474 436.392 46.7117L436.75 46.223C437.153 46.5165 437.477 46.9052 437.693 47.3543C437.909 47.8034 438.01 48.299 437.988 48.7969C438.013 49.2541 437.941 49.7115 437.778 50.1393C437.614 50.567 437.362 50.9555 437.039 51.2793C436.715 51.6031 436.326 51.855 435.899 52.0186C435.471 52.1822 435.013 52.2538 434.556 52.2287Z" fill="#FAFAFA"/>
<path d="M437.119 45.2783L436.609 44.9851C437.142 44.2828 437.429 43.4237 437.423 42.5416C437.423 41.1189 436.913 40.5433 436.153 40.5433C434.176 40.5433 435.631 45.0394 432.971 45.0394C431.95 45.0394 431.113 44.1815 431.113 42.4656C431.1 41.6425 431.331 40.8338 431.776 40.1415L432.297 40.4456C431.888 41.0427 431.675 41.7527 431.689 42.4764C431.689 43.8014 432.232 44.3878 432.96 44.3878C434.991 44.3878 433.557 39.8917 436.142 39.8917C437.228 39.8917 437.988 40.8474 437.988 42.5742C438.021 43.5491 437.714 44.5051 437.119 45.2783Z" fill="#FAFAFA"/>
<path d="M437.119 39.0773L436.609 38.7841C437.142 38.0818 437.429 37.2226 437.423 36.3405C437.423 34.9179 436.913 34.3423 436.153 34.3423C434.176 34.3423 435.631 38.8275 432.971 38.8275C431.95 38.8275 431.113 37.9804 431.113 36.2645C431.1 35.4414 431.331 34.6328 431.776 33.9405L432.297 34.2337C431.889 34.8354 431.677 35.5484 431.689 36.2754C431.689 37.6003 432.232 38.1868 432.96 38.1868C434.991 38.1868 433.557 33.6907 436.142 33.6907C437.228 33.6907 437.988 34.6355 437.988 36.3623C438.023 37.3407 437.715 38.3007 437.119 39.0773Z" fill="#FAFAFA"/>
<path d="M407.46 13.2737C408.906 13.2737 410.077 12.102 410.077 10.6565C410.077 9.21098 408.906 8.03918 407.46 8.03918C406.015 8.03918 404.843 9.21098 404.843 10.6565C404.843 12.102 406.015 13.2737 407.46 13.2737Z" fill="#A6A6A6"/>
<path d="M408.264 17.8455H406.646V54.9001H408.264V17.8455Z" fill="#A6A6A6"/>
<path d="M469.623 448.883C469.623 449.035 364.726 449.165 235.36 449.165C105.995 449.165 1.07573 449.057 1.07573 448.883C1.07573 448.709 105.952 448.6 235.36 448.6C364.769 448.6 469.623 448.753 469.623 448.883Z" fill="#263238"/>
<path d="M127.932 75.5561C110.502 102.967 111.642 140.977 130.691 167.291C143.386 184.841 162.424 196.614 177.541 212.1C192.659 227.587 204.148 250.447 196.166 270.582C188.043 291.075 164.249 299.404 146.438 312.393C126.787 326.706 113.447 348.076 109.218 372.016C104.99 395.956 110.203 420.603 123.762 440.781H308.84C308.84 440.781 341.355 378.824 299.554 331.594C257.754 284.363 235.306 283.603 236.848 252.63C238.39 221.657 260.067 211.611 272.458 199.991C284.85 188.371 345.221 161.297 309.611 75.5453L127.932 75.5561Z" fill="#FAFAFA"/>
<path d="M127.932 75.5561H131.114H140.497H176.618L309.611 75.4584H309.752V75.5887C312.478 82.0815 314.799 88.737 316.702 95.517C318.701 102.615 320.017 109.889 320.634 117.237C321.274 124.919 320.88 132.651 319.461 140.228C317.902 148.082 315.078 155.63 311.099 162.578C309.037 166.122 306.706 169.502 304.126 172.689C301.494 175.918 298.645 178.966 295.601 181.811C292.518 184.708 289.289 187.445 285.925 190.011C282.558 192.617 279.04 195.071 275.608 197.678C273.892 198.97 272.35 200.425 270.677 201.881C269.005 203.336 267.343 204.693 265.627 206.062C262.207 208.799 258.753 211.492 255.495 214.522C248.695 220.416 243.47 227.91 240.291 236.329C238.763 240.647 237.8 245.144 237.424 249.709C237.326 250.795 237.174 251.989 237.131 253.14C237.087 254.292 237.044 255.443 237.131 256.594C237.155 258.905 237.388 261.21 237.826 263.479C238.687 268.078 240.564 272.427 243.321 276.207C246.158 279.987 249.371 283.469 252.91 286.6C259.937 293.019 267.398 299.155 274.533 305.779C281.668 312.404 288.651 319.311 295.384 326.62C298.82 330.238 302.033 334.06 305.006 338.066C307.997 342.123 310.597 346.453 312.771 351.001C317.166 360.217 319.866 370.15 320.742 380.323C321.628 390.637 321.021 401.025 318.94 411.166C317.928 416.289 316.6 421.345 314.965 426.305C313.357 431.306 311.397 436.187 309.1 440.911L309.024 441.063H123.61L123.534 440.944C114.855 427.876 109.532 412.87 108.037 397.254C106.532 382.254 108.732 367.113 114.444 353.162C119.873 339.826 128.231 327.882 138.901 318.214C144.079 313.643 149.671 309.564 155.604 306.029C161.381 302.445 167.213 299.122 172.719 295.495C178.231 292.05 183.294 287.935 187.793 283.245C192.09 278.638 195.277 273.111 197.111 267.085C198.719 261.205 198.971 255.037 197.85 249.046C196.778 243.264 194.849 237.675 192.126 232.463C189.522 227.444 186.399 222.712 182.808 218.345C179.343 214.155 175.575 210.224 171.536 206.583C163.706 199.372 155.68 193.062 148.469 186.579C144.852 183.321 141.431 180.063 138.271 176.729C135.208 173.465 132.384 169.984 129.822 166.314C125.19 159.583 121.618 152.181 119.233 144.366C117.144 137.617 115.932 130.627 115.628 123.569C115.476 121.961 115.541 120.376 115.541 118.823C115.541 117.27 115.541 115.76 115.682 114.294C115.823 112.828 115.899 111.394 116.008 109.95C116.117 108.506 116.41 107.213 116.594 105.899C117.794 97.8996 120.242 90.138 123.849 82.8975C124.337 81.7775 124.896 80.6893 125.521 79.6395L126.857 77.3698C127.563 76.1643 127.943 75.5561 127.943 75.5561L126.857 77.4023L125.565 79.6395C124.954 80.694 124.403 81.7817 123.914 82.8975C120.34 90.1555 117.922 97.9273 116.746 105.932C116.562 107.235 116.345 108.582 116.182 109.961C116.019 111.34 115.965 112.785 115.856 114.251C115.747 115.717 115.747 117.226 115.736 118.768C115.726 120.311 115.682 121.896 115.834 123.503C116.148 130.538 117.371 137.503 119.472 144.224C121.855 152.012 125.422 159.385 130.05 166.086C132.606 169.741 135.426 173.204 138.488 176.446C141.638 179.791 145.059 183.049 148.675 186.22C155.886 192.737 163.879 198.981 171.764 206.203C175.834 209.87 179.631 213.83 183.123 218.051C186.734 222.451 189.875 227.215 192.496 232.267C195.244 237.511 197.192 243.138 198.273 248.959C199.411 255.015 199.158 261.25 197.535 267.193C195.692 273.29 192.475 278.881 188.13 283.538C183.608 288.255 178.524 292.399 172.991 295.875C167.463 299.513 161.631 302.836 155.865 306.42C149.956 309.946 144.387 314.01 139.227 318.562C128.623 328.18 120.313 340.056 114.911 353.314C109.234 367.194 107.052 382.257 108.558 397.178C110.053 412.705 115.35 427.624 123.979 440.618L123.762 440.499H308.84L308.59 440.651C310.883 435.939 312.836 431.068 314.433 426.077C316.06 421.138 317.38 416.104 318.386 411.003C320.458 400.912 321.061 390.575 320.178 380.312C319.319 370.194 316.637 360.316 312.261 351.153C310.102 346.638 307.524 342.337 304.561 338.305C301.594 334.32 298.396 330.512 294.982 326.902C288.285 319.611 281.346 312.675 274.163 306.094C267.039 299.48 259.6 293.355 252.552 286.904C248.984 283.747 245.742 280.24 242.876 276.435C240.065 272.609 238.14 268.206 237.239 263.544C236.804 261.241 236.568 258.905 236.533 256.561C236.479 255.399 236.533 254.237 236.533 253.075C236.533 251.913 236.729 250.762 236.816 249.611C237.214 245.019 238.2 240.497 239.748 236.155C242.954 227.662 248.229 220.104 255.093 214.163C258.351 211.144 261.837 208.408 265.258 205.682C266.974 204.313 268.657 202.934 270.297 201.522C271.937 200.111 273.555 198.59 275.249 197.287C278.703 194.68 282.211 192.226 285.567 189.631C288.92 187.076 292.142 184.354 295.221 181.475C298.245 178.642 301.079 175.613 303.703 172.406C306.262 169.231 308.581 165.869 310.643 162.35C314.599 155.45 317.409 147.953 318.961 140.152C320.374 132.637 320.772 124.967 320.145 117.346C319.538 109.998 318.233 102.725 316.246 95.6256C314.37 88.8269 312.077 82.1499 309.383 75.6321L309.567 75.7516L176.651 75.6539H140.508H131.104L127.932 75.5561Z" fill="#263238"/>
<path d="M302.226 125.828C329.485 130.313 286.511 178.597 262.174 197.645C248.056 208.668 232.96 220.636 226.27 237.23C218.668 256.062 224.305 277.217 220.634 296.157C220.516 296.81 220.155 297.395 219.624 297.792C219.092 298.19 218.43 298.373 217.77 298.302C217.11 298.232 216.501 297.915 216.066 297.414C215.63 296.914 215.4 296.267 215.421 295.603C215.595 283.169 215.269 270.745 213.249 258.505C210.328 241.129 203.66 223.981 191.529 211.264C181.592 200.871 168.571 193.975 157.982 184.266C142.517 170.093 126.629 151.816 125.076 130.899C125.076 130.899 154.768 107.007 171.253 109.994C190.519 113.523 209.481 143.247 239.324 139.848C260.089 137.47 270.612 120.636 302.226 125.828Z" fill="#8CC63F"/>
<path d="M304.648 384.244C303.964 377.423 302.139 369.713 296.09 366.498C292.43 364.543 287.967 364.761 283.948 365.814C279.93 366.867 276.162 368.703 272.187 369.886C264.285 372.21 255.847 371.94 248.11 369.115C240.714 366.4 234.372 361.513 227.476 357.625C220.58 353.738 212.576 350.892 204.93 352.793C191.746 356.051 184.883 371.95 171.851 375.784C166.051 377.478 159.828 376.522 153.942 375.197C148.056 373.872 142.137 372.145 136.11 372.373C131.375 372.547 126.455 374.187 123.143 377.423L123.056 377.521C122.505 378.061 122.003 378.65 121.558 379.28C117.518 384.711 116.866 391.911 118.115 398.492C119.505 405.866 122.948 412.675 126.64 419.202C130.984 426.891 135.936 434.537 143.126 439.663C152.009 445.994 163.163 441.628 174.033 442.486C199.37 444.484 226.629 445.842 251.976 443.887C265.367 442.801 277.91 444.3 288.531 436.079C296.003 430.301 300.868 421.591 303.214 412.447C305.56 403.303 305.593 393.638 304.648 384.244Z" fill="#8CC63F"/>
<g opacity="0.24">
<path d="M256.82 371.19C255.397 373.362 254.778 376.316 256.157 378.531C257.537 380.747 259.415 382.777 260.002 385.33C260.947 389.326 258.536 393.236 256.744 396.939C253.427 403.56 252.175 411.025 253.149 418.366C254.177 425.731 257.98 432.425 263.781 437.078C266.355 439.065 269.7 440.607 272.806 439.63C275.727 438.718 277.606 435.753 278.236 432.745C278.866 429.736 278.334 426.641 277.954 423.611C276.185 409.49 276.551 395.183 279.04 381.17C279.452 378.835 279.843 376.164 278.366 374.307C277.301 373.225 275.948 372.471 274.468 372.135C268.82 370.256 262.728 372.341 256.874 371.233" fill="black"/>
</g>
<path d="M110.176 449.187C110.176 449.187 109.666 440.694 120.743 435.959H315.41C315.41 435.959 325.564 441.107 326.813 448.991L110.176 449.187Z" fill="#263238"/>
<path d="M311.272 76.588L310.957 76.7291L127.911 75.5562C127.911 75.5562 127.259 75.1436 126.293 74.3725C125.151 73.4786 124.319 72.2498 123.912 70.8586C123.505 69.4674 123.543 67.9836 124.023 66.6155C124.502 65.2475 125.397 64.0638 126.584 63.2307C127.77 62.3976 129.187 61.9568 130.637 61.9703L308.308 63.4038C315.616 63.469 317.919 73.4602 311.272 76.588Z" fill="#263238"/>
<g opacity="0.24">
<path d="M281.95 146.418C282.319 147.124 280.94 148.59 278.323 150.979C275.706 153.369 271.807 156.507 266.963 160.449C261.148 165.254 254.976 169.611 248.501 173.482C244.479 175.811 240.247 177.756 235.86 179.292C233.483 180.113 231.056 180.784 228.595 181.301C226.009 181.85 223.383 182.191 220.743 182.322C215.392 182.613 210.036 181.875 204.963 180.15C200.478 178.519 196.216 176.329 192.278 173.634C188.629 171.223 185.491 168.833 182.504 166.542C179.518 164.25 176.857 162.046 174.446 159.961C164.835 151.631 159.774 145.506 160.752 144.322C161.729 143.138 168.571 146.994 179.214 153.51L187.902 158.831C191.019 160.721 194.353 162.817 197.763 164.75C201.147 166.736 204.733 168.357 208.46 169.583C212.274 170.725 216.257 171.195 220.232 170.973C228.573 170.538 236.664 167.606 243.668 164.218C250.673 160.83 257.015 156.876 262.511 153.792C266.859 151.226 271.406 149.011 276.107 147.168C279.55 145.962 281.635 145.734 281.95 146.418Z" fill="black"/>
</g>
<path d="M215.552 318.844C216.321 318.538 217.18 318.547 217.943 318.87C218.705 319.192 219.31 319.803 219.627 320.568C219.943 321.333 219.945 322.192 219.632 322.959C219.32 323.726 218.718 324.339 217.956 324.665C217.195 324.991 216.336 325.005 215.565 324.702C214.794 324.4 214.174 323.806 213.837 323.049C213.501 322.292 213.477 321.433 213.769 320.659C214.061 319.884 214.647 319.255 215.4 318.909" fill="#8CC63F"/>
<path d="M150.087 176.707C149.849 176.512 149.631 176.293 149.435 176.055L147.665 174.122C146.916 173.264 145.928 172.265 144.918 170.995L141.464 166.651C140.28 164.978 138.945 163.175 137.598 161.221L135.61 158.06C135.274 157.517 134.915 156.974 134.59 156.399L133.634 154.639C130.744 149.517 128.479 144.066 126.89 138.403C125.292 132.746 124.431 126.905 124.327 121.027C124.327 119.67 124.403 118.356 124.425 117.063C124.425 116.423 124.425 115.793 124.511 115.174C124.598 114.555 124.642 113.947 124.707 113.349C124.848 112.155 124.935 110.993 125.098 109.885C125.261 108.777 125.489 107.713 125.673 106.725C125.978 104.694 126.521 102.924 126.901 101.295C127.107 100.513 127.27 99.7741 127.476 99.1225L128.074 97.3089L128.91 94.8219C128.99 94.5259 129.099 94.2385 129.236 93.964C129.191 94.2669 129.118 94.565 129.018 94.8545C128.834 95.4844 128.595 96.3206 128.28 97.3741L127.737 99.1877C127.552 99.8502 127.4 100.589 127.205 101.36C126.857 102.934 126.347 104.715 126.119 106.79C125.945 107.789 125.771 108.842 125.587 109.939C125.402 111.036 125.359 112.187 125.228 113.382C125.228 113.979 125.109 114.576 125.044 115.195C124.978 115.815 125.044 116.444 124.978 117.074C124.978 118.356 124.892 119.659 124.902 121.006C125.008 126.849 125.859 132.655 127.433 138.284C129.014 143.905 131.248 149.321 134.09 154.422C134.405 155.009 134.72 155.595 135.024 156.181C135.328 156.768 135.708 157.267 136.034 157.832L137.989 160.992C139.314 162.991 140.628 164.794 141.779 166.423L145.167 170.767C146.145 172.059 147.111 173.069 147.828 173.959L149.522 175.969C149.726 176.203 149.914 176.449 150.087 176.707Z" fill="#263238"/>
<path d="M139.781 338.045C139.835 337.919 139.9 337.799 139.976 337.686L140.628 336.665C140.921 336.209 141.279 335.666 141.714 335.015L142.398 333.929C142.67 333.57 142.984 333.212 143.299 332.843L145.471 330.236C146.308 329.335 147.263 328.401 148.273 327.38C150.615 325.125 153.104 323.028 155.723 321.103C161.49 316.759 168.929 312.415 176.987 307.321C181.225 304.71 185.298 301.841 189.183 298.731C193.352 295.41 197.033 291.521 200.119 287.176C205.768 278.497 208.837 268.393 208.97 258.038C209.108 249.599 207.694 241.206 204.8 233.277C202.883 227.927 200.476 222.764 197.611 217.856C196.601 216.107 195.775 214.782 195.211 213.881L194.57 212.86C194.429 212.632 194.364 212.502 194.364 212.502C194.46 212.599 194.544 212.709 194.613 212.828L195.308 213.827C195.906 214.696 196.764 215.999 197.795 217.747C200.75 222.629 203.223 227.787 205.18 233.147C208.152 241.108 209.625 249.551 209.524 258.049C209.478 260.499 209.279 262.944 208.927 265.369C208.575 267.905 208.042 270.413 207.33 272.873C205.847 278.082 203.541 283.02 200.499 287.502C197.382 291.894 193.66 295.824 189.444 299.176C185.535 302.289 181.441 305.162 177.183 307.777C169.092 312.827 161.642 317.128 155.875 321.439C153.257 323.339 150.761 325.403 148.404 327.619C147.394 328.629 146.427 329.541 145.58 330.432L143.408 332.984C143.082 333.375 142.767 333.733 142.496 334.07L141.79 335.101L140.704 336.72L140.009 337.708C139.942 337.826 139.866 337.939 139.781 338.045Z" fill="#263238"/>
<path d="M129.681 357.235C129.615 357.411 129.535 357.582 129.442 357.745L128.66 359.124C128.312 359.711 127.9 360.449 127.476 361.296C127.053 362.143 126.51 363.142 126.054 364.283C125.815 364.847 125.554 365.434 125.293 366.042C125.033 366.65 124.816 367.324 124.555 367.997C124.034 369.344 123.621 370.821 123.143 372.341C121.254 379.149 120.603 386.241 121.221 393.279C121.405 394.886 121.536 396.429 121.818 397.84C121.938 398.546 122.035 399.241 122.177 399.893C122.318 400.545 122.47 401.174 122.611 401.772C122.85 402.977 123.208 404.031 123.469 404.965C123.73 405.899 123.99 406.702 124.229 407.354L124.74 408.853C124.813 409.022 124.86 409.201 124.881 409.385C124.776 409.234 124.692 409.069 124.631 408.896C124.468 408.494 124.273 408.016 124.023 407.43C123.695 406.657 123.408 405.866 123.165 405.062C122.872 404.128 122.491 403.075 122.22 401.87C122.068 401.272 121.916 400.642 121.753 399.991C121.59 399.339 121.492 398.633 121.351 397.927C121.047 396.494 120.895 394.952 120.7 393.334C120.02 386.252 120.675 379.105 122.633 372.265C123.121 370.701 123.556 369.213 124.11 367.867C124.381 367.193 124.598 366.531 124.881 365.912L125.684 364.142C126.162 363.056 126.77 362.046 127.194 361.177C127.577 360.43 128.001 359.705 128.465 359.005L129.333 357.669C129.551 357.376 129.659 357.224 129.681 357.235Z" fill="#263238"/>
<path d="M263.944 383.342L263.727 383.494L263.054 383.918L260.415 385.503L258.503 386.589C257.786 386.991 256.994 387.36 256.147 387.784C254.431 388.609 252.541 389.663 250.304 390.51L246.829 391.932C245.623 392.41 244.309 392.79 242.984 393.246C240.345 394.213 237.413 394.908 234.361 395.701C220.962 398.839 207.063 399.209 193.516 396.787C190.41 396.157 187.457 395.614 184.763 394.789C183.417 394.398 182.092 394.094 180.854 393.703L177.313 392.41C175.043 391.683 173.089 390.738 171.34 389.999C170.471 389.619 169.657 389.283 168.929 388.913L166.953 387.882L164.238 386.437L163.543 386.046L163.315 385.905C163.315 385.905 163.412 385.905 163.575 386.003L164.292 386.339L167.05 387.686L169.038 388.663C169.776 389.011 170.602 389.326 171.47 389.695C173.219 390.39 175.174 391.313 177.454 392.008L180.951 393.279C182.189 393.692 183.514 393.985 184.861 394.365C187.543 395.169 190.486 395.679 193.549 396.298C207.033 398.633 220.847 398.264 234.187 395.212C237.228 394.43 240.15 393.768 242.789 392.823C244.114 392.378 245.417 392.019 246.622 391.541L250.098 390.162C252.335 389.337 254.235 388.316 255.951 387.523C256.798 387.111 257.602 386.752 258.319 386.437L260.252 385.351L262.934 383.852L263.64 383.483C263.857 383.364 263.944 383.331 263.944 383.342Z" fill="#263238"/>
<path d="M275.271 153.488C275.205 153.567 275.128 153.636 275.043 153.695L274.326 154.281C273.664 154.813 272.741 155.562 271.557 156.453C269.146 158.364 265.649 161.134 261.229 164.435C256.086 168.373 250.691 171.971 245.08 175.208C241.743 177.076 238.265 178.677 234.676 179.998C230.805 181.406 226.768 182.304 222.665 182.669C214.688 183.117 206.734 181.462 199.598 177.869C196.512 176.302 193.534 174.531 190.682 172.569C188.032 170.701 185.61 168.888 183.471 167.139C179.127 163.686 175.804 160.764 173.458 158.766L170.775 156.442L170.091 155.834L169.863 155.606C169.863 155.606 169.961 155.606 170.124 155.78L170.851 156.355L173.599 158.592C175.988 160.547 179.398 163.414 183.721 166.824C185.893 168.529 188.293 170.321 190.953 172.168C193.795 174.095 196.759 175.837 199.826 177.38C206.891 180.902 214.751 182.522 222.632 182.083C226.686 181.723 230.676 180.84 234.502 179.455C238.066 178.152 241.523 176.572 244.841 174.73C250.444 171.552 255.844 168.031 261.012 164.185C265.443 160.927 268.972 158.212 271.438 156.355L274.272 154.183L275.021 153.64C275.097 153.577 275.181 153.526 275.271 153.488Z" fill="#263238"/>
<g opacity="0.24">
<path d="M177.324 392.465C182.472 388.49 189.705 389.446 196.069 390.792C202.433 392.139 208.84 394.3 215.28 393.399C220.135 392.715 224.587 390.336 229.398 389.294C234.209 388.251 239.998 389.022 242.658 393.138C221.392 399.99 198.477 399.754 177.357 392.465" fill="black"/>
</g>
<path d="M356.885 362.991L333.536 336.807L333.297 368.638L340.334 389.055L270.373 401.185L267.408 345.984L262.369 303.629C262.07 301.104 262.615 298.551 263.92 296.368C265.224 294.185 267.215 292.496 269.58 291.564L288.835 283.962L315.986 288.936L326.9 293.084C331.476 294.827 335.555 297.664 338.781 301.349L371.622 338.903" fill="#8CC63F"/>
<path d="M331.907 330.508C333.225 330.49 334.541 330.396 335.849 330.226C338.999 329.745 341.933 328.335 344.276 326.175C346.62 324.016 348.264 321.206 349 318.106C349.271 316.811 349.47 315.502 349.598 314.185C349.686 314.54 349.719 314.906 349.695 315.271C349.703 316.257 349.601 317.24 349.391 318.203C348.734 321.428 347.078 324.364 344.66 326.596C342.241 328.828 339.181 330.242 335.914 330.638C334.938 330.764 333.951 330.786 332.971 330.703C332.608 330.696 332.248 330.63 331.907 330.508Z" fill="white"/>
<path d="M333.937 367.28C334.1 367.28 334.144 356.246 334.035 342.649C333.926 329.053 333.698 318.03 333.536 318.03C333.373 318.03 333.329 329.053 333.438 342.66C333.546 356.268 333.774 367.28 333.937 367.28Z" fill="#263238"/>
<path d="M331.374 375.371L289.107 358.353C287.436 357.681 285.986 356.554 284.921 355.102C283.856 353.649 283.218 351.928 283.08 350.132L279.984 309.602C279.984 309.602 280.354 292.356 269.58 291.52L263.488 293.931C255.571 298.134 253.616 309.667 254.691 318.562C256.223 331.203 256.863 349.1 258.568 360.069C259.98 369.05 265.084 376.946 273.903 379.259L325.966 390.532L331.374 375.371Z" fill="#8CC63F"/>
<path d="M280.593 315.782C280.663 316.085 280.707 316.394 280.723 316.705C280.788 317.367 280.886 318.258 280.994 319.377C281.212 321.755 281.516 325.1 281.885 329.205C282.254 333.31 282.667 338.317 283.145 343.79C283.253 345.169 283.373 346.57 283.492 348.004C283.576 349.462 283.758 350.914 284.035 352.348C284.33 353.798 285.066 355.122 286.142 356.138C287.3 357.156 288.617 357.978 290.041 358.571C301.694 363.61 312.434 367.78 320.232 370.701L329.496 374.111L332.015 375.035C332.31 375.132 332.597 375.252 332.873 375.393C332.566 375.337 332.264 375.253 331.972 375.143L329.42 374.318C327.248 373.579 323.99 372.482 320.102 371.06C312.25 368.236 301.498 364.131 289.802 359.114C288.323 358.492 286.955 357.634 285.751 356.572C284.596 355.476 283.807 354.05 283.492 352.489C283.212 351.034 283.034 349.56 282.96 348.08C282.841 346.635 282.732 345.234 282.623 343.855C282.2 338.425 281.809 333.43 281.537 329.259C281.266 325.089 280.994 321.798 280.821 319.42C280.745 318.334 280.69 317.4 280.658 316.738C280.608 316.421 280.587 316.102 280.593 315.782Z" fill="#263238"/>
<path d="M256.375 337.817C256.418 337.995 256.444 338.176 256.451 338.36L256.592 339.923C256.722 341.368 256.885 343.312 257.091 345.679C257.298 348.047 257.624 350.99 258.047 354.183C258.463 357.64 259.097 361.068 259.948 364.445C260.347 366.185 261.046 367.842 262.011 369.343C262.954 370.722 264.011 372.019 265.171 373.22C267.148 375.254 269.431 376.965 271.937 378.292C274.274 379.48 276.779 380.3 279.365 380.725C279.182 380.748 278.995 380.748 278.812 380.725C278.286 380.69 277.764 380.621 277.248 380.518C275.337 380.162 273.487 379.537 271.752 378.661C269.176 377.364 266.828 375.655 264.802 373.601C263.601 372.386 262.511 371.066 261.544 369.658C260.53 368.115 259.795 366.406 259.372 364.608C258.51 361.205 257.882 357.747 257.493 354.259C257.102 351.001 256.842 348.155 256.668 345.723C256.494 343.29 256.396 341.313 256.342 339.945C256.342 339.315 256.342 338.794 256.342 338.37C256.323 338.185 256.334 337.998 256.375 337.817Z" fill="#263238"/>
<path d="M274.446 366.172C274.557 365.381 274.819 364.618 275.217 363.924C276.088 362.193 277.295 360.654 278.768 359.395C280.241 358.136 281.951 357.184 283.796 356.594C284.545 356.308 285.341 356.172 286.142 356.192C285.431 356.488 284.707 356.749 283.97 356.974C282.224 357.649 280.605 358.615 279.181 359.83C277.76 361.048 276.553 362.494 275.608 364.109C274.848 365.358 274.533 366.205 274.446 366.172Z" fill="#263238"/>
<path d="M282.765 335.352C282.857 335.379 282.945 335.419 283.025 335.471L283.785 335.873C284.766 336.356 285.774 336.78 286.805 337.143C290.605 338.477 294.681 338.828 298.653 338.164C304.553 337.112 309.825 333.835 313.379 329.009C315.504 326.222 316.836 322.913 317.235 319.431C317.432 317.601 317.239 315.75 316.67 314.001C316.069 312.214 315.022 310.611 313.629 309.342C312.256 308.056 310.526 307.216 308.666 306.931C307.785 306.773 306.88 306.817 306.018 307.06C305.156 307.302 304.361 307.737 303.692 308.332C303.086 308.925 302.735 309.732 302.715 310.58C302.733 311.423 303.023 312.238 303.54 312.904C304.079 313.547 304.741 314.078 305.487 314.463C306.232 314.849 307.047 315.083 307.884 315.152C310.825 315.518 313.811 315.141 316.568 314.054C319.325 312.966 321.765 311.204 323.664 308.929C325.103 307.158 326.187 305.127 326.857 302.945C327.356 301.292 327.626 299.578 327.66 297.852C327.672 296.761 327.592 295.671 327.421 294.594C327.356 294.257 327.302 293.975 327.269 293.757C327.26 293.66 327.26 293.562 327.269 293.464C327.718 294.868 327.938 296.335 327.921 297.808C327.932 299.56 327.691 301.305 327.204 302.989C325.995 307.046 323.385 310.542 319.839 312.855C316.293 315.168 312.041 316.148 307.841 315.619C306.944 315.54 306.071 315.284 305.274 314.866C304.476 314.449 303.769 313.878 303.192 313.186C302.603 312.427 302.275 311.497 302.259 310.536C302.259 309.548 302.65 308.6 303.345 307.897C304.074 307.246 304.941 306.767 305.881 306.496C306.821 306.225 307.81 306.17 308.775 306.333C310.75 306.626 312.588 307.517 314.042 308.886C315.512 310.214 316.612 311.902 317.235 313.783C317.826 315.603 318.026 317.528 317.821 319.431C317.397 322.988 316.02 326.365 313.835 329.205C310.821 333.319 306.541 336.332 301.652 337.783C296.762 339.234 291.532 339.044 286.761 337.241C285.352 336.79 284.008 336.155 282.765 335.352Z" fill="white"/>
<path d="M255.071 324.546C255.255 324.22 255.49 323.927 255.766 323.677C256.461 322.942 257.224 322.276 258.047 321.689C260.82 319.784 264.044 318.642 267.398 318.377C269.237 318.17 271.098 318.247 272.915 318.605C274.391 318.912 275.819 319.416 277.161 320.104C278.061 320.558 278.926 321.08 279.746 321.668C280.063 321.862 280.348 322.104 280.593 322.384C280.527 322.471 279.268 321.516 276.987 320.462C274.014 319.084 270.717 318.557 267.463 318.942C264.195 319.2 261.04 320.255 258.275 322.015C256.179 323.416 255.147 324.622 255.071 324.546Z" fill="white"/>
<path d="M261.837 295.56C262.868 296.531 264.017 297.366 265.258 298.047C266.613 298.742 268.087 299.177 269.602 299.329C271.447 299.514 273.309 299.253 275.032 298.568C276.722 297.848 278.212 296.73 279.376 295.31C280.338 294.126 281.074 292.775 281.548 291.325C281.939 289.963 282.161 288.559 282.211 287.144C282.316 287.518 282.364 287.906 282.352 288.295C282.37 289.36 282.227 290.422 281.928 291.444C281.486 292.97 280.748 294.394 279.756 295.636C278.566 297.194 276.984 298.408 275.172 299.156C273.36 299.904 271.382 300.158 269.439 299.893C267.865 299.715 266.34 299.228 264.954 298.46C264.021 297.947 263.171 297.296 262.435 296.527C262.178 296.244 261.975 295.916 261.837 295.56Z" fill="white"/>
<path d="M298.675 362.208C298.677 361.938 298.706 361.669 298.762 361.405C298.913 360.65 299.165 359.92 299.511 359.233C300.892 356.703 303.135 354.753 305.832 353.737C309.801 352.159 314.194 352.002 318.266 353.292C320.504 353.955 323.066 354.78 324.782 356.963C325.214 357.52 325.486 358.184 325.57 358.884C325.655 359.584 325.547 360.294 325.26 360.938C324.605 362.194 323.545 363.193 322.252 363.772C321.004 364.39 319.637 364.731 318.245 364.771C316.862 364.838 315.501 364.415 314.4 363.577C313.892 363.143 313.478 362.61 313.183 362.011C312.888 361.411 312.718 360.758 312.684 360.09C312.613 358.843 312.809 357.596 313.26 356.431C314.896 352.472 318.014 349.308 321.948 347.612C324.558 346.449 327.418 345.956 330.267 346.179C331.304 346.258 332.327 346.473 333.308 346.819C333.308 346.895 332.222 346.537 330.245 346.396C327.885 346.268 325.523 346.623 323.305 347.439C321.086 348.255 319.058 349.515 317.343 351.142C315.751 352.667 314.51 354.519 313.705 356.572C313.284 357.668 313.102 358.842 313.173 360.015C313.204 360.609 313.357 361.19 313.623 361.722C313.888 362.255 314.26 362.727 314.715 363.11C315.708 363.872 316.94 364.257 318.19 364.196C319.496 364.162 320.778 363.843 321.948 363.262C323.129 362.735 324.099 361.829 324.706 360.688C324.951 360.133 325.042 359.523 324.969 358.921C324.896 358.319 324.663 357.748 324.294 357.267C323.536 356.311 322.565 355.544 321.459 355.03C320.387 354.517 319.271 354.099 318.125 353.781C314.16 352.498 309.876 352.609 305.984 354.096C303.345 355.05 301.125 356.899 299.706 359.319C299.236 360.232 298.889 361.204 298.675 362.208Z" fill="white"/>
<path d="M270.525 377.467C270.525 377.358 272.133 377.228 274.576 376.381C277.766 375.257 280.624 373.353 282.889 370.841C285.154 368.33 286.754 365.291 287.543 362.002C288.162 359.483 288.14 357.843 288.249 357.854C288.325 358.229 288.343 358.613 288.303 358.994C288.278 360.035 288.155 361.071 287.934 362.089C287.23 365.484 285.633 368.629 283.308 371.201C280.983 373.772 278.013 375.677 274.706 376.718C273.716 377.04 272.698 377.269 271.666 377.402C271.291 377.478 270.907 377.5 270.525 377.467Z" fill="white"/>
<path d="M256.82 345.962C256.981 345.872 257.152 345.802 257.33 345.756C257.678 345.647 258.177 345.495 258.84 345.321C260.72 344.826 262.666 344.629 264.607 344.735C265.955 344.837 267.276 345.163 268.516 345.701C269.961 346.324 271.218 347.312 272.165 348.568C273.205 349.993 273.709 351.739 273.588 353.499C273.518 354.435 273.232 355.342 272.752 356.149C272.266 356.999 271.497 357.652 270.58 357.995C270.096 358.16 269.577 358.194 269.076 358.095C268.574 357.996 268.108 357.767 267.723 357.43C267.072 356.712 266.718 355.772 266.735 354.802C266.679 353.072 267.021 351.351 267.734 349.774C268.725 347.526 270.439 345.673 272.604 344.51C274.768 343.347 277.259 342.941 279.68 343.355C280.201 343.436 280.714 343.564 281.212 343.736C281.548 343.866 281.722 343.942 281.711 343.964C281.7 343.985 280.984 343.736 279.648 343.573C277.76 343.344 275.845 343.591 274.077 344.289C271.457 345.341 269.36 347.387 268.245 349.98C267.581 351.487 267.266 353.124 267.322 354.769C267.299 355.6 267.594 356.408 268.147 357.028C268.458 357.293 268.833 357.473 269.235 357.549C269.637 357.625 270.052 357.595 270.438 357.463C271.243 357.165 271.919 356.597 272.35 355.855C272.782 355.123 273.042 354.303 273.11 353.455C273.224 351.824 272.767 350.204 271.818 348.872C270.936 347.677 269.757 346.733 268.397 346.136C267.208 345.596 265.939 345.258 264.639 345.136C262.74 344.995 260.83 345.13 258.97 345.538C257.569 345.81 256.842 346.005 256.82 345.962Z" fill="white"/>
<g opacity="0.3">
<path d="M319.222 370.538C314.704 367.986 310.284 366.02 305.56 363.881C300.836 361.741 296.199 358.972 293.103 354.802C287.272 346.939 287.934 335.59 281.972 327.836C282.363 333.049 282.75 338.265 283.134 343.486C283.492 348.264 282.765 352.999 285.838 356.246C288.434 358.983 293.494 361.079 297.078 362.263C304.278 364.641 312.033 368.171 319.222 370.538Z" fill="black"/>
</g>
<path d="M392.723 430.106C392.723 430.106 428.094 439.88 429.517 440.401C431.689 441.15 431.287 448.959 427.975 448.828C426.4 448.774 400.825 449.784 397.567 449.589C394.309 449.393 384.535 445.538 384.535 445.538L392.723 430.106Z" fill="#8CC63F"/>
<path d="M407.417 443.605C407.854 442.305 408.376 441.035 408.981 439.804C409.742 438.665 410.576 437.577 411.478 436.546C410.22 437.235 409.175 438.257 408.459 439.5C407.742 440.743 407.382 442.16 407.417 443.594V443.605Z" fill="#263238"/>
<path d="M403.724 441.932C403.898 441.932 404.256 440.293 405.201 438.446C406.146 436.6 407.254 435.308 407.134 435.188C406.102 435.992 405.261 437.015 404.671 438.183C404.081 439.351 403.758 440.635 403.724 441.943V441.932Z" fill="#263238"/>
<path d="M400.325 441.009C400.499 439.744 400.775 438.494 401.15 437.273C401.705 436.121 402.348 435.014 403.073 433.961C401.951 434.716 401.087 435.796 400.596 437.055C400.105 438.315 400.011 439.694 400.325 441.009Z" fill="#263238"/>
<path d="M400.901 436.437C401.212 435.598 401.342 434.702 401.281 433.809C401.27 432.836 401.149 431.867 400.922 430.92C400.786 430.361 400.608 429.813 400.39 429.28C400.288 428.943 400.092 428.642 399.826 428.412C399.647 428.279 399.428 428.213 399.206 428.225C398.984 428.237 398.773 428.326 398.609 428.477C398.335 428.74 398.168 429.096 398.142 429.476C398.115 429.787 398.115 430.099 398.142 430.41C398.145 430.992 398.218 431.572 398.359 432.137C398.594 433.084 398.96 433.994 399.445 434.841C399.834 435.657 400.372 436.394 401.031 437.013C401.118 437.013 400.521 436.133 399.815 434.689C399.402 433.853 399.092 432.971 398.892 432.061C398.777 431.529 398.719 430.986 398.718 430.442C398.718 429.899 398.718 429.226 399.044 428.965C399.108 428.907 399.191 428.875 399.277 428.875C399.363 428.875 399.447 428.907 399.511 428.965C399.687 429.139 399.821 429.351 399.902 429.584C400.11 430.095 400.287 430.617 400.434 431.148C400.682 432.05 400.839 432.974 400.901 433.907C400.966 435.427 400.803 436.426 400.901 436.437Z" fill="#263238"/>
<path d="M400.857 436.079C400.137 435.778 399.355 435.651 398.577 435.71C397.731 435.709 396.889 435.811 396.068 436.014C395.562 436.128 395.073 436.307 394.613 436.546C394.323 436.693 394.089 436.931 393.946 437.222C393.803 437.514 393.759 437.845 393.82 438.164C393.901 438.469 394.061 438.747 394.284 438.97C394.508 439.193 394.786 439.353 395.091 439.435C395.611 439.565 396.156 439.565 396.676 439.435C397.513 439.243 398.299 438.873 398.978 438.349C399.622 437.917 400.179 437.368 400.618 436.73C399.965 437.113 399.337 437.537 398.74 438.001C398.083 438.452 397.345 438.773 396.567 438.946C396.136 439.054 395.685 439.054 395.253 438.946C395.049 438.894 394.863 438.79 394.712 438.643C394.561 438.496 394.452 438.312 394.395 438.11C394.362 437.911 394.395 437.706 394.49 437.528C394.584 437.349 394.734 437.206 394.917 437.121C395.32 436.899 395.751 436.731 396.198 436.622C396.978 436.4 397.779 436.261 398.587 436.209C399.967 436.035 400.835 436.177 400.857 436.079Z" fill="#263238"/>
<path d="M412.847 443.985C412.998 442.904 413.234 441.836 413.553 440.792C414.049 439.822 414.627 438.895 415.279 438.023C414.249 438.584 413.445 439.484 413.001 440.571C412.558 441.657 412.504 442.863 412.847 443.985Z" fill="#263238"/>
<path d="M388.173 445.625C388.601 445.896 389.06 446.115 389.541 446.276C390.825 446.764 392.138 447.17 393.472 447.493C397.908 448.46 402.444 448.89 406.982 448.774C412.282 448.709 417.06 448.47 420.525 448.329L424.619 448.112C425.122 448.103 425.623 448.052 426.118 447.96C425.619 447.881 425.113 447.856 424.608 447.884H420.514L406.982 448.144C402.486 448.26 397.99 447.895 393.57 447.058C390.182 446.374 388.216 445.505 388.173 445.625Z" fill="#263238"/>
<path d="M387.13 446.428C387.13 446.504 388.14 445.94 389.78 445.223C391.863 444.239 394.182 443.863 396.47 444.137C398.72 444.625 400.751 445.829 402.258 447.569C402.886 448.31 403.564 449.007 404.289 449.654C403.823 448.79 403.242 447.994 402.562 447.286C401.865 446.476 401.078 445.747 400.217 445.114C399.137 444.315 397.882 443.787 396.557 443.572C394.156 443.281 391.725 443.741 389.595 444.886C388.696 445.264 387.863 445.785 387.13 446.428Z" fill="#263238"/>
<path d="M355.136 420.343C355.136 420.343 321.666 442.258 320.471 443.149C318.668 444.506 320.732 450.99 323.859 449.871C325.336 449.339 353.42 441.52 356.44 440.347C359.459 439.174 367.593 432.593 367.593 432.593L355.136 420.343Z" fill="#8CC63F"/>
<path d="M345.199 437.675C344.796 436.297 344.021 435.057 342.96 434.09C341.899 433.122 340.592 432.465 339.183 432.191C340.36 432.897 341.488 433.68 342.56 434.537C343.504 435.527 344.386 436.575 345.199 437.675Z" fill="#263238"/>
<path d="M348.197 434.96C347.771 433.721 347.076 432.591 346.161 431.652C345.247 430.713 344.136 429.989 342.908 429.53C342.821 429.682 344.287 430.616 345.731 432.05C347.176 433.483 348.045 435.047 348.197 434.96Z" fill="#263238"/>
<path d="M351.216 433.027C351.211 431.66 350.692 430.346 349.761 429.345C348.982 428.241 347.821 427.467 346.503 427.173C347.51 427.96 348.457 428.82 349.337 429.747C350.049 430.789 350.677 431.886 351.216 433.027Z" fill="#263238"/>
<path d="M349.283 428.868C349.37 428.868 348.913 427.923 348.533 426.359C348.305 425.452 348.17 424.524 348.132 423.59C348.094 423.04 348.094 422.489 348.132 421.939C348.127 421.691 348.191 421.447 348.316 421.233C348.363 421.159 348.437 421.107 348.522 421.086C348.607 421.066 348.697 421.08 348.772 421.125C349.152 421.277 349.348 421.928 349.532 422.449C349.692 422.966 349.801 423.497 349.858 424.035C349.942 424.965 349.913 425.903 349.771 426.826C349.543 428.412 349.228 429.378 349.315 429.411C349.763 428.634 350.058 427.779 350.184 426.891C350.392 425.94 350.466 424.964 350.401 423.992C350.358 423.41 350.252 422.835 350.086 422.276C349.997 421.976 349.888 421.682 349.761 421.396C349.616 421.04 349.345 420.751 349 420.582C348.799 420.488 348.571 420.468 348.357 420.526C348.142 420.583 347.955 420.715 347.827 420.897C347.648 421.199 347.554 421.544 347.556 421.896C347.436 423.443 347.613 424.998 348.077 426.479C348.306 427.351 348.717 428.165 349.283 428.868Z" fill="#263238"/>
<path d="M349.163 428.509C349.163 428.596 349.989 428.205 351.335 427.869C352.122 427.68 352.926 427.571 353.735 427.543C354.197 427.512 354.661 427.541 355.115 427.63C355.314 427.657 355.5 427.748 355.645 427.889C355.789 428.029 355.885 428.213 355.918 428.412C355.927 428.628 355.879 428.842 355.778 429.033C355.676 429.224 355.526 429.384 355.343 429.498C354.969 429.733 354.544 429.874 354.105 429.91C353.311 429.988 352.51 429.907 351.748 429.671C351.04 429.406 350.314 429.192 349.576 429.031C350.189 429.52 350.889 429.889 351.639 430.117C352.445 430.425 353.309 430.555 354.17 430.497C354.705 430.469 355.225 430.304 355.679 430.019C355.948 429.854 356.167 429.62 356.314 429.341C356.462 429.062 356.531 428.748 356.516 428.433C356.477 428.11 356.335 427.808 356.109 427.573C355.884 427.338 355.588 427.182 355.267 427.13C354.758 427.04 354.239 427.018 353.724 427.065C352.88 427.122 352.045 427.278 351.237 427.532C350.48 427.694 349.77 428.028 349.163 428.509Z" fill="#263238"/>
<path d="M328.116 448.666C328.116 448.72 328.681 448.329 328.942 447.373C329.202 446.125 328.977 444.824 328.312 443.735C327.99 443.153 327.627 442.594 327.226 442.063C326.899 441.61 326.516 441.201 326.086 440.846C325.777 440.591 325.398 440.436 325 440.401C324.717 440.401 324.576 440.455 324.576 440.488C324.576 440.521 325.173 440.542 325.792 441.172C326.157 441.542 326.482 441.949 326.759 442.389C327.148 442.913 327.511 443.456 327.845 444.018C328.445 444.992 328.705 446.138 328.583 447.276C328.456 447.748 328.3 448.212 328.116 448.666Z" fill="#263238"/>
<path d="M340.138 439.684C340.183 439.097 340.101 438.506 339.897 437.953C339.692 437.4 339.371 436.898 338.955 436.481C338.62 435.995 338.184 435.589 337.675 435.29C337.167 434.992 336.599 434.809 336.012 434.754C336.899 435.384 337.731 436.089 338.499 436.861C339.124 437.754 339.672 438.699 340.138 439.684Z" fill="#263238"/>
<path d="M364.15 433.755C363.63 434.044 363.136 434.379 362.673 434.754C361.347 435.675 359.969 436.52 358.546 437.284C356.441 438.401 354.264 439.377 352.03 440.206C349.489 441.151 346.6 442.041 343.646 442.91C337.619 444.648 332.167 446.233 328.236 447.417L323.555 448.883C322.977 449.036 322.414 449.24 321.872 449.491C322.464 449.411 323.048 449.284 323.62 449.111L328.323 447.797C332.287 446.711 337.749 445.191 343.777 443.453C346.785 442.573 349.641 441.661 352.182 440.684C354.444 439.824 356.64 438.8 358.753 437.621C360.172 436.817 361.529 435.91 362.814 434.906C363.291 434.56 363.738 434.175 364.15 433.755Z" fill="#263238"/>
<path d="M365.388 434.2C364.488 433.804 363.532 433.547 362.554 433.44C360.174 432.999 357.717 433.303 355.516 434.309C354.327 434.931 353.306 435.833 352.541 436.937C351.911 437.808 351.383 438.748 350.966 439.739C350.53 440.618 350.22 441.554 350.043 442.519C350.535 441.68 350.97 440.809 351.346 439.913C352.252 437.792 353.822 436.024 355.82 434.873C357.923 433.928 360.248 433.593 362.532 433.907C364.27 434.048 365.366 434.287 365.388 434.2Z" fill="#263238"/>
<path d="M424.695 366.9C424.695 366.9 434.741 370.484 434.773 381.746C434.86 403.303 391.203 427.076 391.203 427.076L333.101 388.588L329.463 387.111C329.463 387.111 407.927 357.658 424.695 366.9Z" fill="#263238"/>
<path d="M362.532 408.027C363.067 407.731 363.576 407.389 364.052 407.006C364.997 406.311 366.355 405.29 368.016 403.998C371.35 401.435 375.868 397.786 380.744 393.605C385.621 389.424 389.899 385.503 392.94 382.604C394.461 381.159 395.677 379.965 396.513 379.128C396.965 378.721 397.379 378.274 397.751 377.793C397.251 378.143 396.783 378.535 396.35 378.965L392.658 382.3C389.541 385.112 385.219 388.989 380.353 393.16C375.488 397.33 371.014 401.022 367.767 403.672L363.911 406.822C363.42 407.186 362.959 407.589 362.532 408.027Z" fill="#455A64"/>
<path d="M408.296 374.958C404.497 374.556 400.693 375.677 397.719 378.075C397.816 378.238 399.891 376.881 402.866 376.034C405.842 375.186 408.296 375.143 408.296 374.958Z" fill="#455A64"/>
<path d="M403.29 371.559C401.946 372.13 400.763 373.023 399.846 374.159C398.929 375.296 398.307 376.641 398.034 378.075C398.207 378.075 398.837 376.327 400.303 374.535C401.769 372.743 403.388 371.711 403.29 371.559Z" fill="#455A64"/>
<path d="M427.888 439.847C427.888 439.782 427.193 439.641 426.389 440.303C425.442 441.186 424.848 442.382 424.717 443.67C424.526 444.936 424.708 446.23 425.238 447.395C425.651 448.274 426.107 448.687 426.161 448.644C426.018 448.161 425.84 447.689 425.629 447.232C425.249 446.115 425.137 444.925 425.303 443.757C425.432 442.593 425.909 441.496 426.672 440.607C427.291 439.966 427.899 439.945 427.888 439.847Z" fill="#263238"/>
<path d="M411.326 331.659L390.638 384.113L301.553 385.569L299.902 380.747L331.125 379.617L346.133 333.082L411.326 331.659Z" fill="#455A64"/>
<path d="M369.721 354.4C370.405 354.057 371.174 353.918 371.935 354.001C372.696 354.084 373.417 354.384 374.011 354.867C374.516 355.341 374.865 355.957 375.014 356.633C375.164 357.309 375.105 358.015 374.847 358.657C374.568 359.299 374.115 359.849 373.539 360.247C372.964 360.644 372.288 360.872 371.589 360.905C370.854 360.952 370.123 360.758 369.508 360.353C368.892 359.947 368.426 359.352 368.179 358.657C367.947 357.88 367.966 357.05 368.236 356.285C368.505 355.52 369.01 354.86 369.678 354.4" fill="#8CC63F"/>
<path d="M396.698 429.704C396.698 429.704 314.617 375.86 311.272 374.741C307.927 373.622 299.782 368.301 291.67 370.538C283.557 372.775 276.259 380.062 272.621 390.705C270.536 396.787 269.559 407.158 269.092 414.945C268.469 424.256 271.487 433.445 277.508 440.575C280.176 443.902 283.719 446.418 287.739 447.84C288.596 448.112 289.487 448.34 290.399 448.535C305.918 451.902 321.894 444.93 330.582 431.659L332.493 428.748C332.493 428.748 386.196 448.47 387.032 448.199L396.698 429.704Z" fill="#263238"/>
<path d="M295.156 414.88C295.301 414.953 295.449 415.018 295.601 415.075L296.948 415.608L302.15 417.617L321.492 424.904C329.702 427.966 339.541 431.615 350.586 435.634C361.631 439.652 373.859 444.05 386.935 448.47L387.163 448.557L387.282 448.329L393.7 436.079L396.958 429.834L397.078 429.595L396.85 429.454L334.241 389.706L315.432 377.847L310.328 374.654L308.992 373.84C308.688 373.655 308.525 373.579 308.525 373.579L308.959 373.894L310.262 374.752L315.312 378.01L334.079 390.054L396.589 429.954L396.481 429.563C395.449 431.55 394.309 433.668 393.223 435.807L386.815 448.057L387.174 447.916C374.141 443.507 361.87 439.12 350.814 435.134L321.676 424.535L302.226 417.389L296.991 415.477L295.623 414.999L295.156 414.88Z" fill="#455A64"/>
<path d="M303.67 223.688C305.071 219.898 308.166 218.258 312.087 217.313C314.059 216.854 316.112 216.878 318.073 217.383C320.034 217.888 321.844 218.859 323.349 220.213C325.336 222.026 326.791 224.557 329.246 225.643C333.297 227.478 338.477 224.796 342.278 227.044C343.42 227.716 344.293 228.764 344.75 230.008C345.207 231.252 345.219 232.615 344.784 233.867C344.349 235.119 343.493 236.181 342.363 236.874C341.233 237.566 339.898 237.846 338.585 237.665C341.225 238.903 341.713 242.878 339.9 245.158C338.086 247.439 334.73 248.058 331.917 247.265C329.145 246.31 326.685 244.617 324.804 242.367C322.828 240.195 321.09 237.86 318.94 235.851C316.876 233.754 314.137 232.454 311.207 232.181C307.265 232.028 303.605 234.689 301.553 238.045C299.5 241.401 298.707 245.386 298.132 249.296C297.556 253.206 297.122 257.18 295.612 260.829C295.438 261.264 295.178 261.731 294.732 261.829C294.07 261.97 293.592 261.242 293.332 260.623C290.36 253.649 288.788 246.158 288.705 238.577C288.651 234.233 289.15 230.074 291.876 226.631C294.602 223.188 300.89 221.049 303.638 223.634" fill="#263238"/>
<path d="M294.418 241.205L288.379 285.058C288.137 286.829 288.258 288.631 288.735 290.354C289.211 292.076 290.033 293.684 291.151 295.079C292.268 296.474 293.658 297.627 295.235 298.468C296.812 299.308 298.544 299.819 300.325 299.969C303.697 300.263 307.053 299.248 309.697 297.135C312.341 295.023 314.072 291.974 314.53 288.62C314.976 285.362 315.356 282.571 315.432 282.235C315.432 282.235 326.737 282.723 329.061 271.787C330.147 266.498 331.613 255.421 332.797 245.386C333.394 240.194 332.017 234.966 328.939 230.741C325.861 226.517 321.307 223.603 316.181 222.58L315.095 222.374C303.529 220.723 295.71 229.628 294.418 241.205Z" fill="#FFBE9D"/>
<path d="M315.421 282.083C310.338 281.15 305.646 278.727 301.944 275.122C301.944 275.122 303.746 283.679 314.878 284.896L315.421 282.083Z" fill="#EB996E"/>
<path d="M328.073 252.098C327.996 252.507 327.762 252.869 327.421 253.107C327.079 253.344 326.658 253.438 326.248 253.369C326.046 253.346 325.851 253.283 325.674 253.183C325.497 253.083 325.342 252.949 325.218 252.787C325.095 252.626 325.005 252.441 324.954 252.245C324.903 252.048 324.893 251.843 324.924 251.642C324.998 251.231 325.231 250.866 325.572 250.626C325.914 250.386 326.336 250.291 326.748 250.36C326.95 250.384 327.146 250.449 327.323 250.55C327.5 250.651 327.655 250.786 327.779 250.948C327.902 251.11 327.992 251.296 328.043 251.493C328.093 251.691 328.103 251.896 328.073 252.098Z" fill="#263238"/>
<path d="M329.311 250.295C329.072 250.469 328.062 249.35 326.379 249.014C324.695 248.677 323.284 249.285 323.121 249.014C322.958 248.742 323.327 248.579 323.946 248.297C324.771 247.93 325.692 247.835 326.574 248.025C327.451 248.193 328.251 248.639 328.855 249.296C329.322 249.817 329.42 250.23 329.311 250.295Z" fill="#263238"/>
<path d="M311.435 249.361C311.361 249.772 311.128 250.137 310.786 250.377C310.445 250.617 310.022 250.712 309.611 250.643C309.409 250.617 309.213 250.552 309.037 250.451C308.86 250.349 308.705 250.214 308.58 250.052C308.456 249.891 308.365 249.706 308.313 249.509C308.26 249.312 308.248 249.107 308.275 248.905C308.357 248.498 308.592 248.138 308.931 247.9C309.271 247.661 309.689 247.562 310.099 247.623C310.302 247.647 310.498 247.712 310.676 247.813C310.853 247.914 311.009 248.049 311.133 248.211C311.258 248.373 311.349 248.558 311.401 248.755C311.452 248.953 311.464 249.159 311.435 249.361Z" fill="#263238"/>
<path d="M312.684 247.309C312.445 247.472 311.435 246.353 309.752 246.016C308.069 245.68 306.657 246.288 306.494 246.016C306.331 245.745 306.7 245.582 307.319 245.3C308.146 244.938 309.064 244.843 309.947 245.028C310.824 245.206 311.624 245.649 312.239 246.299C312.695 246.885 312.793 247.233 312.684 247.309Z" fill="#263238"/>
<path d="M316.301 261.003C317.244 260.898 318.197 260.916 319.135 261.058C319.58 261.058 320.004 261.058 320.134 260.808C320.272 260.377 320.272 259.914 320.134 259.483C319.939 258.397 319.732 257.181 319.515 255.943C318.679 250.925 318.169 246.842 318.364 246.809C318.56 246.777 319.45 250.817 320.243 255.834C320.438 257.072 320.634 258.245 320.808 259.374C320.978 259.949 320.935 260.566 320.688 261.112C320.596 261.249 320.474 261.364 320.331 261.446C320.188 261.529 320.028 261.578 319.863 261.59C319.614 261.625 319.362 261.625 319.113 261.59C318.155 261.512 317.21 261.315 316.301 261.003Z" fill="#263238"/>
<path d="M311.109 261.199C311.392 261.199 311.023 263.067 312.326 264.674C313.629 266.281 315.584 266.477 315.584 266.737C315.584 266.998 315.084 266.998 314.259 266.857C313.183 266.659 312.211 266.09 311.511 265.25C310.848 264.435 310.525 263.397 310.61 262.35C310.697 261.568 310.99 261.155 311.109 261.199Z" fill="#263238"/>
<path d="M314.433 240.782C314.183 241.216 312.543 240.663 310.512 240.5C308.481 240.337 306.787 240.565 306.603 240.098C306.527 239.881 306.896 239.511 307.623 239.196C308.589 238.815 309.631 238.667 310.664 238.762C311.704 238.841 312.71 239.169 313.596 239.718C314.259 240.152 314.53 240.587 314.433 240.782Z" fill="#263238"/>
<path d="M329.659 245.299C329.289 245.625 328.214 244.995 326.813 244.691C325.412 244.387 324.185 244.441 324 243.985C323.914 243.768 324.174 243.421 324.771 243.16C325.549 242.853 326.403 242.796 327.215 242.997C328.034 243.17 328.776 243.6 329.333 244.224C329.735 244.713 329.832 245.136 329.659 245.299Z" fill="#263238"/>
<path d="M293.69 249.503C293.516 249.383 286.598 245.767 285.338 253.315C284.079 260.862 291.92 260.569 291.963 260.352C292.007 260.135 293.69 249.503 293.69 249.503Z" fill="#FFBE9D"/>
<path d="M290.139 257.105C290.139 257.105 289.997 257.181 289.759 257.246C289.423 257.326 289.07 257.275 288.77 257.105C288.331 256.717 288.004 256.217 287.824 255.659C287.644 255.101 287.619 254.505 287.749 253.933C287.836 253.281 288.07 252.657 288.434 252.109C288.536 251.884 288.692 251.686 288.886 251.533C289.081 251.38 289.309 251.276 289.552 251.229C289.711 251.216 289.87 251.258 290.001 251.35C290.132 251.441 290.226 251.575 290.269 251.729C290.334 251.946 290.269 252.098 290.269 252.109C290.269 252.12 290.454 252.011 290.443 251.696C290.431 251.503 290.355 251.319 290.226 251.175C290.138 251.078 290.03 250.999 289.911 250.945C289.791 250.891 289.662 250.862 289.531 250.86C289.212 250.869 288.901 250.96 288.627 251.123C288.353 251.287 288.126 251.518 287.967 251.794C287.535 252.395 287.256 253.092 287.152 253.825C286.946 255.356 287.489 256.909 288.531 257.398C288.724 257.491 288.936 257.539 289.15 257.539C289.365 257.539 289.576 257.491 289.769 257.398C290.095 257.289 290.16 257.126 290.139 257.105Z" fill="#EB996E"/>
<path d="M335.512 243.627C332.96 243.765 330.412 243.295 328.077 242.257C325.741 241.219 323.686 239.641 322.078 237.654C319.906 234.852 318.462 231.193 315.323 229.498C314.242 228.966 313.067 228.654 311.864 228.58C310.662 228.505 309.457 228.67 308.318 229.064C306.053 229.874 303.976 231.138 302.215 232.778C303.214 238.773 300.553 244.724 297.958 250.154C297.734 250.795 297.302 251.342 296.731 251.707C295.71 252.218 294.494 251.414 293.875 250.447C293.007 248.827 292.63 246.99 292.789 245.159C292.812 240.986 293.661 236.86 295.286 233.017C296.937 229.163 299.682 225.878 303.182 223.569C307.67 220.828 313.047 219.937 318.179 221.082C323.283 222.269 327.884 225.031 331.331 228.977C333.011 230.726 334.231 232.864 334.882 235.2" fill="#263238"/>
<path d="M31.5817 420.484C31.6292 420.325 31.6948 420.172 31.7771 420.028L32.3853 418.713C33.1342 417.015 33.7408 415.256 34.1989 413.457C35.3936 408.787 35.8062 401.652 34.036 393.181C33.0837 388.561 31.8284 384.008 30.2785 379.552C28.682 374.719 26.8358 369.593 25.3263 364.044C23.6219 358.256 22.7982 352.245 22.8827 346.212C23.1108 339.902 24.9787 333.603 27.0313 327.337C29.0838 321.07 31.2016 314.924 31.8314 308.755C32.5433 302.82 31.3531 296.812 28.4322 291.596C25.7064 286.579 22.2963 282.3 19.7442 277.858C17.3521 273.745 15.5878 269.297 14.5096 264.663C12.9713 257.944 12.8603 250.978 14.1838 244.214C14.6707 241.741 15.3981 239.322 16.3558 236.992C16.3303 237.158 16.2904 237.321 16.2364 237.48L15.802 238.859C13.2467 247.2 12.973 256.072 15.0092 264.554C16.0974 269.136 17.8655 273.529 20.2546 277.587C22.8067 281.931 26.2385 286.275 29.0078 291.303C31.974 296.621 33.1863 302.74 32.4722 308.788C31.8314 315.065 29.692 321.244 27.6503 327.51C25.6086 333.777 23.7515 340 23.5235 346.201C23.4289 352.173 24.2306 358.125 25.9018 363.859C27.3897 369.376 29.225 374.502 30.7889 379.357C32.3258 383.838 33.563 388.416 34.4922 393.062C36.2189 401.598 35.7194 408.809 34.4922 413.49C34.0135 415.295 33.3663 417.051 32.5591 418.735C32.2767 419.278 32.0486 419.702 31.8857 420.028C31.7993 420.189 31.6975 420.342 31.5817 420.484Z" fill="#263238"/>
<path d="M23.2086 282.235C23.2086 282.235 18.0066 265.619 27.3354 255.888C27.4077 255.81 27.5002 255.753 27.6028 255.725C27.7054 255.696 27.814 255.696 27.9164 255.725C28.0189 255.755 28.1112 255.812 28.1831 255.89C28.255 255.969 28.3037 256.066 28.3237 256.171C28.8232 258.918 29.4422 267.281 23.2086 282.235Z" fill="#8CC63F"/>
<path d="M26.3254 261.427C26.308 262.457 26.1879 263.483 25.967 264.49C25.6304 266.662 25.2286 269.083 24.7833 271.82C24.338 274.557 23.9579 277.044 23.6213 279.151C23.5334 280.18 23.348 281.198 23.0674 282.191C22.9796 281.159 23.0124 280.121 23.1651 279.096C23.3389 277.196 23.6756 274.589 24.1425 271.722C24.6095 268.855 25.1091 266.292 25.5218 264.414C25.6741 263.39 25.9437 262.388 26.3254 261.427Z" fill="#263238"/>
<path d="M29.3119 321.44C29.3119 321.44 32.4939 304.314 45.2871 300.1C45.3879 300.065 45.4965 300.058 45.6008 300.081C45.7051 300.104 45.8009 300.156 45.8776 300.23C45.9542 300.305 46.0086 300.399 46.0348 300.502C46.0609 300.606 46.0577 300.715 46.0256 300.817C45.2002 303.445 41.8227 311.134 29.3119 321.44Z" fill="#8CC63F"/>
<path d="M41.801 304.498C41.3043 305.401 40.7185 306.253 40.0525 307.039C38.771 308.755 37.2506 310.753 35.5782 312.969L31.0821 318.909C30.5208 319.774 29.881 320.584 29.1707 321.331C29.5745 320.377 30.0884 319.473 30.702 318.638C31.788 317.041 33.2541 314.891 35.046 312.578C36.8379 310.265 38.4561 308.234 39.6833 306.757C40.2997 305.925 41.0103 305.167 41.801 304.498Z" fill="#263238"/>
<path d="M25.8584 364.391C25.8584 364.391 23.9253 347.08 34.9375 339.305C35.0242 339.242 35.1266 339.205 35.2333 339.197C35.3399 339.19 35.4466 339.212 35.5413 339.262C35.636 339.311 35.7151 339.386 35.7695 339.478C35.824 339.57 35.8518 339.676 35.8497 339.782C35.8171 342.563 34.8289 350.892 25.8584 364.391Z" fill="#8CC63F"/>
<path d="M32.8849 344.55C32.6784 345.562 32.3653 346.548 31.9509 347.493C31.2125 349.503 30.3545 351.837 29.388 354.466L26.8576 361.438C26.5884 362.43 26.2247 363.393 25.7715 364.316C25.8865 363.287 26.116 362.274 26.4557 361.297C26.9879 359.461 27.8132 356.953 28.8232 354.238C29.8332 351.522 30.8215 349.079 31.5708 347.33C31.9022 346.357 32.3431 345.424 32.8849 344.55Z" fill="#263238"/>
<path d="M35.4913 407.615C35.4913 407.615 34.1772 390.238 45.4609 382.875C45.549 382.815 45.6524 382.78 45.7594 382.774C45.8663 382.769 45.9726 382.794 46.0662 382.846C46.1599 382.898 46.2372 382.975 46.2895 383.068C46.3418 383.162 46.367 383.268 46.3622 383.375C46.2211 386.144 44.9396 394.43 35.4913 407.615Z" fill="#8CC63F"/>
<path d="M43.2237 388.067C42.9631 389.072 42.5992 390.047 42.1377 390.977C41.3232 392.954 40.3783 395.321 39.3249 397.841L36.5339 404.726C36.2493 405.684 35.8785 406.615 35.4261 407.506C35.5721 406.483 35.8382 405.48 36.2189 404.52C36.8054 402.706 37.7285 400.241 38.8362 397.558C39.9439 394.876 41.0082 392.465 41.8227 390.749C42.1898 389.806 42.6596 388.906 43.2237 388.067Z" fill="#263238"/>
<path d="M15.7368 267.639C15.7368 267.639 0.304646 259.581 0.000563098 246.103C-0.00417126 245.996 0.021023 245.89 0.0733147 245.797C0.125606 245.703 0.202921 245.626 0.29657 245.574C0.390219 245.522 0.496487 245.498 0.603431 245.503C0.710375 245.508 0.813754 245.543 0.901948 245.604C3.19343 247.189 9.54658 252.652 15.7368 267.639Z" fill="#8CC63F"/>
<path d="M3.20427 250.73C3.92563 251.466 4.56973 252.274 5.1265 253.141L9.47054 259.157L13.8146 265.163C14.4763 265.951 15.0652 266.798 15.5739 267.693C14.7573 267.039 14.0274 266.284 13.4019 265.445C12.1747 263.99 10.5565 261.905 8.86237 259.548C7.1682 257.191 5.69123 255.009 4.65952 253.401C4.07412 252.569 3.58586 251.673 3.20427 250.73Z" fill="#263238"/>
<path d="M32.3093 303.358C32.3093 303.358 16.421 296.255 15.2916 282.821C15.2826 282.716 15.3028 282.61 15.3502 282.515C15.3976 282.42 15.4702 282.34 15.56 282.284C15.6498 282.228 15.7534 282.198 15.8593 282.197C15.9653 282.196 16.0694 282.224 16.1604 282.278C18.5496 283.679 25.2285 288.751 32.3093 303.358Z" fill="#8CC63F"/>
<path d="M18.7776 287.22C19.5402 287.913 20.2314 288.68 20.8411 289.511L25.5543 295.256L30.2785 300.979C30.9835 301.709 31.6164 302.506 32.1681 303.358C31.34 302.72 30.5859 301.992 29.9201 301.186C28.606 299.796 26.8684 297.819 25.0331 295.571C23.1977 293.323 21.5904 291.227 20.4718 289.696C19.8153 288.937 19.247 288.106 18.7776 287.22Z" fill="#263238"/>
<path d="M23.1651 343.149C23.1651 343.149 12.2507 329.574 17.3767 317.085C17.4157 316.986 17.4812 316.9 17.566 316.836C17.6508 316.772 17.7516 316.733 17.8572 316.723C17.9628 316.713 18.0692 316.732 18.1646 316.779C18.2599 316.825 18.3405 316.897 18.3975 316.987C19.8637 319.387 23.4801 326.935 23.1651 343.149Z" fill="#8CC63F"/>
<path d="M18.4518 322.635C18.8171 323.597 19.0828 324.594 19.2446 325.61C19.7007 327.706 20.2329 330.161 20.8302 332.876C21.4275 335.591 21.9162 338.034 22.4266 340.119C22.7172 341.109 22.9171 342.123 23.0239 343.149C22.5417 342.228 22.1768 341.25 21.9379 340.239C21.3949 338.403 20.7542 335.895 20.146 333.006C19.5378 330.117 19.06 327.576 18.7559 325.708C18.5425 324.698 18.4405 323.667 18.4518 322.635Z" fill="#263238"/>
<path d="M33.9818 390C33.9818 390 18.2021 382.636 17.3115 369.17C17.3047 369.065 17.3266 368.961 17.3748 368.868C17.423 368.774 17.4958 368.696 17.5853 368.642C17.6747 368.587 17.7774 368.557 17.8823 368.557C17.9872 368.556 18.0902 368.584 18.1803 368.638C20.5478 370.126 27.1399 375.306 33.9818 390Z" fill="#8CC63F"/>
<path d="M20.7107 373.655C21.4648 374.359 22.1452 375.138 22.7416 375.979C24.0665 377.663 25.6304 379.628 27.3571 381.8L31.9835 387.61C32.6791 388.37 33.3043 389.192 33.8514 390.065C33.0435 389.43 32.3143 388.701 31.6794 387.893C30.3979 386.492 28.6929 384.483 26.901 382.202C25.1091 379.921 23.4801 377.815 22.3941 376.262C21.7413 375.456 21.1769 374.582 20.7107 373.655Z" fill="#263238"/>
<path d="M65.4 321.527C65.4152 321.656 65.4152 321.788 65.4 321.918C65.4 322.222 65.4 322.58 65.4 323.004C65.4 324.09 65.2914 325.469 65.2154 327.228C65.009 330.942 64.7267 336.112 64.39 342.313C63.304 348.612 60.046 355.595 55.7019 362.371C52.5416 367.367 49.1859 371.917 46.3731 376.142C43.7727 379.83 41.4321 383.695 39.3684 387.708C38.019 390.431 36.9282 393.274 36.1103 396.201C35.828 397.232 35.6216 398.047 35.5022 398.601C35.4542 398.886 35.3778 399.166 35.2741 399.437C35.2776 399.148 35.3103 398.861 35.3718 398.579C35.4479 398.014 35.6216 397.189 35.8606 396.135C36.5975 393.141 37.6383 390.23 38.9665 387.447C40.985 383.386 43.2971 379.476 45.8844 375.751C48.7189 371.494 52.0204 366.944 55.1698 361.98C59.5138 355.225 62.6415 348.351 63.8579 342.15C64.2923 335.971 64.6506 330.801 64.9439 327.087C65.085 325.328 65.2045 323.916 65.2805 322.873C65.2805 322.439 65.3674 322.07 65.4 321.787C65.3906 321.701 65.3906 321.613 65.4 321.527Z" fill="#263238"/>
<path d="M56.0603 361.133C56.0603 361.133 62.7393 345.05 54.3336 334.515C54.2684 334.431 54.1811 334.366 54.0812 334.328C53.9814 334.291 53.8731 334.281 53.7683 334.302C53.6635 334.322 53.5664 334.371 53.4879 334.443C53.4094 334.515 53.3525 334.608 53.3236 334.711C52.5308 337.404 51.1516 345.712 56.0603 361.133Z" fill="#8CC63F"/>
<path d="M54.7897 340.13C55.0777 341.121 55.2561 342.141 55.3218 343.171C55.5608 345.06 55.8214 347.678 56.0278 350.577C56.2341 353.477 56.3318 356.105 56.3318 358.005C56.3988 359.037 56.3367 360.073 56.1472 361.09C55.9585 360.08 55.8675 359.054 55.8757 358.027C55.7345 355.855 55.5608 353.39 55.3761 350.621C55.1915 347.851 55.0069 345.343 54.8657 343.214C54.7391 342.191 54.7136 341.158 54.7897 340.13Z" fill="#263238"/>
<g opacity="0.3">
<path d="M56.0603 361.133C56.0603 361.133 62.7393 345.05 54.3336 334.515C54.2684 334.431 54.1811 334.366 54.0812 334.328C53.9814 334.291 53.8731 334.281 53.7683 334.302C53.6635 334.322 53.5664 334.371 53.4879 334.443C53.4094 334.515 53.3525 334.608 53.3236 334.711C52.5308 337.404 51.1516 345.712 56.0603 361.133Z" fill="black"/>
</g>
<path d="M35.3176 399.882C35.3176 399.882 40.6716 383.321 31.4405 373.503C31.369 373.425 31.2772 373.368 31.1754 373.338C31.0735 373.309 30.9655 373.308 30.8633 373.336C30.7611 373.365 30.6686 373.42 30.5961 373.498C30.5236 373.575 30.4738 373.671 30.4522 373.774C29.9201 376.511 29.225 384.863 35.3176 399.882Z" fill="#8CC63F"/>
<path d="M32.3962 379.042C32.7652 380.009 33.0239 381.014 33.1672 382.039C33.5582 383.896 34.0361 386.481 34.4813 389.359C34.9266 392.237 35.2307 394.843 35.3827 396.744C35.5303 397.769 35.5522 398.808 35.4479 399.839C35.1834 398.843 35.0089 397.825 34.9266 396.798C34.6116 394.626 34.2424 392.204 33.8406 389.456C33.4387 386.709 33.0478 384.233 32.7546 382.115C32.5344 381.105 32.4143 380.075 32.3962 379.042Z" fill="#263238"/>
<g opacity="0.3">
<path d="M35.3176 399.882C35.3176 399.882 40.6716 383.321 31.4405 373.503C31.369 373.425 31.2772 373.368 31.1754 373.338C31.0735 373.309 30.9655 373.308 30.8633 373.336C30.7611 373.365 30.6686 373.42 30.5961 373.498C30.5236 373.575 30.4738 373.671 30.4522 373.774C29.9201 376.511 29.225 384.863 35.3176 399.882Z" fill="black"/>
</g>
<path d="M64.5095 341.487C64.5095 341.487 78.7796 331.496 77.3352 318.095C77.3259 317.989 77.2873 317.887 77.2236 317.801C77.1599 317.716 77.0737 317.65 76.9746 317.61C76.8754 317.571 76.7673 317.56 76.6622 317.578C76.5572 317.597 76.4593 317.644 76.3796 317.715C74.3161 319.648 68.7123 325.827 64.5095 341.487Z" fill="#8CC63F"/>
<g opacity="0.3">
<path d="M64.5095 341.487C64.5095 341.487 78.7796 331.496 77.3352 318.095C77.3259 317.989 77.2873 317.887 77.2236 317.801C77.1599 317.716 77.0737 317.65 76.9746 317.61C76.8754 317.571 76.7673 317.56 76.6622 317.578C76.5572 317.597 76.4593 317.644 76.3796 317.715C74.3161 319.648 68.7123 325.827 64.5095 341.487Z" fill="black"/>
</g>
<path d="M74.7614 323.101C74.4732 324.091 74.0761 325.045 73.5776 325.947C72.7631 327.673 71.5794 330.019 70.2002 332.582C68.8209 335.145 67.496 337.415 66.4643 339.022C65.971 339.93 65.3613 340.77 64.6507 341.52C65.0424 340.567 65.5185 339.651 66.0733 338.783L69.6246 332.267L73.165 325.751C73.6045 324.815 74.1395 323.927 74.7614 323.101Z" fill="#263238"/>
<path d="M41.0625 383.462C41.0625 383.462 58.2323 380.779 62.8804 368.116C62.9189 368.017 62.9287 367.908 62.9088 367.803C62.889 367.698 62.8402 367.6 62.768 367.521C62.6959 367.442 62.6031 367.385 62.5002 367.356C62.3973 367.327 62.2883 367.327 62.1854 367.356C59.503 368.116 51.7163 371.255 41.0625 383.462Z" fill="#8CC63F"/>
<g opacity="0.3">
<path d="M41.0625 383.462C41.0625 383.462 58.2323 380.779 62.8804 368.116C62.9189 368.017 62.9287 367.908 62.9088 367.803C62.889 367.698 62.8402 367.6 62.768 367.521C62.6959 367.442 62.6031 367.385 62.5002 367.356C62.3973 367.327 62.2883 367.327 62.1854 367.356C59.503 368.116 51.7163 371.255 41.0625 383.462Z" fill="black"/>
</g>
<path d="M58.3627 371.472C57.669 372.228 56.8972 372.909 56.0603 373.503C54.5725 374.697 52.4765 376.283 50.109 377.966C47.7415 379.65 45.5478 381.116 43.9296 382.115C43.0789 382.705 42.16 383.19 41.1929 383.559C41.9609 382.874 42.7896 382.259 43.669 381.724L49.7397 377.445L55.7888 373.101C56.588 372.47 57.4506 371.924 58.3627 371.472Z" fill="#263238"/>
<path d="M24.653 415.13L19.6356 448.905H50.9126L46.851 415.13H24.653Z" fill="#455A64"/>
<path d="M48.1107 425.588C48.1107 425.773 42.4635 425.914 35.4913 425.914C28.5191 425.914 22.8828 425.773 22.8828 425.588C27.0774 425.266 31.2856 425.158 35.4913 425.262C39.7006 425.158 43.9125 425.266 48.1107 425.588Z" fill="#263238"/>
<path d="M48.7298 428.249C48.7298 428.423 42.8979 428.575 35.6977 428.575C28.4974 428.575 22.6656 428.423 22.6656 428.249C22.6656 428.075 28.4974 427.923 35.6977 427.923C42.8979 427.923 48.7298 428.097 48.7298 428.249Z" fill="#263238"/>
</svg>
