<svg width="146" height="50" viewBox="0 0 146 50" fill="none" xmlns="http://www.w3.org/2000/svg">
<mask id="mask0_16_5" style="mask-type:luminance" maskUnits="userSpaceOnUse" x="9" y="0" width="55" height="50">
<path d="M9.29822 0H63.7615V50H9.29822V0Z" fill="white"/>
</mask>
<g mask="url(#mask0_16_5)">
<path d="M11.4133 41.2085H43.7624C45.2631 41.2085 46.5351 40.0892 46.7382 38.6132L50.6806 9.00777C50.6806 9.00777 50.6806 9.00777 50.6806 8.99453C51.3418 3.86741 55.7415 -0.0123596 60.9163 -0.0123596H61.6923C62.7472 -0.0123596 63.5999 0.839512 63.5999 1.8953C63.5999 2.95198 62.7472 3.80385 61.6923 3.80385H60.9163C57.6483 3.80385 54.8764 6.24647 54.4571 9.49153C54.4571 9.49153 54.4571 9.49153 54.4571 9.50388L50.5147 39.1093C50.0697 42.4806 47.1707 45.0256 43.7624 45.0256H42.6183C42.5803 47.7993 40.3425 50.038 37.5574 50.038C34.7731 50.038 32.5344 47.7993 32.4965 45.0256H24.5869C24.5489 47.7993 22.3111 50.038 19.526 50.038C16.7417 50.038 14.5039 47.7993 14.465 45.0256H11.4133C10.3584 45.0256 9.50653 44.1729 9.50653 43.1171C9.50653 42.0613 10.3584 41.2085 11.4133 41.2085Z" fill="#101D00"/>
</g>
<path d="M22.8329 8.75355L29.1271 7.98996C31.53 11.8318 36.7436 18.4481 45.9756 22.3923L44.2207 35.5094C31.1866 27.99 24.8801 14.1349 22.8329 8.75355Z" fill="#8CC63F"/>
<path d="M18.9284 9.22409C20.7222 14.3389 27.169 29.9365 41.7541 38.5373H21.7391C15.0248 26.7938 13.3722 13.9566 12.9909 9.93648L18.9284 9.22409Z" fill="#FF3333"/>
<path d="M46.5098 18.4481C39.8722 15.3567 35.6888 10.7636 33.3742 7.48063L45.7718 5.99228C46.357 5.91636 46.9423 6.13264 47.3616 6.55196C47.781 6.97216 47.9716 7.55743 47.8957 8.14271L46.5098 18.4481Z" fill="#FBCC06"/>
<path d="M0.389217 12.0234C0.707013 11.6155 1.16429 11.3613 1.67364 11.2977L9.21337 10.3947C9.59561 14.6567 11.159 26.7815 17.3772 38.5373H9.51881C6.00892 38.5373 3.00839 35.9164 2.55023 32.4303L0.0325781 13.4482C-0.0689403 12.9388 0.0714199 12.4303 0.389217 12.0234Z" fill="#29ABE2"/>
<path d="M73.6166 27.8684V27.7C73.6166 26.3191 73.8825 25.0882 74.4144 24.0074C74.9463 22.9265 75.7118 22.0903 76.7109 21.4986C77.71 20.9069 78.8701 20.6111 80.1913 20.6111C82.0699 20.6111 83.6034 21.1857 84.7916 22.3349C85.9785 23.4852 86.641 25.0467 86.7788 27.0193L86.8044 27.9708C86.8044 30.1069 86.2085 31.8203 85.0166 33.1109C83.8236 34.4016 82.2236 35.0469 80.2169 35.0469C78.2101 35.0469 76.6084 34.4041 75.4117 33.1183C74.2149 31.8313 73.6166 30.0813 73.6166 27.8684ZM77.3349 27.9708C77.3349 29.292 77.5837 30.3021 78.0814 31.0011C78.5792 31.7001 79.291 32.0496 80.2169 32.0496C81.1172 32.0496 81.8205 31.7044 82.3267 31.0139C82.833 30.3234 83.0861 29.2188 83.0861 27.7C83.0861 26.4057 82.833 25.4023 82.3267 24.6899C81.8205 23.9775 81.1086 23.6213 80.1913 23.6213C79.2824 23.6213 78.5792 23.9756 78.0814 24.6844C77.5837 25.392 77.3349 26.4874 77.3349 27.9708ZM88.5153 27.8684V27.7C88.5153 26.3191 88.7813 25.0882 89.3132 24.0074C89.8451 22.9265 90.6105 22.0903 91.6097 21.4986C92.6088 20.9069 93.7689 20.6111 95.0901 20.6111C96.9687 20.6111 98.5022 21.1857 99.6903 22.3349C100.879 23.4852 101.541 25.0467 101.678 27.0193L101.703 27.9708C101.703 30.1069 101.107 31.8203 99.9154 33.1109C98.7236 34.4016 97.1237 35.0469 95.1157 35.0469C93.1089 35.0469 91.5072 34.4041 90.3104 33.1183C89.1137 31.8313 88.5153 30.0813 88.5153 27.8684ZM92.2336 27.9708C92.2336 29.292 92.4825 30.3021 92.9802 31.0011C93.4779 31.7001 94.1898 32.0496 95.1157 32.0496C96.0172 32.0496 96.7205 31.7044 97.2255 31.0139C97.7318 30.3234 97.9849 29.2188 97.9849 27.7C97.9849 26.4057 97.7318 25.4023 97.2255 24.6899C96.7205 23.9775 96.0087 23.6213 95.0901 23.6213C94.1812 23.6213 93.4779 23.9756 92.9802 24.6844C92.4825 25.392 92.2336 26.4874 92.2336 27.9708ZM103.414 27.7256C103.414 25.5566 103.901 23.8286 104.874 22.5416C105.848 21.2546 107.18 20.6111 108.871 20.6111C110.226 20.6111 111.345 21.1174 112.229 22.1299V15.0282H115.96V34.7908H112.602L112.421 33.3104C111.495 34.4681 110.303 35.0469 108.845 35.0469C107.207 35.0469 105.892 34.4016 104.9 33.1109C103.909 31.8203 103.414 30.0252 103.414 27.7256ZM107.132 27.9965C107.132 29.3005 107.36 30.2997 107.815 30.9938C108.27 31.6891 108.931 32.0368 109.797 32.0368C110.946 32.0368 111.757 31.5519 112.229 30.5821V25.0888C111.765 24.1202 110.963 23.6359 109.822 23.6359C108.029 23.6359 107.132 25.0894 107.132 27.9965ZM118.262 27.7256C118.262 25.5566 118.748 23.8286 119.722 22.5416C120.697 21.2546 122.029 20.6111 123.718 20.6111C125.074 20.6111 126.193 21.1174 127.076 22.1299V15.0282H130.807V34.7908H127.449L127.268 33.3104C126.342 34.4681 125.151 35.0469 123.693 35.0469C122.054 35.0469 120.74 34.4016 119.749 33.1109C118.758 31.8203 118.262 30.0252 118.262 27.7256ZM121.98 27.9965C121.98 29.3005 122.207 30.2997 122.663 30.9938C123.118 31.6891 123.778 32.0368 124.644 32.0368C125.793 32.0368 126.604 31.5519 127.076 30.5821V25.0888C126.613 24.1202 125.81 23.6359 124.67 23.6359C122.877 23.6359 121.98 25.0894 121.98 27.9965ZM136.301 20.8691L138.888 29.5281L141.461 20.8691H145.448L139.852 36.9518L139.543 37.6856C138.711 39.5033 137.339 40.4121 135.426 40.4121C134.885 40.4121 134.336 40.331 133.779 40.1687V37.3507L134.346 37.3636C135.049 37.3636 135.574 37.2562 135.922 37.0415C136.269 36.8268 136.541 36.4706 136.738 35.9729L137.175 34.8292L132.3 20.8691H136.301Z" fill="#101D00"/>
<path d="M69.0621 38.9892H63.88V23.4427H61.0034V19.653H63.88V18.0098C63.88 15.842 64.5027 14.1591 65.7483 12.9612C66.9926 11.7644 68.7346 11.1661 70.9744 11.1661C71.6892 11.1661 72.5651 11.285 73.602 11.5229L73.5471 15.5267C73.119 15.4193 72.595 15.3656 71.9753 15.3656C70.0332 15.3656 69.0621 16.2769 69.0621 18.0994V19.653H72.9049V23.4427H69.0621V38.9892Z" fill="#101D00"/>
<path d="M74 27.8402V27.6718C74 26.2909 74.2659 25.06 74.7978 23.9792C75.3297 22.8983 76.0952 22.0621 77.0943 21.4704C78.0934 20.8788 79.2535 20.5829 80.5747 20.5829C82.4534 20.5829 83.9868 21.1575 85.175 22.3067C86.362 23.457 87.0244 25.0185 87.1622 26.9911L87.1879 27.9427C87.1879 30.0787 86.5919 31.7921 85.4001 33.0828C84.207 34.3734 82.6071 35.0188 80.6003 35.0188C78.5936 35.0188 76.9918 34.3759 75.7951 33.0901C74.5984 31.8031 74 30.0531 74 27.8402ZM77.7183 27.9427C77.7183 29.2638 77.9672 30.2739 78.4649 30.9729C78.9626 31.6719 79.6744 32.0214 80.6003 32.0214C81.5006 32.0214 82.2039 31.6762 82.7102 30.9857C83.2164 30.2953 83.4696 29.1906 83.4696 27.6718C83.4696 26.3775 83.2164 25.3741 82.7102 24.6617C82.2039 23.9493 81.4921 23.5931 80.5747 23.5931C79.6659 23.5931 78.9626 23.9474 78.4649 24.6562C77.9672 25.3638 77.7183 26.4592 77.7183 27.9427ZM88.8988 27.8402V27.6718C88.8988 26.2909 89.1647 25.06 89.6966 23.9792C90.2285 22.8983 90.994 22.0621 91.9931 21.4704C92.9922 20.8788 94.1523 20.5829 95.4735 20.5829C97.3522 20.5829 98.8856 21.1575 100.074 22.3067C101.262 23.457 101.924 25.0185 102.061 26.9911L102.087 27.9427C102.087 30.0787 101.491 31.7921 100.299 33.0828C99.107 34.3734 97.5071 35.0188 95.4991 35.0188C93.4924 35.0188 91.8906 34.3759 90.6939 33.0901C89.4972 31.8031 88.8988 30.0531 88.8988 27.8402ZM92.6171 27.9427C92.6171 29.2638 92.8659 30.2739 93.3637 30.9729C93.8614 31.6719 94.5732 32.0214 95.4991 32.0214C96.4006 32.0214 97.1039 31.6762 97.609 30.9857C98.1152 30.2953 98.3684 29.1906 98.3684 27.6718C98.3684 26.3775 98.1152 25.3741 97.609 24.6617C97.1039 23.9493 96.3921 23.5931 95.4735 23.5931C94.5647 23.5931 93.8614 23.9474 93.3637 24.6562C92.8659 25.3638 92.6171 26.4592 92.6171 27.9427ZM103.798 27.6975C103.798 25.5285 104.284 23.8004 105.258 22.5134C106.231 21.2264 107.563 20.5829 109.254 20.5829C110.61 20.5829 111.729 21.0892 112.612 22.1017V15H116.343V34.7626H112.985L112.804 33.2822C111.878 34.4399 110.686 35.0188 109.229 35.0188C107.59 35.0188 106.275 34.3734 105.283 33.0828C104.293 31.7921 103.798 29.997 103.798 27.6975ZM107.516 27.9683C107.516 29.2724 107.743 30.2715 108.198 30.9656C108.653 31.6609 109.314 32.0086 110.18 32.0086C111.329 32.0086 112.14 31.5237 112.612 30.5539V25.0606C112.148 24.092 111.346 23.6077 110.206 23.6077C108.412 23.6077 107.516 25.0612 107.516 27.9683ZM118.645 27.6975C118.645 25.5285 119.132 23.8004 120.105 22.5134C121.08 21.2264 122.412 20.5829 124.102 20.5829C125.457 20.5829 126.576 21.0892 127.46 22.1017V15H131.191V34.7626H127.833L127.652 33.2822C126.726 34.4399 125.534 35.0188 124.076 35.0188C122.438 35.0188 121.123 34.3734 120.133 33.0828C119.141 31.7921 118.645 29.997 118.645 27.6975ZM122.363 27.9683C122.363 29.2724 122.591 30.2715 123.046 30.9656C123.501 31.6609 124.162 32.0086 125.028 32.0086C126.177 32.0086 126.987 31.5237 127.46 30.5539V25.0606C126.996 24.092 126.194 23.6077 125.053 23.6077C123.26 23.6077 122.363 25.0612 122.363 27.9683ZM136.684 20.8409L139.271 29.4999L141.844 20.8409H145.831L140.236 36.9236L139.926 37.6574C139.095 39.4751 137.722 40.3839 135.809 40.3839C135.269 40.3839 134.72 40.3028 134.162 40.1406V37.3226L134.73 37.3354C135.432 37.3354 135.957 37.228 136.305 37.0133C136.653 36.7986 136.925 36.4424 137.121 35.9447L137.559 34.801L132.684 20.8409H136.684Z" fill="#101D00"/>
<path d="M69.0621 38.9892H63.88V23.4427H61.0034V19.653H63.88V18.0098C63.88 15.842 64.5027 14.1591 65.7483 12.9612C66.9926 11.7644 68.7346 11.1661 70.9744 11.1661C71.6892 11.1661 72.5651 11.285 73.602 11.5229L73.5471 15.5267C73.119 15.4193 72.595 15.3656 71.9753 15.3656C70.0332 15.3656 69.0621 16.2769 69.0621 18.0994V19.653H72.9049V23.4427H69.0621V38.9892Z" fill="#101D00"/>
</svg>
