<svg width="123" height="51" viewBox="0 0 123 51" fill="none" xmlns="http://www.w3.org/2000/svg">
<mask id="mask0_16_129" style="mask-type:luminance" maskUnits="userSpaceOnUse" x="8" y="0" width="51" height="47">
<path d="M8.53946 0.998047H58.5589V46.9184H8.53946V0.998047Z" fill="white"/>
</mask>
<g mask="url(#mask0_16_129)">
<path d="M10.482 38.8444H40.1916C41.5698 38.8444 42.7381 37.8163 42.9246 36.4608L46.5454 9.27096C46.5454 9.27096 46.5454 9.27096 46.5454 9.2588C47.1526 4.55002 51.1933 0.986816 55.9459 0.986816H56.6585C57.6274 0.986816 58.4105 1.76918 58.4105 2.73883C58.4105 3.70928 57.6274 4.49165 56.6585 4.49165H55.9459C52.9445 4.49165 50.3988 6.73497 50.0137 9.71525C50.0137 9.71525 50.0137 9.71525 50.0137 9.7266L46.3929 36.9164C45.9843 40.0126 43.3218 42.35 40.1916 42.35H39.1409C39.106 44.8973 37.0508 46.9534 34.4929 46.9534C31.9358 46.9534 29.8798 44.8973 29.8449 42.35H22.5807C22.5458 44.8973 20.4906 46.9534 17.9327 46.9534C15.3756 46.9534 13.3204 44.8973 13.2847 42.35H10.482C9.51315 42.35 8.73079 41.5668 8.73079 40.5972C8.73079 39.6275 9.51315 38.8444 10.482 38.8444Z" fill="white"/>
</g>
<path d="M20.9697 9.03723L26.7503 8.33594C28.9571 11.8643 33.7454 17.9408 42.2241 21.5632L40.6124 33.61C28.6418 26.7041 22.8498 13.9795 20.9697 9.03723Z" fill="#77BF3F"/>
<path d="M17.3838 9.46924C19.0313 14.1667 24.9521 28.4916 38.3471 36.3907H19.9652C13.7987 25.6054 12.281 13.8156 11.9308 10.1235L17.3838 9.46924Z" fill="#50B948"/>
<path d="M42.7146 17.9411C36.6186 15.1019 32.7765 10.8836 30.6508 7.86847L42.0368 6.50156C42.5744 6.43184 43.1119 6.63047 43.497 7.01557C43.8821 7.40149 44.0572 7.93901 43.9875 8.47653L42.7146 17.9411Z" fill="#FBCC06"/>
<path d="M0.357459 12.0403C0.649326 11.6657 1.06929 11.4322 1.53709 11.3738L8.46162 10.5444C8.81267 14.4587 10.2485 25.5942 15.9594 36.3908H8.74214C5.51863 36.3908 2.76293 33.9838 2.34215 30.7821L0.02992 13.3488C-0.0633153 12.881 0.0655925 12.414 0.357459 12.0403Z" fill="#38A34A"/>
<path d="M61.1533 21.3901V21.2469C61.1533 20.0722 61.3795 19.0251 61.832 18.1056C62.2844 17.1862 62.9356 16.4748 63.7855 15.9715C64.6354 15.4682 65.6223 15.2165 66.7462 15.2165C68.3443 15.2165 69.6488 15.7053 70.6596 16.6829C71.6693 17.6615 72.2328 18.9898 72.3501 20.6678L72.3718 21.4773C72.3718 23.2944 71.8649 24.7519 70.851 25.8498C69.8361 26.9478 68.4751 27.4967 66.768 27.4967C65.0609 27.4967 63.6984 26.9498 62.6803 25.8561C61.6623 24.7612 61.1533 23.2726 61.1533 21.3901ZM64.3163 21.4773C64.3163 22.6012 64.528 23.4604 64.9514 24.055C65.3748 24.6497 65.9804 24.947 66.768 24.947C67.5339 24.947 68.1321 24.6533 68.5628 24.0659C68.9935 23.4786 69.2088 22.5389 69.2088 21.2469C69.2088 20.1458 68.9935 19.2923 68.5628 18.6862C68.1321 18.0802 67.5266 17.7772 66.7462 17.7772C65.9731 17.7772 65.3748 18.0786 64.9514 18.6816C64.528 19.2835 64.3163 20.2154 64.3163 21.4773ZM73.8273 21.3901V21.2469C73.8273 20.0722 74.0535 19.0251 74.506 18.1056C74.9584 17.1862 75.6096 16.4748 76.4595 15.9715C77.3095 15.4682 78.2964 15.2165 79.4202 15.2165C81.0184 15.2165 82.3228 15.7053 83.3336 16.6829C84.3443 17.6615 84.9078 18.9898 85.0241 20.6678L85.0459 21.4773C85.0459 23.2944 84.5389 24.7519 83.525 25.8498C82.5112 26.9478 81.1502 27.4967 79.442 27.4967C77.7349 27.4967 76.3724 26.9498 75.3543 25.8561C74.3363 24.7612 73.8273 23.2726 73.8273 21.3901ZM76.9903 21.4773C76.9903 22.6012 77.202 23.4604 77.6254 24.055C78.0488 24.6497 78.6544 24.947 79.442 24.947C80.2089 24.947 80.8072 24.6533 81.2368 24.0659C81.6675 23.4786 81.8828 22.5389 81.8828 21.2469C81.8828 20.1458 81.6675 19.2923 81.2368 18.6862C80.8072 18.0802 80.2017 17.7772 79.4202 17.7772C78.6471 17.7772 78.0488 18.0786 77.6254 18.6816C77.202 19.2835 76.9903 20.2154 76.9903 21.4773ZM86.5013 21.2687C86.5013 19.4236 86.9154 17.9536 87.7435 16.8588C88.5716 15.764 89.7048 15.2165 91.1432 15.2165C92.2961 15.2165 93.2482 15.6472 93.9996 16.5085V10.4673H97.1735V27.2788H94.3171L94.163 26.0195C93.3754 27.0043 92.3615 27.4967 91.1214 27.4967C89.7277 27.4967 88.609 26.9478 87.7653 25.8498C86.9226 24.7519 86.5013 23.2248 86.5013 21.2687ZM89.6644 21.4991C89.6644 22.6084 89.8579 23.4583 90.245 24.0488C90.6321 24.6403 91.194 24.9361 91.9308 24.9361C92.9084 24.9361 93.5979 24.5236 93.9996 23.6986V19.0256C93.6052 18.2016 92.9229 17.7896 91.9526 17.7896C90.4271 17.7896 89.6644 19.0261 89.6644 21.4991ZM99.1317 21.2687C99.1317 19.4236 99.5458 17.9536 100.374 16.8588C101.203 15.764 102.336 15.2165 103.774 15.2165C104.927 15.2165 105.879 15.6472 106.63 16.5085V10.4673H109.804V27.2788H106.948L106.793 26.0195C106.006 27.0043 104.992 27.4967 103.752 27.4967C102.358 27.4967 101.24 26.9478 100.397 25.8498C99.5536 24.7519 99.1317 23.2248 99.1317 21.2687ZM102.295 21.4991C102.295 22.6084 102.488 23.4583 102.875 24.0488C103.262 24.6403 103.824 24.9361 104.561 24.9361C105.539 24.9361 106.228 24.5236 106.63 23.6986V19.0256C106.236 18.2016 105.553 17.7896 104.583 17.7896C103.058 17.7896 102.295 19.0261 102.295 21.4991ZM114.477 15.436L116.678 22.802L118.867 15.436H122.258L117.498 29.1172L117.235 29.7414C116.528 31.2876 115.36 32.0607 113.733 32.0607C113.273 32.0607 112.806 31.9917 112.332 31.8537V29.4565L112.814 29.4674C113.412 29.4674 113.859 29.3761 114.155 29.1934C114.45 29.0108 114.682 28.7078 114.849 28.2844L115.221 27.3115L111.074 15.436H114.477Z" fill="white"/>
<path d="M58.0463 29.7773H53.6379V16.5523H51.1909V13.3285H53.6379V11.9307C53.6379 10.0866 54.1677 8.655 55.2272 7.63593C56.2857 6.6179 57.7676 6.10889 59.6729 6.10889C60.2811 6.10889 61.0262 6.21007 61.9082 6.41243L61.8615 9.81832C61.4973 9.727 61.0516 9.68134 60.5244 9.68134C58.8723 9.68134 58.0463 10.4565 58.0463 12.0069V13.3285H61.3152V16.5523H58.0463V29.7773Z" fill="white"/>
<path d="M59.2902 43.7289C59.2902 43.4918 59.2537 43.2789 59.1807 43.0904C59.1139 42.8959 58.9862 42.7195 58.7977 42.5614C58.6092 42.3973 58.3447 42.2361 58.0042 42.078C57.6636 41.9199 57.2228 41.7558 56.6816 41.5855C56.0797 41.3909 55.5081 41.172 54.9669 40.9288C54.4318 40.6856 53.9576 40.4028 53.5441 40.0806C53.1367 39.7522 52.8144 39.3722 52.5773 38.9405C52.3462 38.5087 52.2307 38.0071 52.2307 37.4355C52.2307 36.8822 52.3523 36.3805 52.5955 35.9306C52.8387 35.4745 53.1792 35.0854 53.617 34.7631C54.0548 34.4348 54.5717 34.1824 55.1676 34.0061C55.7696 33.8298 56.4293 33.7416 57.1468 33.7416C58.1258 33.7416 58.9801 33.9179 59.7098 34.2706C60.4394 34.6233 61.0049 35.1067 61.4062 35.7208C61.8136 36.3349 62.0173 37.0372 62.0173 37.8277H59.2993C59.2993 37.4386 59.2172 37.0981 59.0531 36.8062C58.895 36.5082 58.6517 36.2741 58.3234 36.1039C58.0011 35.9336 57.5937 35.8485 57.1012 35.8485C56.6269 35.8485 56.2317 35.9215 55.9155 36.0674C55.5993 36.2073 55.3622 36.3988 55.2041 36.642C55.046 36.8792 54.9669 37.1467 54.9669 37.4446C54.9669 37.6696 55.0216 37.8733 55.1311 38.0557C55.2466 38.2382 55.4169 38.4084 55.6419 38.5665C55.8668 38.7246 56.1435 38.8736 56.4719 39.0134C56.8002 39.1533 57.1802 39.2901 57.612 39.4239C58.3356 39.6428 58.971 39.889 59.5182 40.1627C60.0715 40.4363 60.5337 40.7433 60.9046 41.0839C61.2755 41.4244 61.5552 41.8105 61.7437 42.2422C61.9322 42.6739 62.0264 43.1634 62.0264 43.7107C62.0264 44.2883 61.914 44.8052 61.689 45.2612C61.464 45.7172 61.1387 46.1034 60.713 46.4195C60.2874 46.7357 59.7797 46.9759 59.1899 47.1401C58.6001 47.3043 57.9403 47.3864 57.2106 47.3864C56.5539 47.3864 55.9064 47.3012 55.2679 47.131C54.6295 46.9546 54.0488 46.6901 53.5258 46.3375C53.009 45.9848 52.5955 45.5348 52.2854 44.9876C51.9753 44.4403 51.8202 43.7927 51.8202 43.0448H54.5656C54.5656 43.4583 54.6295 43.8079 54.7571 44.0937C54.8848 44.3795 55.0642 44.6106 55.2953 44.7869C55.5324 44.9633 55.8121 45.0909 56.1344 45.17C56.4627 45.249 56.8215 45.2886 57.2106 45.2886C57.6849 45.2886 58.0741 45.2217 58.3781 45.0879C58.6882 44.9541 58.9162 44.7687 59.0622 44.5315C59.2142 44.2944 59.2902 44.0268 59.2902 43.7289Z" fill="white"/>
<path d="M66.2859 33.1943V47.2039H63.6591V33.1943H66.2859ZM65.9119 41.923H65.1914C65.1975 41.2359 65.2887 40.6035 65.465 40.0258C65.6413 39.4421 65.8937 38.9374 66.222 38.5118C66.5504 38.0801 66.9426 37.7456 67.3986 37.5085C67.8607 37.2713 68.3715 37.1528 68.9309 37.1528C69.4174 37.1528 69.8582 37.2227 70.2534 37.3626C70.6548 37.4963 70.9983 37.7152 71.2841 38.0193C71.576 38.3172 71.8009 38.7094 71.959 39.1958C72.1171 39.6823 72.1962 40.2721 72.1962 40.9653V47.2039H69.5511V40.947C69.5511 40.5092 69.4873 40.1657 69.3596 39.9164C69.238 39.661 69.0586 39.4816 68.8215 39.3783C68.5904 39.2688 68.3046 39.2141 67.9641 39.2141C67.5871 39.2141 67.2648 39.284 66.9973 39.4239C66.7358 39.5637 66.5261 39.7583 66.368 40.0076C66.2099 40.2508 66.0943 40.5366 66.0214 40.865C65.9484 41.1933 65.9119 41.546 65.9119 41.923Z" fill="white"/>
<path d="M73.7741 42.3699V42.1784C73.7741 41.4548 73.8774 40.7889 74.0842 40.1809C74.2909 39.5668 74.5919 39.0347 74.9872 38.5847C75.3824 38.1348 75.8688 37.7852 76.4465 37.5359C77.0241 37.2805 77.6869 37.1528 78.4348 37.1528C79.1827 37.1528 79.8486 37.2805 80.4323 37.5359C81.016 37.7852 81.5055 38.1348 81.9007 38.5847C82.3021 39.0347 82.6061 39.5668 82.8128 40.1809C83.0196 40.7889 83.1229 41.4548 83.1229 42.1784V42.3699C83.1229 43.0874 83.0196 43.7532 82.8128 44.3674C82.6061 44.9754 82.3021 45.5075 81.9007 45.9635C81.5055 46.4135 81.0191 46.7631 80.4414 47.0124C79.8638 47.2617 79.201 47.3864 78.4531 47.3864C77.7052 47.3864 77.0393 47.2617 76.4556 47.0124C75.878 46.7631 75.3885 46.4135 74.9872 45.9635C74.5919 45.5075 74.2909 44.9754 74.0842 44.3674C73.8774 43.7532 73.7741 43.0874 73.7741 42.3699ZM76.4009 42.1784V42.3699C76.4009 42.7834 76.4374 43.1695 76.5103 43.5282C76.5833 43.887 76.6988 44.2032 76.8569 44.4768C77.0211 44.7444 77.2339 44.9541 77.4954 45.1061C77.7568 45.2582 78.0761 45.3342 78.4531 45.3342C78.8179 45.3342 79.131 45.2582 79.3925 45.1061C79.654 44.9541 79.8638 44.7444 80.0219 44.4768C80.1799 44.2032 80.2955 43.887 80.3684 43.5282C80.4475 43.1695 80.487 42.7834 80.487 42.3699V42.1784C80.487 41.777 80.4475 41.4 80.3684 41.0474C80.2955 40.6886 80.1769 40.3724 80.0127 40.0988C79.8546 39.8191 79.6449 39.6002 79.3834 39.4421C79.1219 39.284 78.8057 39.205 78.4348 39.205C78.0639 39.205 77.7477 39.284 77.4863 39.4421C77.2309 39.6002 77.0211 39.8191 76.8569 40.0988C76.6988 40.3724 76.5833 40.6886 76.5103 41.0474C76.4374 41.4 76.4009 41.777 76.4009 42.1784Z" fill="white"/>
<path d="M87.3641 39.2323V50.9982H84.7373V37.3352H87.1726L87.3641 39.2323ZM93.6119 42.1601V42.3517C93.6119 43.0692 93.5268 43.735 93.3565 44.3491C93.1923 44.9633 92.9491 45.4983 92.6268 45.9544C92.3046 46.4043 91.9033 46.757 91.4229 47.0124C90.9486 47.2617 90.4014 47.3864 89.7811 47.3864C89.1792 47.3864 88.6562 47.2647 88.2124 47.0215C87.7685 46.7783 87.3945 46.4378 87.0905 46C86.7925 45.5561 86.5524 45.0423 86.3699 44.4586C86.1875 43.8748 86.0477 43.2485 85.9504 42.5797V42.078C86.0477 41.3605 86.1875 40.7038 86.3699 40.1079C86.5524 39.506 86.7925 38.9861 87.0905 38.5483C87.3945 38.1044 87.7654 37.7608 88.2032 37.5176C88.6471 37.2744 89.167 37.1528 89.7629 37.1528C90.3892 37.1528 90.9395 37.2713 91.4138 37.5085C91.8941 37.7456 92.2955 38.0861 92.6177 38.53C92.9461 38.9739 93.1923 39.5029 93.3565 40.117C93.5268 40.7312 93.6119 41.4122 93.6119 42.1601ZM90.976 42.3517V42.1601C90.976 41.7406 90.9395 41.3544 90.8665 41.0018C90.7996 40.643 90.6902 40.3299 90.5382 40.0623C90.3922 39.7948 90.1977 39.588 89.9544 39.4421C89.7173 39.2901 89.4285 39.2141 89.088 39.2141C88.7292 39.2141 88.4221 39.2719 88.1668 39.3874C87.9174 39.5029 87.7138 39.6701 87.5557 39.889C87.3976 40.1079 87.279 40.3694 87.1999 40.6734C87.1209 40.9774 87.0723 41.321 87.054 41.7041V42.9719C87.0844 43.4218 87.1695 43.8262 87.3094 44.1849C87.4492 44.5376 87.6651 44.8173 87.957 45.0241C88.2488 45.2308 88.6319 45.3342 89.1062 45.3342C89.4528 45.3342 89.7447 45.2582 89.9818 45.1061C90.2189 44.948 90.4105 44.7322 90.5564 44.4586C90.7084 44.1849 90.8148 43.8688 90.8756 43.51C90.9425 43.1512 90.976 42.7651 90.976 42.3517Z" fill="white"/>
<path d="M97.8713 39.2323V50.9982H95.2445V37.3352H97.6798L97.8713 39.2323ZM104.119 42.1601V42.3517C104.119 43.0692 104.034 43.735 103.864 44.3491C103.7 44.9633 103.456 45.4983 103.134 45.9544C102.812 46.4043 102.41 46.757 101.93 47.0124C101.456 47.2617 100.909 47.3864 100.288 47.3864C99.6864 47.3864 99.1634 47.2647 98.7196 47.0215C98.2757 46.7783 97.9017 46.4378 97.5977 46C97.2997 45.5561 97.0596 45.0423 96.8771 44.4586C96.6947 43.8748 96.5549 43.2485 96.4576 42.5797V42.078C96.5549 41.3605 96.6947 40.7038 96.8771 40.1079C97.0596 39.506 97.2997 38.9861 97.5977 38.5483C97.9017 38.1044 98.2726 37.7608 98.7104 37.5176C99.1543 37.2744 99.6742 37.1528 100.27 37.1528C100.896 37.1528 101.447 37.2713 101.921 37.5085C102.401 37.7456 102.803 38.0861 103.125 38.53C103.453 38.9739 103.7 39.5029 103.864 40.117C104.034 40.7312 104.119 41.4122 104.119 42.1601ZM101.483 42.3517V42.1601C101.483 41.7406 101.447 41.3544 101.374 41.0018C101.307 40.643 101.197 40.3299 101.045 40.0623C100.899 39.7948 100.705 39.588 100.462 39.4421C100.224 39.2901 99.9357 39.2141 99.5952 39.2141C99.2364 39.2141 98.9293 39.2719 98.674 39.3874C98.4247 39.5029 98.221 39.6701 98.0629 39.889C97.9048 40.1079 97.7862 40.3694 97.7071 40.6734C97.6281 40.9774 97.5795 41.321 97.5612 41.7041V42.9719C97.5916 43.4218 97.6767 43.8262 97.8166 44.1849C97.9564 44.5376 98.1723 44.8173 98.4642 45.0241C98.756 45.2308 99.1391 45.3342 99.6134 45.3342C99.96 45.3342 100.252 45.2582 100.489 45.1061C100.726 44.948 100.918 44.7322 101.064 44.4586C101.216 44.1849 101.322 43.8688 101.383 43.51C101.45 43.1512 101.483 42.7651 101.483 42.3517Z" fill="white"/>
<path d="M110.294 47.3864C109.528 47.3864 108.841 47.2647 108.233 47.0215C107.625 46.7722 107.108 46.4287 106.682 45.9909C106.262 45.5531 105.94 45.0453 105.715 44.4677C105.49 43.884 105.378 43.2637 105.378 42.607V42.2422C105.378 41.4943 105.484 40.8102 105.697 40.19C105.91 39.5698 106.214 39.0317 106.609 38.5756C107.01 38.1196 107.497 37.77 108.068 37.5267C108.64 37.2774 109.285 37.1528 110.002 37.1528C110.701 37.1528 111.322 37.2683 111.863 37.4994C112.404 37.7304 112.857 38.0588 113.222 38.4844C113.593 38.9101 113.872 39.4208 114.061 40.0167C114.249 40.6065 114.344 41.2632 114.344 41.9868V43.0813H106.5V41.3301H111.762V41.1295C111.762 40.7646 111.695 40.4393 111.562 40.1535C111.434 39.8617 111.239 39.6306 110.978 39.4603C110.716 39.2901 110.382 39.205 109.975 39.205C109.628 39.205 109.33 39.281 109.081 39.433C108.832 39.585 108.628 39.7978 108.47 40.0714C108.318 40.3451 108.202 40.6673 108.123 41.0383C108.05 41.4031 108.014 41.8044 108.014 42.2422V42.607C108.014 43.0023 108.068 43.3671 108.178 43.7015C108.293 44.036 108.455 44.3248 108.661 44.568C108.874 44.8112 109.129 44.9997 109.427 45.1335C109.731 45.2673 110.075 45.3342 110.458 45.3342C110.932 45.3342 111.373 45.243 111.781 45.0605C112.194 44.872 112.55 44.5893 112.848 44.2123L114.125 45.5987C113.918 45.8966 113.635 46.1824 113.276 46.456C112.924 46.7297 112.498 46.9546 111.999 47.131C111.501 47.3012 110.932 47.3864 110.294 47.3864Z" fill="white"/>
<path d="M118.466 39.4877V47.2039H115.839V37.3352H118.311L118.466 39.4877ZM121.44 37.2713L121.394 39.7066C121.266 39.6884 121.111 39.6732 120.929 39.661C120.752 39.6428 120.591 39.6336 120.445 39.6336C120.074 39.6336 119.752 39.6823 119.479 39.7796C119.211 39.8708 118.986 40.0076 118.804 40.19C118.627 40.3724 118.494 40.5944 118.402 40.8558C118.317 41.1173 118.269 41.4152 118.256 41.7497L117.727 41.5855C117.727 40.947 117.791 40.3603 117.919 39.8252C118.047 39.284 118.232 38.8128 118.475 38.4115C118.725 38.0101 119.029 37.7 119.387 37.4811C119.746 37.2622 120.157 37.1528 120.619 37.1528C120.765 37.1528 120.914 37.1649 121.066 37.1893C121.218 37.2075 121.342 37.2349 121.44 37.2713Z" fill="white"/>
</svg>
